SplineFontDB: 3.2
FontName: SeriousShanns
FullName: Serious Shanns
FamilyName: Serious Shanns
Weight: Book
Copyright: https://github.com/kaBeech/serious-shanns/blob/main/LICENSE
Version: 6.0.0
ItalicAngle: 0
UnderlinePosition: 0
UnderlineWidth: 0
Ascent: 800
Descent: 200
InvalidEm: 0
sfntRevision: 0x00003333
LayerCount: 2
Layer: 0 0 "Back" 1
Layer: 1 0 "Fore" 0
XUID: [1021 45 630387186 12505762]
StyleMap: 0x0040
FSType: 4
OS2Version: 3
OS2_WeightWidthSlopeOnly: 0
OS2_UseTypoMetrics: 0
CreationTime: 1532631502
ModificationTime: 315532800
PfmFamily: 81
TTFWeight: 400
TTFWidth: 5
LineGap: 0
VLineGap: 0
Panose: 0 0 0 0 0 0 0 0 0 0
OS2TypoAscent: 613
OS2TypoAOffset: 0
OS2TypoDescent: -188
OS2TypoDOffset: 0
OS2TypoLinegap: 98
OS2WinAscent: 778
OS2WinAOffset: 0
OS2WinDescent: 308
OS2WinDOffset: 0
HheadAscent: 796
HheadAOffset: 0
HheadDescent: -317
HheadDOffset: 0
OS2SubXSize: 317
OS2SubYSize: 293
OS2SubXOff: 0
OS2SubYOff: 37
OS2SupXSize: 317
OS2SupYSize: 293
OS2SupXOff: 0
OS2SupYOff: 171
OS2StrikeYSize: 0
OS2StrikeYPos: 132
OS2CapHeight: 576
OS2XHeight: 485
OS2Vendor: 'NONE'
OS2CodePages: 00000001.00000000
OS2UnicodeRanges: 00000001.00000000.00000000.00000000
MarkAttachClasses: 1
DEI: 91125
LangName: 1033 "" "" "Normal" "FontForge 2.0 : Serious Shanns : 11-6-2024" "" "Version 0.2.0"
Encoding: UnicodeBmp
Compacted: 1
UnicodeInterp: none
NameList: AGL For New Fonts
DisplaySize: -48
AntiAlias: 1
FitToEm: 0
WinInfo: 0 16 11
BeginPrivate: 8
BlueValues 32 [-40 -6 502 523 708 718 765 769]
OtherBlues 11 [-297 -287]
BlueScale 9 0.0291667
BlueShift 1 2
StdHW 4 [85]
StdVW 4 [96]
StemSnapH 7 [65 85]
StemSnapV 4 [96]
EndPrivate
BeginChars: 65537 97

StartChar: .notdef
Encoding: 65536 -1 0
Width: 590
GlyphClass: 1
Flags: W
HStem: -268 54<134 455> 695 54<134 455>
VStem: 81 53<-214 695> 455 54<-214 695>
LayerCount: 2
Fore
SplineSet
81 -268 m 1
 81 749 l 1
 509 749 l 1
 509 -268 l 1
 81 -268 l 1
134 -214 m 1
 455 -214 l 1
 455 695 l 1
 134 695 l 1
 134 -214 l 1
EndSplineSet
Validated: 1
EndChar

StartChar: exclam
Encoding: 33 33 1
Width: 590
GlyphClass: 2
Flags: HMW
HStem: -24.5727 153.613
VStem: 212.997 164.001 253.997 92.3857
LayerCount: 2
Fore
SplineSet
354 738 m 0xa0
 354 732 352.498046875 688.16796875 349.498046875 606.500976562 c 0
 347.420898438 549.961914062 346.3828125 500.692382812 346.3828125 458.692382812 c 0
 346.3828125 440.026367188 346.587890625 422.795898438 346.998046875 407.000976562 c 0
 347.6640625 382.000976562 347.997070312 362.04296875 347.997070312 347.125976562 c 0
 347.997070312 332.208984375 347.6640625 322.333984375 346.997070312 317.5 c 0
 346.108398438 311.056640625 345.6640625 302.022460938 345.6640625 290.397460938 c 0
 345.6640625 284.580078125 345.775390625 278.114257812 345.998046875 271 c 0
 344.665039062 256.333007812 338.998046875 244.833007812 328.998046875 236.5 c 0
 319.739257812 228.784179688 308.765625 224.926757812 296.078125 224.926757812 c 0
 295.0625 224.926757812 294.036132812 224.951171875 292.999023438 225.000976562 c 0
 279.666015625 225.000976562 268.666015625 229.333984375 259.999023438 238.000976562 c 0
 252.487304688 245.512695312 248.731445312 256.029296875 248.731445312 269.55078125 c 0
 248.731445312 271.629882812 248.8203125 273.780273438 248.998046875 276.001953125 c 0
 249.665039062 286.001953125 250.665039062 295.668945312 251.998046875 305.001953125 c 0
 253.331054688 314.334960938 254.1640625 322.16796875 254.497070312 328.500976562 c 0
 254.830078125 334.833984375 255.330078125 349.833984375 255.997070312 373.500976562 c 0
 256.1640625 379.41796875 256.247070312 385.762695312 256.247070312 392.534179688 c 0
 256.247070312 412.846679688 255.497070312 437.001953125 253.997070312 465.000976562 c 0
 253.330078125 491.000976562 252.830078125 518.500976562 252.497070312 547.500976562 c 0
 252.385742188 557.158203125 252.330078125 566.279296875 252.330078125 574.864257812 c 0
 252.330078125 592.059570312 252.552734375 607.10546875 252.998046875 620 c 0
 253.665039062 639.333007812 254.33203125 661.333007812 254.999023438 686 c 0
 255.666015625 710.666992188 255.999023438 727 255.999023438 735 c 0
 256.666015625 753 261.833007812 766.666992188 271.5 776 c 0
 281.166992188 785.333007812 293 790 307 790 c 0
 308 790.047851562 308.986328125 790.071289062 309.959960938 790.071289062 c 0
 322.60546875 790.071289062 332.952148438 786.047851562 341 778 c 0
 349.666992188 769.333007812 354 756 354 738 c 0xa0
296.998046875 -23.9990234375 m 0
 293.47265625 -24.3798828125 290.0390625 -24.5703125 286.697265625 -24.5703125 c 0
 266.658203125 -24.5703125 249.924804688 -17.7158203125 236.497070312 -4.0029296875 c 0
 220.830078125 11.9970703125 212.997070312 31.330078125 212.997070312 53.9970703125 c 0
 212.997070312 73.9970703125 221.830078125 91.330078125 239.497070312 105.997070312 c 0
 257.1640625 120.6640625 276.331054688 128.331054688 296.998046875 128.998046875 c 0
 298.03515625 129.02734375 299.064453125 129.041992188 300.0859375 129.041992188 c 0
 322.02734375 129.041992188 340.165039062 122.194335938 354.498046875 108.499023438 c 0
 369.498046875 94.166015625 376.998046875 76.3330078125 376.998046875 55 c 0xc0
 376.998046875 33.6669921875 369.665039062 15.833984375 354.998046875 1.5009765625 c 0
 340.331054688 -12.83203125 320.998046875 -21.33203125 296.998046875 -23.9990234375 c 0
EndSplineSet
Validated: 524289
EndChar

StartChar: quotedbl
Encoding: 34 34 2
Width: 590
GlyphClass: 2
Flags: HMW
VStem: 165.571 101.426 323.523 103.475
LayerCount: 2
Fore
SplineSet
268 738 m 0
 268.221679688 728.908203125 268.33203125 717.880859375 268.33203125 704.916015625 c 0
 268.33203125 678.904296875 267.885742188 645.09765625 266.99609375 603.498046875 c 0
 265.663085938 541.165039062 263.330078125 498.33203125 259.997070312 474.999023438 c 0
 257.997070312 461.666015625 252.330078125 451.666015625 242.997070312 444.999023438 c 0
 234.512695312 438.938476562 225.202148438 435.908203125 215.065429688 435.908203125 c 0
 214.051757812 435.908203125 213.029296875 435.938476562 211.999023438 435.999023438 c 0
 198.666015625 436.666015625 186.833007812 440.833007812 176.5 448.5 c 0
 167.34765625 455.291015625 162.771484375 464.565429688 162.771484375 476.32421875 c 0
 162.771484375 480.546875 165.571289062 511.731445312 165.571289062 589.744140625 c 0
 165.571289062 596.965820312 165.547851562 604.383789062 165.5 611.999023438 c 0
 165.166992188 665.33203125 164 709.33203125 162 743.999023438 c 0
 161.333007812 751.999023438 162.833007812 758.83203125 166.5 764.499023438 c 0
 170.166992188 770.166015625 175 774.333007812 181 777 c 0
 187 779.666992188 193.166992188 781.5 199.5 782.5 c 0
 205.833007812 783.5 212 783.666992188 218 783 c 0
 224 783 229.666992188 782.333007812 235 781 c 0
 240.333007812 779.666992188 245.5 777.5 250.5 774.5 c 0
 255.5 771.5 259.666992188 766.833007812 263 760.5 c 0
 266.333007812 754.166992188 268 746.666992188 268 738 c 0
427.99609375 737.997070312 m 0
 428.21875 728.875976562 428.329101562 717.805664062 428.329101562 704.786132812 c 0
 428.329101562 678.791015625 427.885742188 645.026367188 426.998046875 603.495117188 c 0
 425.665039062 541.162109375 423.665039062 498.329101562 420.998046875 474.99609375 c 0
 418.998046875 461.663085938 413.165039062 451.663085938 403.498046875 444.99609375 c 0
 394.709960938 438.935546875 385.508789062 435.905273438 375.89453125 435.905273438 c 0
 374.932617188 435.905273438 373.966796875 435.935546875 372.997070312 435.99609375 c 0
 359.6640625 436.663085938 347.6640625 440.830078125 336.997070312 448.497070312 c 0
 328.014648438 454.953125 323.5234375 463.654296875 323.5234375 474.6015625 c 0
 323.5234375 476.654296875 323.681640625 478.786132812 323.997070312 480.997070312 c 0
 325.497070312 506.49609375 326.247070312 537.432617188 326.247070312 573.805664062 c 0
 326.247070312 585.931640625 326.1640625 598.662109375 325.997070312 611.99609375 c 0
 325.330078125 665.329101562 323.997070312 709.329101562 321.997070312 743.99609375 c 0
 321.997070312 751.99609375 323.830078125 758.829101562 327.497070312 764.49609375 c 0
 331.1640625 770.163085938 335.997070312 774.330078125 341.997070312 776.997070312 c 0
 347.997070312 779.6640625 353.997070312 781.497070312 359.997070312 782.497070312 c 0
 365.997070312 783.497070312 371.997070312 783.6640625 377.997070312 782.997070312 c 0
 383.997070312 782.997070312 389.6640625 782.330078125 394.997070312 780.997070312 c 0
 400.330078125 779.6640625 405.663085938 777.497070312 410.99609375 774.497070312 c 0
 416.329101562 771.497070312 420.49609375 766.830078125 423.49609375 760.497070312 c 0
 426.49609375 754.1640625 427.99609375 746.6640625 427.99609375 737.997070312 c 0
EndSplineSet
Validated: 524289
EndChar

StartChar: numbersign
Encoding: 35 35 3
Width: 590
GlyphClass: 2
Flags: HMW
HStem: 192 82 445 84 697.667 20G
LayerCount: 2
Fore
SplineSet
181 42 m 0
 176.333007812 28 166.665039062 16.4990234375 151.998046875 7.4990234375 c 0
 141.84375 1.2685546875 132.168945312 -1.8466796875 122.973632812 -1.8466796875 c 0
 118.88671875 -1.8466796875 114.89453125 -1.2314453125 110.997070312 -0.0009765625 c 0
 98.330078125 2.666015625 88.9970703125 11.166015625 82.9970703125 25.4990234375 c 0
 79.8203125 33.0869140625 78.232421875 41.095703125 78.232421875 49.5244140625 c 0
 78.232421875 57.0166015625 79.4873046875 64.8408203125 81.9970703125 72.998046875 c 0
 87.330078125 90.998046875 96.6630859375 129.665039062 109.99609375 188.998046875 c 1
 79.99609375 188.998046875 l 2
 63.3291015625 188.998046875 50.662109375 192.331054688 41.9951171875 198.998046875 c 0
 29.25 208.801757812 28.91796875 221.170898438 28.91796875 228.732421875 c 0
 28.91796875 239.524414062 32.6103515625 248.61328125 39.9951171875 255.998046875 c 0
 47.9951171875 263.998046875 60.662109375 268.665039062 77.9951171875 269.998046875 c 0
 83.328125 269.998046875 91.4951171875 270.165039062 102.495117188 270.498046875 c 0
 113.495117188 270.831054688 121.662109375 270.998046875 126.995117188 270.998046875 c 1
 160.995117188 443.998046875 l 1
 155.662109375 443.998046875 148.329101562 443.831054688 138.99609375 443.498046875 c 0
 129.663085938 443.165039062 123.330078125 442.998046875 119.997070312 442.998046875 c 0
 118.663085938 442.944335938 117.353515625 442.91796875 116.068359375 442.91796875 c 0
 101.299804688 442.91796875 89.7763671875 446.444335938 81.4970703125 453.498046875 c 0
 68.240234375 464.791015625 67.9248046875 477.244140625 67.9248046875 484.541992188 c 0
 67.9248046875 495.44140625 71.9482421875 504.759765625 79.99609375 512.497070312 c 0
 88.6630859375 520.830078125 101.663085938 525.330078125 118.99609375 525.997070312 c 0
 131.663085938 526.6640625 150.99609375 526.997070312 176.99609375 526.997070312 c 1
 195.663085938 627.6640625 205.330078125 679.6640625 205.997070312 682.997070312 c 0
 211.330078125 699.6640625 219.663085938 711.331054688 230.99609375 717.998046875 c 0
 238.551757812 722.443359375 246.255859375 724.666015625 254.108398438 724.666015625 c 0
 258.034179688 724.666015625 261.997070312 724.110351562 265.997070312 722.999023438 c 0
 279.997070312 720.33203125 290.830078125 713.665039062 298.497070312 702.998046875 c 0
 303.840820312 695.563476562 306.512695312 686.509765625 306.512695312 675.836914062 c 0
 306.512695312 671.197265625 306.0078125 666.250976562 304.998046875 660.999023438 c 2
 277.998046875 528.999023438 l 1
 390.998046875 528.999023438 l 1
 417.998046875 674.999023438 l 2
 423.331054688 692.33203125 431.498046875 704.33203125 442.498046875 710.999023438 c 0
 449.83203125 715.444335938 457.684570312 717.666992188 466.055664062 717.666992188 c 0
 470.240234375 717.666992188 474.5546875 717.111328125 478.999023438 716 c 0
 493.666015625 713.333007812 504.666015625 706.666015625 511.999023438 695.999023438 c 0
 516.744140625 689.096679688 519.1171875 680.798828125 519.1171875 671.10546875 c 0
 519.1171875 665.818359375 518.411132812 660.116210938 516.999023438 653.999023438 c 0
 509.666015625 625.999023438 501.333007812 584.999023438 492 530.999023438 c 1
 503 530.999023438 l 2
 519 530.999023438 532.5 526.499023438 543.5 517.499023438 c 0
 554.5 508.499023438 560.333007812 498.999023438 561 488.999023438 c 0
 561 476.999023438 557 466.83203125 549 458.499023438 c 0
 541 450.166015625 528.666992188 445.666015625 512 444.999023438 c 2
 476 444.999023438 l 1
 447 273.999023438 l 1
 488 273.999023438 l 2
 503.333007812 273.999023438 514 270.499023438 520 263.499023438 c 0
 526 256.499023438 529.333007812 247.33203125 530 235.999023438 c 0
 530 206.666015625 516 191.999023438 488 191.999023438 c 2
 432 191.999023438 l 1
 418.666992188 115.999023438 409 64.666015625 403 37.9990234375 c 0
 397.666992188 23.9990234375 388.166992188 13.166015625 374.5 5.4990234375 c 0
 365.518554688 0.4609375 356.609375 -2.0576171875 347.772460938 -2.0576171875 c 0
 343.162109375 -2.0576171875 338.571289062 -1.3720703125 334 -0.0009765625 c 0
 321.333007812 2.666015625 312 10.4990234375 306 23.4990234375 c 0
 302.823242188 30.380859375 301.235351562 37.77734375 301.235351562 45.6875 c 0
 301.235351562 52.71875 302.490234375 60.15625 305 68 c 0
 311.666992188 94.6669921875 320.333984375 135.666992188 331.000976562 191 c 1
 317.000976562 191 296.66796875 190.833007812 270.000976562 190.5 c 0
 243.333984375 190.166992188 223.666992188 190 211 190 c 1
 197 118 187 68.6669921875 181 42 c 0
261.999023438 444.999023438 m 1
 227 273.998046875 l 1
 254.333007812 274.665039062 293.666015625 274.998046875 344.999023438 274.998046875 c 1
 355.666015625 329.665039062 365.999023438 386.33203125 375.999023438 444.999023438 c 1
 261.999023438 444.999023438 l 1
EndSplineSet
Validated: 524289
EndChar

StartChar: dollar
Encoding: 36 36 4
Width: 590
GlyphClass: 2
Flags: HMW
HStem: -28.9932 84.9932 642.998 79.002
VStem: 68.999 92.001 256.999 87.001 447.001 92.999
LayerCount: 2
Fore
SplineSet
337 -99 m 0
 335.666992188 -113.666992188 330 -124.993164062 320 -132.993164062 c 0
 310 -140.993164062 298.333007812 -144.993164062 285 -144.993164062 c 0
 272.333007812 -144.993164062 262.833007812 -140.493164062 256.5 -131.493164062 c 0
 251.268554688 -124.05859375 248.65234375 -114.0078125 248.65234375 -101.340820312 c 0
 248.65234375 -98.6748046875 248.768554688 -95.892578125 249 -92.994140625 c 0
 249.888671875 -82.330078125 250.333007812 -69.296875 250.333007812 -53.89453125 c 0
 250.333007812 -46.1875 250.221679688 -37.8876953125 249.999023438 -28.994140625 c 1
 246.999023438 -28.994140625 l 2
 222.999023438 -28.994140625 200.499023438 -25.994140625 179.499023438 -19.994140625 c 0
 158.499023438 -13.994140625 140.499023438 -5.994140625 125.499023438 4.005859375 c 0
 110.499023438 14.005859375 97.4990234375 24.6728515625 86.4990234375 36.005859375 c 0
 75.4990234375 47.3388671875 66.666015625 59.671875 59.9990234375 73.0048828125 c 0
 53.9990234375 86.5048828125 50.9990234375 98.1298828125 50.9990234375 107.879882812 c 0
 50.9990234375 111.129882812 51.33203125 114.171875 51.9990234375 117.004882812 c 0
 54.666015625 128.337890625 61.666015625 136.670898438 72.9990234375 142.00390625 c 0
 80.9990234375 145.336914062 87.33203125 147.669921875 91.9990234375 149.002929688 c 0
 96.666015625 150.3359375 101.833007812 150.668945312 107.5 150.001953125 c 0
 113.166992188 149.334960938 118.666992188 146.66796875 124 142.000976562 c 0
 129.333007812 137.333984375 135 130.666992188 141 122 c 0
 154.333007812 101.333007812 169.666015625 85.166015625 186.999023438 73.4990234375 c 0
 204.33203125 61.83203125 225.33203125 55.9990234375 249.999023438 55.9990234375 c 2
 253.999023438 55.9990234375 l 1
 255.33203125 167.33203125 255.999023438 266.665039062 255.999023438 353.998046875 c 1
 252.666015625 353.998046875 246.833007812 354.665039062 238.5 355.998046875 c 0
 230.166992188 357.331054688 224 357.998046875 220 357.998046875 c 0
 196 360.665039062 174 366.998046875 154 376.998046875 c 0
 134 386.998046875 118.166992188 399.165039062 106.5 413.498046875 c 0
 94.8330078125 427.831054688 85.666015625 442.831054688 78.9990234375 458.498046875 c 0
 72.33203125 474.165039062 68.9990234375 489.998046875 68.9990234375 505.998046875 c 0
 68.9990234375 529.998046875 72.666015625 552.998046875 79.9990234375 574.998046875 c 0
 87.33203125 596.998046875 98.4990234375 617.498046875 113.499023438 636.498046875 c 0
 128.499023438 655.498046875 147.999023438 671.831054688 171.999023438 685.498046875 c 0
 195.999023438 699.165039062 224.33203125 708.665039062 256.999023438 713.998046875 c 1
 257.666015625 729.998046875 257.999023438 749.331054688 257.999023438 771.998046875 c 0
 258.666015625 808.665039062 272.333007812 826.998046875 299 826.998046875 c 0
 299.555664062 827.010742188 300.106445312 827.016601562 300.65234375 827.016601562 c 0
 329.55078125 827.016601562 344 809.677734375 344 774.999023438 c 2
 344 721.999023438 l 1
 358.666992188 721.33203125 379.166992188 717.999023438 405.5 711.999023438 c 0
 431.833007812 705.999023438 451.333007812 700.33203125 464 694.999023438 c 0
 476.666992188 690.33203125 485.666992188 682.999023438 491 672.999023438 c 0
 495.266601562 664.999023438 497.399414062 656.572265625 497.399414062 647.71875 c 0
 497.399414062 645.505859375 497.266601562 643.266601562 497 641 c 0
 496.333007812 633 493.833007812 626.833007812 489.5 622.5 c 0
 485.166992188 618.166992188 479.833984375 615.5 473.500976562 614.5 c 0
 467.16796875 613.5 461.16796875 613.333007812 455.500976562 614 c 0
 449.833984375 614.666992188 443.666992188 615.666992188 437 617 c 0
 431 618.333007812 423.5 621.166015625 414.5 625.499023438 c 0
 405.5 629.83203125 395.333007812 633.665039062 384 636.998046875 c 0
 372.666992188 640.331054688 359 642.331054688 343 642.998046875 c 1
 342.333007812 589.665039062 341 518.998046875 339 430.998046875 c 1
 369.666992188 426.998046875 397 419.831054688 421 409.498046875 c 0
 445 399.165039062 464.166992188 387.33203125 478.5 373.999023438 c 0
 492.833007812 360.666015625 505 345.333007812 515 328 c 0
 525 310.666992188 531.666992188 293.666992188 535 277 c 0
 538.333007812 260.333007812 540 243 540 225 c 0
 540 194.333007812 534.833007812 165.333007812 524.5 138 c 0
 514.166992188 110.666992188 499.666992188 87 481 67 c 0
 462.333007812 47 440.666015625 29.6669921875 415.999023438 15 c 0
 391.33203125 0.3330078125 364.33203125 -10.6669921875 334.999023438 -18 c 1
 335.666015625 -58 336.333007812 -85 337 -99 c 0
161 531.006835938 m 0
 161 509.673828125 169.500976562 491.006835938 186.500976562 475.006835938 c 0
 203.500976562 459.006835938 226.66796875 447.673828125 256.000976562 441.006835938 c 1
 256.66796875 487.006835938 257.000976562 551.006835938 257.000976562 633.006835938 c 1
 228.333984375 624.33984375 205.166992188 611.33984375 187.5 594.006835938 c 0
 169.833007812 576.673828125 161 555.673828125 161 531.006835938 c 0
447.000976562 208.006835938 m 0
 447.000976562 220.673828125 445.33203125 232.340820312 441.999023438 243.0078125 c 0
 438.666015625 253.674804688 433.333007812 264.841796875 426 276.508789062 c 0
 418.666992188 288.17578125 407.666992188 299.008789062 393 309.008789062 c 0
 378.333007812 319.008789062 360 327.67578125 338 335.008789062 c 1
 338 305.67578125 337.833007812 261.508789062 337.5 202.508789062 c 0
 337.166992188 143.508789062 336.333984375 100.67578125 335.000976562 74.0087890625 c 1
 367.000976562 87.341796875 393.66796875 105.674804688 415.000976562 129.0078125 c 0
 436.333984375 152.340820312 447.000976562 178.673828125 447.000976562 208.006835938 c 0
EndSplineSet
Validated: 524289
EndChar

StartChar: percent
Encoding: 37 37 5
Width: 590
GlyphClass: 2
Flags: HMW
HStem: -28.0313 75.9731 170.999 74 432 75<163.001 171.334 163.001 174> 632 73
VStem: 36.001 71.919 216.063 70.301 303.931 71.992 422.999 88.8789 482.018 71.7321
LayerCount: 2
Fore
SplineSet
152 432 m 0xfe
 128.666992188 432 107.833984375 438.5 89.5009765625 451.5 c 0
 71.16796875 464.5 57.66796875 480.833007812 49.0009765625 500.5 c 0
 40.333984375 520.166992188 36.0009765625 541.333984375 36.0009765625 564.000976562 c 0
 36.0009765625 605.333984375 47.5009765625 639.166992188 70.5009765625 665.5 c 0
 93.5009765625 691.833007812 126.000976562 705 168.000976562 705 c 0
 184.66796875 705 200.16796875 702.166992188 214.500976562 696.5 c 0
 228.833984375 690.833007812 241.666992188 682.333007812 253 671 c 0
 264.333007812 659.666992188 273 644.166992188 279 624.5 c 0
 283.909179688 608.408203125 286.36328125 590.197265625 286.36328125 569.866210938 c 0
 286.36328125 565.348632812 286.2421875 560.7265625 286 556 c 0
 284 515.333007812 272.166992188 484.5 250.5 463.5 c 0
 228.833007812 442.5 196 432 152 432 c 0xfe
61 19 m 0
 75 47.6669921875 108.16796875 107.833984375 160.500976562 199.500976562 c 0
 212.833984375 291.16796875 265.166992188 383.66796875 317.5 477.000976562 c 0
 369.833007812 570.333984375 405 637.000976562 423 677.000976562 c 0
 431 689.000976562 441.5 696.500976562 454.5 699.500976562 c 0
 458.534179688 700.431640625 462.48828125 700.897460938 466.362304688 700.897460938 c 0
 474.970703125 700.897460938 483.18359375 698.598632812 490.999023438 694.000976562 c 0
 497.669921875 691.036132812 511.877929688 683.4609375 511.877929688 665.655273438 c 0xff
 511.877929688 656.331054688 507.918945312 645.446289062 500 633.001953125 c 0
 475.333007812 592.334960938 416.5 488.66796875 323.5 322.000976562 c 0
 230.5 155.333984375 169 42.6669921875 139 -16 c 0
 126.200195312 -39.630859375 111.764648438 -51.4462890625 95.693359375 -51.4462890625 c 0
 90.0009765625 -51.4462890625 84.103515625 -49.9638671875 78.0009765625 -47 c 0
 61.0693359375 -38.95703125 52.603515625 -27.15234375 52.603515625 -11.5849609375 c 0
 52.603515625 -2.6337890625 55.40234375 7.5615234375 61 19 c 0
163.000976562 507 m 0
 179.66796875 507 192.166992188 512.333007812 200.5 523 c 0
 212.970703125 538.962890625 216.063476562 561.026367188 216.063476562 570.180664062 c 0
 216.063476562 590.727539062 211.375976562 606.000976562 202.000976562 616.000976562 c 0
 192.000976562 626.66796875 178.000976562 632.000976562 160.000976562 632.000976562 c 0
 144.000976562 632.000976562 131.66796875 626.16796875 123.000976562 614.500976562 c 0
 120.083007812 610.572265625 107.920898438 592.4140625 107.920898438 562.6015625 c 0
 107.920898438 546.06640625 111.447265625 533.19921875 118.500976562 524 c 0
 126.16796875 514 141.000976562 508.333007812 163.000976562 507 c 0
419 -28 m 0
 395.666992188 -28 375 -21.5 357 -8.5 c 0
 339 4.5 325.5 20.8330078125 316.5 40.5 c 0
 308.12109375 58.810546875 303.930664062 78.4208984375 303.930664062 99.3310546875 c 0
 303.930664062 122.313476562 305.106445312 167.287109375 338 205.5 c 0
 360.666992188 231.833007812 393 245 435 245 c 0
 451.666992188 245 467.166992188 242.333007812 481.5 237 c 0
 495.833007812 231.666992188 508.833007812 223.166992188 520.5 211.5 c 0
 532.166992188 199.833007812 541 184.166015625 547 164.499023438 c 0
 551.5 149.749023438 553.75 133.217773438 553.75 114.905273438 c 0xfe80
 553.75 108.80078125 553.5 102.499023438 553 95.9990234375 c 0
 551 55.33203125 539.166992188 24.33203125 517.5 2.9990234375 c 0
 496.490234375 -17.6875 464.98046875 -28.0302734375 422.970703125 -28.0302734375 c 0
 421.657226562 -28.0302734375 420.333984375 -28.0205078125 419 -28 c 0
430 48 m 0
 430.915039062 47.9619140625 431.81640625 47.9443359375 432.70703125 47.9443359375 c 0
 447.397460938 47.9443359375 458.828125 53.1298828125 467 63.5009765625 c 0
 468.374023438 65.2451171875 482.017578125 83.193359375 482.017578125 108.302734375 c 0
 482.017578125 150.1015625 464.01171875 171.000976562 428 171.000976562 c 0
 412.666992188 171.000976562 400.5 165.16796875 391.5 153.500976562 c 0
 388.3515625 149.418945312 375.922851562 131.494140625 375.922851562 102.913085938 c 0
 375.922851562 86.8427734375 379.615234375 74.0380859375 387 64.5 c 0
 395 54.1669921875 409.333007812 48.6669921875 430 48 c 0
EndSplineSet
Validated: 524289
EndChar

StartChar: ampersand
Encoding: 38 38 6
Width: 590
GlyphClass: 2
Flags: HMW
HStem: -41.998 93.998 -40.3768 21G 645.001 79
VStem: 36.0029 100.997 123.002 95.998 357 83.002
LayerCount: 2
Fore
SplineSet
520 -35 m 0xac
 514.133789062 -38.5849609375 507.91015625 -40.3779296875 501.327148438 -40.3779296875 c 0x6c
 494.443359375 -40.3779296875 487.16796875 -38.41796875 479.5 -34.4990234375 c 0
 464.5 -26.83203125 451.333007812 -13.6650390625 440 5.001953125 c 0
 438.666992188 8.3349609375 434.833984375 18.3349609375 428.500976562 35.001953125 c 0
 422.16796875 51.6689453125 417.334960938 63.6689453125 414.001953125 71.001953125 c 1
 412.001953125 68.3349609375 407.668945312 62.66796875 401.001953125 54.0009765625 c 0
 394.334960938 45.333984375 389.334960938 39.0009765625 386.001953125 35.0009765625 c 0
 382.668945312 31.0009765625 377.3359375 25.0009765625 370.002929688 17.0009765625 c 0
 362.669921875 9.0009765625 356.169921875 2.833984375 350.502929688 -1.4990234375 c 0
 344.8359375 -5.83203125 337.502929688 -10.9990234375 328.502929688 -16.9990234375 c 0
 319.502929688 -22.9990234375 310.8359375 -27.4990234375 302.502929688 -30.4990234375 c 0
 294.169921875 -33.4990234375 284.169921875 -36.166015625 272.502929688 -38.4990234375 c 0
 260.8359375 -40.83203125 249.002929688 -41.9990234375 237.002929688 -41.9990234375 c 0
 199.669921875 -41.9990234375 165.502929688 -32.33203125 134.502929688 -12.9990234375 c 0
 103.502929688 6.333984375 79.3359375 31.6669921875 62.0029296875 63 c 0
 44.669921875 94.3330078125 36.0029296875 128.333007812 36.0029296875 165 c 0xb4
 36.0029296875 291 88.0029296875 376.666992188 192.002929688 422 c 1
 186.002929688 432 178.8359375 444 170.502929688 458 c 0
 162.169921875 472 156.002929688 481.833007812 152.002929688 487.5 c 0
 148.002929688 493.166992188 143.669921875 500.5 139.002929688 509.5 c 0
 134.3359375 518.5 131.168945312 526.333007812 129.501953125 533 c 0
 127.834960938 539.666992188 126.334960938 547.833984375 125.001953125 557.500976562 c 0
 123.668945312 567.16796875 123.001953125 577.66796875 123.001953125 589.000976562 c 0
 123.001953125 601.000976562 124.501953125 612.833984375 127.501953125 624.500976562 c 0
 130.501953125 636.16796875 136.168945312 648.16796875 144.501953125 660.500976562 c 0
 152.834960938 672.833984375 162.501953125 683.666992188 173.501953125 693 c 0
 184.501953125 702.333007812 199.501953125 709.833007812 218.501953125 715.5 c 0
 237.501953125 721.166992188 259.001953125 724 283.001953125 724 c 0
 302.334960938 724 321.334960938 721 340.001953125 715 c 0
 358.668945312 709 375.501953125 700.166992188 390.501953125 688.5 c 0
 405.501953125 676.833007812 417.501953125 661.5 426.501953125 642.5 c 0
 435.501953125 623.5 440.001953125 602.333007812 440.001953125 579 c 0
 440.001953125 557.666992188 437.334960938 537.833984375 432.001953125 519.500976562 c 0
 426.668945312 501.16796875 419.8359375 485.834960938 411.502929688 473.501953125 c 0
 403.169921875 461.168945312 392.669921875 449.3359375 380.002929688 438.002929688 c 0
 367.3359375 426.669921875 355.668945312 417.669921875 345.001953125 411.002929688 c 0
 334.334960938 404.3359375 322.001953125 397.668945312 308.001953125 391.001953125 c 1
 320.001953125 370.334960938 340.334960938 339.66796875 369.001953125 299.000976562 c 0
 397.668945312 258.333984375 416.001953125 231.333984375 424.001953125 218.000976562 c 1
 428.668945312 227.333984375 434.001953125 238.166992188 440.001953125 250.5 c 0
 446.001953125 262.833007812 450.501953125 272.833007812 453.501953125 280.5 c 0
 456.501953125 288.166992188 459.334960938 293.666992188 462.001953125 297 c 0
 474.001953125 314.333007812 485.501953125 325.166015625 496.501953125 329.499023438 c 0
 500.834960938 331.206054688 505.296875 332.059570312 509.888671875 332.059570312 c 0
 516.953125 332.059570312 524.32421875 330.0390625 532.001953125 325.998046875 c 0
 543.334960938 320.665039062 550.16796875 310.83203125 552.500976562 296.499023438 c 0
 552.99609375 293.458984375 553.243164062 290.336914062 553.243164062 287.131835938 c 0
 553.243164062 275.225585938 549.829101562 262.181640625 543 247.999023438 c 0
 539.666992188 241.999023438 529.666992188 228.666015625 513 207.999023438 c 0
 496.333007812 187.33203125 483 168.33203125 473 150.999023438 c 1
 480.333007812 138.33203125 490.5 120.165039062 503.5 96.498046875 c 0
 516.5 72.8310546875 524.333007812 58.998046875 527 54.998046875 c 0
 535.108398438 42.025390625 539.162109375 27.9560546875 539.162109375 12.7919921875 c 0
 539.162109375 9.25390625 538.94140625 5.65625 538.5 1.9990234375 c 0
 536.166992188 -17.333984375 530 -29.6669921875 520 -35 c 0xac
219.000976562 572 m 0
 219.000976562 555.333007812 223.333984375 537 232.000976562 517 c 0
 240.66796875 497 251.334960938 479.333007812 264.001953125 464 c 1
 278.668945312 468.666992188 291.168945312 473.5 301.501953125 478.5 c 0
 311.834960938 483.5 321.66796875 490 331.000976562 498 c 0
 340.333984375 506 347.000976562 515.833007812 351.000976562 527.5 c 0
 355.000976562 539.166992188 357.000976562 553 357.000976562 569 c 0
 357.000976562 593.666992188 349.500976562 612.5 334.500976562 625.5 c 0
 319.500976562 638.5 301.333984375 645 280.000976562 645 c 0
 239.333984375 645 219.000976562 620.666992188 219.000976562 572 c 0
137.000976562 174 m 0xb4
 137.000976562 139.333007812 146.33203125 110.33203125 164.999023438 86.9990234375 c 0
 183.666015625 63.666015625 207.999023438 51.9990234375 237.999023438 51.9990234375 c 0
 247.33203125 51.9990234375 256.499023438 52.9990234375 265.499023438 54.9990234375 c 0
 274.499023438 56.9990234375 282.166015625 58.9990234375 288.499023438 60.9990234375 c 0
 294.83203125 62.9990234375 301.499023438 66.33203125 308.499023438 70.9990234375 c 0
 315.499023438 75.666015625 320.999023438 79.4990234375 324.999023438 82.4990234375 c 0
 328.999023438 85.4990234375 333.83203125 90.166015625 339.499023438 96.4990234375 c 0
 345.166015625 102.83203125 348.833007812 107.33203125 350.5 109.999023438 c 0
 352.166992188 112.666015625 355.666992188 117.499023438 361 124.499023438 c 0
 366.333007812 131.499023438 369.333007812 135.666015625 370 136.999023438 c 0
 358 162.999023438 348 183.33203125 340 197.999023438 c 0
 332 213.33203125 315.833007812 238.33203125 291.5 272.999023438 c 0
 267.166992188 307.666015625 250 333.333007812 240 350 c 1
 220 341.333007812 202.833007812 330.5 188.5 317.5 c 0
 174.166992188 304.5 163.333984375 290.166992188 156.000976562 274.5 c 0
 148.66796875 258.833007812 143.66796875 243 141.000976562 227 c 0
 138.333984375 211 137.000976562 193.333007812 137.000976562 174 c 0xb4
EndSplineSet
Validated: 524289
EndChar

StartChar: quotesingle
Encoding: 39 39 7
Width: 590
GlyphClass: 2
Flags: HMW
HStem: 445.91 325.59
VStem: 242.002 106.332
LayerCount: 2
Fore
SplineSet
348 728 m 0
 348.22265625 719.106445312 348.333984375 708.600585938 348.333984375 696.482421875 c 0
 348.333984375 672.263671875 347.889648438 641.603515625 347.000976562 604.500976562 c 0
 345.66796875 548.833984375 343.334960938 509.333984375 340.001953125 486.000976562 c 0
 338.001953125 472.000976562 332.168945312 461.66796875 322.501953125 455.000976562 c 0
 313.713867188 448.940429688 304.512695312 445.91015625 294.8984375 445.91015625 c 0
 293.936523438 445.91015625 292.970703125 445.940429688 292.000976562 446.000976562 c 0
 278.66796875 446.66796875 266.834960938 451.000976562 256.501953125 459.000976562 c 0
 247.349609375 466.086914062 242.7734375 475.526367188 242.7734375 487.319335938 c 0
 242.7734375 490.916015625 245.251953125 520.942382812 245.251953125 578.998046875 c 0
 245.251953125 589.666015625 245.168945312 600.666992188 245.001953125 612.000976562 c 0
 244.334960938 657.333984375 243.334960938 697.666992188 242.001953125 733 c 0
 242.001953125 741 243.501953125 748 246.501953125 754 c 0
 249.501953125 760 254.168945312 764.166992188 260.501953125 766.5 c 0
 266.834960938 768.833007812 273.001953125 770.5 279.001953125 771.5 c 0
 285.001953125 772.5 291.001953125 772.666992188 297.001953125 772 c 0
 303.001953125 772 308.668945312 771.333007812 314.001953125 770 c 0
 319.334960938 768.666992188 324.66796875 766.5 330.000976562 763.5 c 0
 335.333984375 760.5 339.666992188 756 343 750 c 0
 346.333007812 744 348 736.666992188 348 728 c 0
EndSplineSet
Validated: 524289
EndChar

StartChar: parenleft
Encoding: 40 40 8
Width: 590
GlyphClass: 2
Flags: HMW
HStem: -130.998 83.998 733.002 81
VStem: 145.118 97.3819
LayerCount: 2
Fore
SplineSet
443 -93 m 0
 443 -103.666992188 438.66796875 -112.6640625 430.000976562 -119.997070312 c 0
 421.333984375 -127.330078125 412.333984375 -130.997070312 403.000976562 -130.997070312 c 0
 358.333984375 -130.997070312 317.833984375 -114.997070312 281.500976562 -82.9970703125 c 0
 245.16796875 -50.9970703125 215.500976562 -6.6640625 192.500976562 50.0029296875 c 0
 169.500976562 106.669921875 154.66796875 172.002929688 148.000976562 246.002929688 c 0
 146.079101562 266.04296875 145.118164062 288.569335938 145.118164062 313.58203125 c 0
 145.118164062 349.314453125 147.079101562 390.12109375 151.000976562 436.002929688 c 0
 157.66796875 514.002929688 170.66796875 578.3359375 190.000976562 629.002929688 c 0
 198.66796875 651.002929688 210.16796875 672.8359375 224.500976562 694.502929688 c 0
 238.833984375 716.169921875 255.166992188 736.002929688 273.5 754.002929688 c 0
 291.833007812 772.002929688 312.5 786.502929688 335.5 797.502929688 c 0
 358.5 808.502929688 381.333007812 814.002929688 404 814.002929688 c 0
 430.681640625 814.002929688 444.022460938 800.979492188 444.022460938 774.93359375 c 0
 444.022460938 767.493164062 443.876953125 751.90625 431.999023438 742.502929688 c 0
 423.999023438 736.169921875 413.999023438 733.002929688 401.999023438 733.002929688 c 0
 384.666015625 733.002929688 368.499023438 728.002929688 353.499023438 718.002929688 c 0
 338.499023438 708.002929688 325.33203125 694.3359375 313.999023438 677.002929688 c 0
 302.666015625 659.669921875 292.833007812 640.669921875 284.5 620.002929688 c 0
 276.166992188 599.3359375 269 577.002929688 263 553.002929688 c 0
 254.333007812 518.3359375 248.333007812 470.668945312 245 410.001953125 c 0
 243.333984375 379.66796875 242.500976562 352.16796875 242.500976562 327.500976562 c 0
 242.500976562 302.833984375 243.333984375 281.000976562 245 262.000976562 c 0
 248.333007812 221.333984375 255.5 181.833984375 266.5 143.500976562 c 0
 277.5 105.16796875 290.333007812 72.16796875 305 44.5009765625 c 0
 319.666992188 16.833984375 335.666992188 -5.3330078125 353 -22 c 0
 370.333007812 -38.6669921875 387 -47 403 -47 c 0
 416.333007812 -47 426.333007812 -50.3330078125 433 -57 c 0
 439.666992188 -63.6669921875 443 -75.6669921875 443 -93 c 0
EndSplineSet
Validated: 524289
EndChar

StartChar: parenright
Encoding: 41 41 9
Width: 590
GlyphClass: 2
Flags: HMW
HStem: -131.005 84 732.998 81.002
VStem: 345.634 99.2482
LayerCount: 2
Fore
SplineSet
442 246 m 0
 434.666992188 172 419.50390625 106.662109375 396.50390625 49.9951171875 c 0
 373.50390625 -6.671875 344.00390625 -51.0048828125 308.00390625 -83.0048828125 c 0
 272.00390625 -115.004882812 231.670898438 -131.004882812 187.00390625 -131.004882812 c 0
 177.670898438 -131.004882812 168.670898438 -127.337890625 160.00390625 -120.004882812 c 0
 151.336914062 -112.671875 147.00390625 -103.671875 147.00390625 -93.0048828125 c 0
 147.00390625 -75.671875 150.50390625 -63.671875 157.50390625 -57.0048828125 c 0
 164.50390625 -50.337890625 174.336914062 -47.0048828125 187.00390625 -47.0048828125 c 0
 202.336914062 -47.0048828125 218.50390625 -38.671875 235.50390625 -22.0048828125 c 0
 252.50390625 -5.337890625 268.336914062 16.8291015625 283.00390625 44.49609375 c 0
 297.670898438 72.1630859375 310.670898438 105.330078125 322.00390625 143.997070312 c 0
 333.336914062 182.6640625 340.336914062 221.997070312 343.00390625 261.997070312 c 0
 344.7578125 281.998046875 345.634765625 305.137695312 345.634765625 331.416992188 c 0
 345.634765625 355.067382812 344.923828125 381.260742188 343.502929688 409.997070312 c 0
 340.502929688 470.6640625 334.3359375 518.331054688 325.002929688 552.998046875 c 0
 319.669921875 576.998046875 313.002929688 599.331054688 305.002929688 619.998046875 c 0
 297.002929688 640.665039062 287.169921875 659.665039062 275.502929688 676.998046875 c 0
 263.8359375 694.331054688 250.668945312 707.998046875 236.001953125 717.998046875 c 0
 221.334960938 727.998046875 205.66796875 732.998046875 189.000976562 732.998046875 c 0
 176.333984375 732.998046875 166.000976562 736.165039062 158.000976562 742.498046875 c 0
 150.000976562 748.831054688 146.000976562 758.998046875 146.000976562 772.998046875 c 0
 146.000976562 781.665039062 147.000976562 788.83203125 149.000976562 794.499023438 c 0
 151.000976562 800.166015625 154.500976562 804.333007812 159.500976562 807 c 0
 164.500976562 809.666992188 168.833984375 811.5 172.500976562 812.5 c 0
 176.16796875 813.5 180.66796875 814 186.000976562 814 c 0
 208.66796875 814 231.500976562 808.5 254.500976562 797.5 c 0
 277.500976562 786.5 298.000976562 772 316.000976562 754 c 0
 334.000976562 736 350.16796875 716.166992188 364.500976562 694.5 c 0
 378.833984375 672.833007812 390.666992188 651 400 629 c 0
 419.333007812 578.333007812 432.333007812 514 439 436 c 0
 442.921875 390.118164062 444.8828125 349.311523438 444.8828125 313.579101562 c 0
 444.8828125 288.56640625 443.921875 266.040039062 442 246 c 0
EndSplineSet
Validated: 524289
EndChar

StartChar: asterisk
Encoding: 42 42 10
Width: 590
GlyphClass: 2
Flags: HMW
HStem: 292.998 103.999 306.499 76.5001
LayerCount: 2
Fore
SplineSet
242 139 m 0x40
 239.333007812 131 234.830078125 124.999023438 228.497070312 120.999023438 c 0
 222.1640625 116.999023438 215.1640625 114.666015625 207.497070312 113.999023438 c 0
 199.830078125 113.33203125 192.497070312 113.83203125 185.497070312 115.499023438 c 0
 178.497070312 117.166015625 172.330078125 119.333007812 166.997070312 122 c 0
 160.997070312 125.333007812 155.997070312 130.166015625 151.997070312 136.499023438 c 0
 147.997070312 142.83203125 145.330078125 150.665039062 143.997070312 159.998046875 c 0
 142.6640625 169.331054688 144.6640625 178.998046875 149.997070312 188.998046875 c 2
 216.997070312 297.998046875 l 1
 162.330078125 294.665039062 121.997070312 292.998046875 95.9970703125 292.998046875 c 0
 79.9970703125 292.998046875 67.330078125 298.331054688 57.9970703125 308.998046875 c 0
 48.6640625 319.665039062 43.9970703125 330.998046875 43.9970703125 342.998046875 c 0
 43.9970703125 348.998046875 44.830078125 355.165039062 46.4970703125 361.498046875 c 0
 48.1640625 367.831054688 50.6640625 373.831054688 53.9970703125 379.498046875 c 0
 57.330078125 385.165039062 62.4970703125 389.665039062 69.4970703125 392.998046875 c 0
 76.4970703125 396.331054688 84.330078125 397.6640625 92.9970703125 396.997070312 c 0x80
 123.6640625 394.330078125 168.997070312 390.997070312 228.997070312 386.997070312 c 1
 200.330078125 435.6640625 176.663085938 472.997070312 157.99609375 498.997070312 c 0
 150.077148438 512.006835938 146.118164062 524.776367188 146.118164062 537.306640625 c 0
 146.118164062 539.544921875 146.244140625 541.775390625 146.497070312 543.998046875 c 0
 148.1640625 558.665039062 154.331054688 568.33203125 164.998046875 572.999023438 c 0
 170.998046875 576.999023438 178.498046875 579.166015625 187.498046875 579.499023438 c 0
 196.498046875 579.83203125 205.665039062 577.33203125 214.998046875 571.999023438 c 0
 224.331054688 566.666015625 231.6640625 558.666015625 236.997070312 547.999023438 c 0
 244.330078125 531.999023438 263.997070312 493.666015625 295.997070312 432.999023438 c 1
 322.6640625 478.33203125 342.6640625 516.33203125 355.997070312 546.999023438 c 0
 360.6640625 557.666015625 367.497070312 565.666015625 376.497070312 570.999023438 c 0
 385.497070312 576.33203125 394.1640625 578.83203125 402.497070312 578.499023438 c 0
 410.830078125 578.166015625 417.997070312 575.666015625 423.997070312 570.999023438 c 0
 430.6640625 567.666015625 436.1640625 562.333007812 440.497070312 555 c 0
 444.830078125 547.666992188 446.997070312 539 446.997070312 529 c 0
 446.997070312 519 443.6640625 509.333007812 436.997070312 500 c 0
 415.6640625 468.666992188 392.331054688 429.666992188 366.998046875 383 c 1
 424.998046875 383 466.331054688 386.666992188 490.998046875 394 c 0
 495.665039062 395.485351562 500.12890625 396.227539062 504.390625 396.227539062 c 0
 513.5234375 396.227539062 521.7265625 392.818359375 528.999023438 386 c 0
 539.666015625 376 545.333007812 365.333007812 546 354 c 0
 546 348 545.333007812 342 544 336 c 0
 542.666992188 330 540.333984375 324 537.000976562 318 c 0
 533.66796875 312 529.000976562 307.333007812 523.000976562 304 c 0
 517.000976562 300.666992188 509.66796875 300 501.000976562 302 c 0
 484 305 454.811523438 306.5 413.435546875 306.5 c 0
 399.64453125 306.5 384.499023438 306.333007812 368 306 c 1
 435 190 l 2
 440.974609375 177.506835938 443.961914062 166.23046875 443.961914062 156.170898438 c 0
 443.961914062 153.883789062 443.807617188 151.66015625 443.499023438 149.499023438 c 0
 441.83203125 137.83203125 436.999023438 129.33203125 428.999023438 123.999023438 c 0
 422.33203125 119.999023438 413.83203125 117.666015625 403.499023438 116.999023438 c 0
 402.20703125 116.916015625 400.915039062 116.874023438 399.623046875 116.874023438 c 2
 372.5 122.999023438 l 2
 362.166992188 127.666015625 355.666992188 135.333007812 353 146 c 0
 344.333007812 172.666992188 326.666015625 211 299.999023438 261 c 1
 268.666015625 199.666992188 249.333007812 159 242 139 c 0x40
EndSplineSet
Validated: 524289
EndChar

StartChar: plus
Encoding: 43 43 11
Width: 590
GlyphClass: 2
Flags: HMW
HStem: 359.8 79.1992
VStem: 253.003 80.9971
LayerCount: 2
Fore
SplineSet
334 250 m 0
 334 234.666992188 330.670898438 223.833007812 324.00390625 217.5 c 0
 317.336914062 211.166992188 308.00390625 208 296.00390625 208 c 0
 267.336914062 208 253.00390625 222 253.00390625 250 c 2
 253.00390625 357 l 1
 239.670898438 357 221.670898438 356.833007812 199.00390625 356.5 c 0
 176.336914062 356.166992188 160.669921875 356 152.002929688 356 c 0
 135.3359375 356 123.002929688 360.166992188 115.002929688 368.5 c 0
 103.362304688 380.625 102.92578125 393.616210938 102.92578125 401.888671875 c 0
 102.92578125 413.296875 106.618164062 423.000976562 114.002929688 431.000976562 c 0
 121.431640625 439.048828125 132.595703125 443.072265625 147.49609375 443.072265625 c 0
 148.642578125 443.072265625 149.811523438 443.048828125 151.002929688 443.000976562 c 0
 197.669921875 441.66796875 231.669921875 441.000976562 253.002929688 441.000976562 c 1
 253.002929688 499.8203125 250.91796875 548.575195312 250.91796875 552.581054688 c 0
 250.91796875 578.860351562 265.279296875 592 294.002929688 592 c 0
 295.336914062 592.06640625 296.645507812 592.099609375 297.928710938 592.099609375 c 0
 309.477539062 592.099609375 319.001953125 589.399414062 326.500976562 584 c 0
 333.684570312 578.827148438 337.276367188 569.69140625 337.276367188 556.590820312 c 0
 337.276367188 554.495117188 337.184570312 552.297851562 337.000976562 549.999023438 c 0
 335.000976562 511.33203125 334.000976562 474.33203125 334.000976562 438.999023438 c 1
 444.000976562 438.999023438 l 2
 459.333984375 438.999023438 470.166992188 435.666015625 476.5 428.999023438 c 0
 482.833007812 422.33203125 486.333007812 413.33203125 487 401.999023438 c 0
 487 395.999023438 486.333007812 390.499023438 485 385.499023438 c 0
 483.666992188 380.499023438 481.666992188 375.666015625 479 370.999023438 c 0
 476.333007812 366.33203125 472 362.83203125 466 360.499023438 c 0
 460 358.166015625 452.666992188 357.333007812 444 358 c 0
 433.600585938 359.200195312 416.12109375 359.799804688 391.561523438 359.799804688 c 0
 375.1875 359.799804688 355.666992188 359.533203125 333 359 c 1
 333 341 333.166992188 319.666992188 333.5 295 c 0
 333.833007812 270.333007812 334 255.333007812 334 250 c 0
EndSplineSet
Validated: 524289
EndChar

StartChar: comma
Encoding: 44 44 12
Width: 590
GlyphClass: 2
Flags: HMW
VStem: 192.499 204.501
LayerCount: 2
Fore
SplineSet
397 96 m 0
 390.333007812 63.3330078125 376 12.9990234375 354 -55.0009765625 c 0
 332 -123.000976562 315 -165.000976562 303 -181.000976562 c 0
 292.333007812 -195.000976562 278.833007812 -205.000976562 262.5 -211.000976562 c 0
 252.700195312 -214.600585938 243.80078125 -216.400390625 235.80078125 -216.400390625 c 0
 230.467773438 -216.400390625 225.534179688 -215.600585938 221.000976562 -214.000976562 c 0
 214.333984375 -212.000976562 208.166992188 -208.000976562 202.5 -202.000976562 c 0
 196.833007812 -196.000976562 193.5 -188.66796875 192.5 -180.000976562 c 0
 191.5 -171.333984375 194 -162.333984375 200 -153.000976562 c 0
 214 -133.000976562 233.333007812 -89.0009765625 258 -21.0009765625 c 0
 282.666992188 46.9990234375 297.666992188 94.33203125 303 120.999023438 c 0
 305 130.33203125 309.666992188 137.665039062 317 142.998046875 c 0
 324.333007812 148.331054688 332 150.998046875 340 150.998046875 c 0
 348 150.998046875 356 150.331054688 364 148.998046875 c 0
 374.666992188 145.665039062 383.333984375 139.33203125 390.000976562 129.999023438 c 0
 395.12890625 122.8203125 397.692382812 114.458007812 397.692382812 104.912109375 c 0
 397.692382812 102.047851562 397.461914062 99.0771484375 397 96 c 0
EndSplineSet
Validated: 524289
EndChar

StartChar: hyphen
Encoding: 45 45 13
Width: 590
GlyphClass: 2
Flags: HMW
HStem: 243 87<169.667 195.333> 251 82<403.001 413.667 403.001 420.333>
VStem: 140.809 308.191
LayerCount: 2
Fore
SplineSet
182 330 m 0xa0
 220 330 265.333984375 330.5 318.000976562 331.5 c 0
 370.66796875 332.5 400.000976562 333 406.000976562 333 c 0
 421.333984375 333 432.166992188 329.5 438.5 322.5 c 0
 444.833007812 315.5 448.333007812 306.333007812 449 295 c 0
 449 265.666992188 434.666992188 251 406 251 c 0x60
 397.333007812 251 363.833007812 249.666992188 305.5 247 c 0
 247.166992188 244.333007812 206.666992188 243 184 243 c 0
 155.333007812 243 141 257.333007812 141 286 c 0
 140.872070312 287.872070312 140.80859375 289.684570312 140.80859375 291.4375 c 0
 140.80859375 317.145507812 154.5390625 330 182 330 c 0xa0
EndSplineSet
Validated: 524289
EndChar

StartChar: period
Encoding: 46 46 14
Width: 590
GlyphClass: 2
Flags: HMW
HStem: -14.5617 154.604
VStem: 212.999 164.001
LayerCount: 2
Fore
SplineSet
297 -14 m 0
 293.536132812 -14.3740234375 290.161132812 -14.5615234375 286.875 -14.5615234375 c 0
 266.7578125 -14.5615234375 249.965820312 -7.5439453125 236.499023438 6.49609375 c 0
 220.83203125 22.8291015625 212.999023438 41.99609375 212.999023438 63.99609375 c 0
 212.999023438 84.6630859375 221.83203125 102.330078125 239.499023438 116.997070312 c 0
 257.166015625 131.6640625 276.333007812 139.331054688 297 139.998046875 c 0
 298.037109375 140.02734375 299.06640625 140.041992188 300.087890625 140.041992188 c 0
 322.029296875 140.041992188 340.166992188 133.194335938 354.5 119.499023438 c 0
 369.5 105.166015625 377 86.9990234375 377 64.9990234375 c 0
 377 43.666015625 369.666992188 25.8330078125 355 11.5 c 0
 340.333007812 -2.8330078125 321 -11.3330078125 297 -14 c 0
EndSplineSet
Validated: 524289
EndChar

StartChar: slash
Encoding: 47 47 15
Width: 590
GlyphClass: 2
Flags: W
LayerCount: 2
Fore
SplineSet
536 676 m 0
 518.666992188 642 470 558.49609375 390 425.49609375 c 0
 310 292.49609375 261.333007812 209.99609375 244 177.99609375 c 0
 233.333007812 157.329101562 216 122.329101562 192 72.99609375 c 0
 168 23.6630859375 153 -6.3369140625 147 -17.00390625 c 0
 136.333007812 -35.6708984375 122.833007812 -48.6708984375 106.5 -56.00390625 c 0
 98.3330078125 -59.669921875 90.7080078125 -61.5029296875 83.625 -61.5029296875 c 0
 76.5419921875 -61.5029296875 70 -59.669921875 64 -56.0029296875 c 0
 54 -50.669921875 48 -38.3369140625 46 -19.00390625 c 0
 45.6474609375 -15.5927734375 45.470703125 -12.2333984375 45.470703125 -8.92578125 c 0
 45.470703125 6.51171875 49.314453125 20.8193359375 57.0009765625 33.99609375 c 0
 154.333984375 193.99609375 237.666992188 336.329101562 307 460.99609375 c 0
 350.333007812 537.663085938 396.333007812 624.330078125 445 720.997070312 c 0
 450.333007812 731.6640625 457.666015625 739.831054688 466.999023438 745.498046875 c 0
 476.33203125 751.165039062 485.33203125 753.83203125 493.999023438 753.499023438 c 0
 502.666015625 753.166015625 511.333007812 751.333007812 520 748 c 0
 532 742 539.666992188 732.666992188 543 720 c 0
 543.98046875 716.274414062 544.470703125 712.375976562 544.470703125 708.3046875 c 0
 544.470703125 698.533203125 541.647460938 687.764648438 536 676 c 0
EndSplineSet
Validated: 524289
EndChar

StartChar: zero
Encoding: 48 48 16
Width: 590
GlyphClass: 2
Flags: HMW
HStem: -24 83.999 636.999 81.001
VStem: 59.002 95.502 434.006 96.8403
LayerCount: 2
Fore
SplineSet
273 -24 m 0
 241.666992188 -24 212.8359375 -18.33203125 186.502929688 -6.9990234375 c 0
 160.169921875 4.333984375 137.669921875 20.0009765625 119.002929688 40.0009765625 c 0
 100.3359375 60.0009765625 85.6689453125 85.0009765625 75.001953125 115.000976562 c 0
 64.962890625 143.235351562 59.943359375 174.126953125 59.943359375 207.67578125 c 0
 59.943359375 209.7734375 59.962890625 211.881835938 60.001953125 214 c 0
 60.001953125 220.666992188 59.8349609375 237.166992188 59.501953125 263.5 c 0
 59.1689453125 289.833007812 59.001953125 310.833007812 59.001953125 326.5 c 0
 59.001953125 342.166992188 59.501953125 363.833984375 60.501953125 391.500976562 c 0
 61.501953125 419.16796875 63.3349609375 443.000976562 66.001953125 463.000976562 c 0
 68.6689453125 483.000976562 72.1689453125 504.500976562 76.501953125 527.500976562 c 0
 80.8349609375 550.500976562 86.66796875 570.66796875 94.0009765625 588.000976562 c 0
 110.000976562 630.000976562 137.000976562 662.16796875 175.000976562 684.500976562 c 0
 213.000976562 706.833984375 259.333984375 718.000976562 314.000976562 718.000976562 c 0
 341.333984375 718.000976562 367.000976562 713.333984375 391.000976562 704.000976562 c 0
 415.000976562 694.66796875 436.333984375 681.000976562 455.000976562 663.000976562 c 0
 473.66796875 645.000976562 489.16796875 621.66796875 501.500976562 593.000976562 c 0
 513.833984375 564.333984375 521.666992188 531.333984375 525 494.000976562 c 0
 527.666992188 460.66796875 529.5 422.834960938 530.5 380.501953125 c 0
 530.73046875 370.733398438 530.845703125 360.947265625 530.845703125 351.143554688 c 0
 530.845703125 318.459960938 529.563476562 285.579101562 527 252.500976562 c 0
 523.666992188 209.500976562 519 176.66796875 513 154.000976562 c 0
 507 131.333984375 500.333007812 111.333984375 493 94.0009765625 c 0
 485.666992188 76.66796875 477.833984375 61.66796875 469.500976562 49.0009765625 c 0
 461.16796875 36.333984375 451.834960938 25.6669921875 441.501953125 17 c 0
 431.168945312 8.3330078125 420.168945312 1.3330078125 408.501953125 -4 c 0
 396.834960938 -9.3330078125 383.66796875 -13.5 369.000976562 -16.5 c 0
 354.333984375 -19.5 339.666992188 -21.5 325 -22.5 c 0
 310.333007812 -23.5 293 -24 273 -24 c 0
158.001953125 230.000976562 m 0
 158.001953125 227.333984375 158.172851562 223.333984375 158.505859375 218.000976562 c 0
 158.838867188 212.66796875 159.005859375 209.000976562 159.005859375 207.000976562 c 1
 248.338867188 329.000976562 328.671875 454.333984375 400.004882812 583.000976562 c 1
 388.004882812 600.333984375 373.337890625 613.666992188 356.004882812 623 c 0
 338.671875 632.333007812 320.004882812 637 300.004882812 637 c 0
 262.671875 637 233.504882812 626.666992188 212.504882812 606 c 0
 191.504882812 585.333007812 175.671875 552 165.004882812 506 c 0
 161.004882812 489.333007812 158.171875 469.833007812 156.504882812 447.5 c 0
 155.115234375 428.885742188 154.420898438 407.029296875 154.420898438 381.930664062 c 0
 154.420898438 376.916992188 154.448242188 371.7734375 154.50390625 366.500976562 c 0
 154.836914062 334.833984375 155.169921875 312.500976562 155.502929688 299.500976562 c 0
 155.8359375 286.500976562 156.668945312 263.333984375 158.001953125 230.000976562 c 0
419.005859375 168.000976562 m 0
 421.672851562 176.000976562 424.505859375 198 427.505859375 234 c 0
 430.505859375 270 432.672851562 311.166992188 434.005859375 357.5 c 0
 434.38671875 370.736328125 434.577148438 383.823242188 434.577148438 396.760742188 c 0
 434.577148438 429.109375 433.38671875 460.522460938 431.005859375 491 c 1
 359.672851562 344.333007812 275.672851562 221.333007812 179.005859375 122 c 1
 197.005859375 80.6669921875 228.338867188 60 273.005859375 60 c 0
 291.005859375 60 307.172851562 61.5 321.505859375 64.5 c 0
 335.838867188 67.5 349.505859375 72.8330078125 362.505859375 80.5 c 0
 375.505859375 88.1669921875 386.505859375 99.333984375 395.505859375 114.000976562 c 0
 404.505859375 128.66796875 412.338867188 146.66796875 419.005859375 168.000976562 c 0
EndSplineSet
Validated: 524289
EndChar

StartChar: one
Encoding: 49 49 17
Width: 590
GlyphClass: 2
Flags: HMW
HStem: -9 85.5 -5 89<88.002 111.002 88.002 111.002> 511.539 21G
VStem: 247.335 96.6644 257.001 91.498
LayerCount: 2
Fore
SplineSet
538.080078125 34.8388671875 m 0xb0
 538.080078125 22.892578125 534.5546875 12.779296875 527.501953125 4.5 c 0
 519.834960938 -4.5 506.334960938 -9 487.001953125 -9 c 0xb0
 478.334960938 -9 418.834960938 -8.3330078125 308.501953125 -7 c 0
 198.168945312 -5.6669921875 127.001953125 -5 95.001953125 -5 c 0
 80.3349609375 -5 69.501953125 -1 62.501953125 7 c 0
 55.501953125 15 52.001953125 25.3330078125 52.001953125 38 c 0
 51.9443359375 39.16015625 51.9150390625 40.302734375 51.9150390625 41.4267578125 c 0
 51.9150390625 53.2294921875 55.111328125 63.0869140625 61.501953125 71 c 0
 68.501953125 79.6669921875 80.001953125 84 96.001953125 84 c 0
 126.001953125 84 177.001953125 83.6669921875 249.001953125 83 c 1
 249.001953125 109.666992188 248.668945312 131 248.001953125 147 c 0
 247.556640625 150.556640625 247.333984375 159.600585938 247.333984375 174.131835938 c 0x70
 247.333984375 181.38671875 247.389648438 190.009765625 247.500976562 200 c 0
 247.833984375 230 248.000976562 251.666992188 248.000976562 265 c 0
 248.000976562 278.333007812 248.66796875 303 250.000976562 339 c 0
 251.333984375 375 252.333984375 401.833007812 253.000976562 419.5 c 0
 253.66796875 437.166992188 255.000976562 465.166992188 257.000976562 503.5 c 0
 259.000976562 541.833007812 260.333984375 570 261.000976562 588 c 1
 211.66796875 546.666992188 175.66796875 522 153.000976562 514 c 0
 148.8984375 512.359375 144.780273438 511.5390625 140.646484375 511.5390625 c 0
 131.344726562 511.5390625 121.962890625 515.692382812 112.500976562 524 c 0
 99.4697265625 535.44140625 92.9541015625 546.8828125 92.9541015625 558.32421875 c 0
 92.9541015625 558.8828125 92.9697265625 559.44140625 93.0009765625 560 c 0
 93.0009765625 570.666992188 95.333984375 580.166992188 100.000976562 588.5 c 0
 104.66796875 596.833007812 113.000976562 605.333007812 125.000976562 614 c 0
 144.333984375 628.666992188 164.666992188 644.833984375 186 662.500976562 c 0
 207.333007812 680.16796875 222.666015625 693.000976562 231.999023438 701.000976562 c 0
 241.33203125 709.000976562 250.999023438 715.833984375 260.999023438 721.500976562 c 0
 270.999023438 727.16796875 279.666015625 730.000976562 286.999023438 730.000976562 c 0
 300.999023438 730.000976562 315.666015625 724.000976562 330.999023438 712.000976562 c 0
 346.33203125 700.000976562 353.999023438 690.000976562 353.999023438 682.000976562 c 0
 353.999023438 666.66796875 352.166015625 612.16796875 348.499023438 518.500976562 c 0x68
 344.83203125 424.833984375 342.999023438 370.000976562 342.999023438 354.000976562 c 0
 342.999023438 287.333984375 343.33203125 231.666992188 343.999023438 187 c 0
 343.999023438 162.333007812 344.666015625 126.333007812 345.999023438 79 c 1
 365.33203125 79 385.665039062 78.6669921875 406.998046875 78 c 0
 428.331054688 77.3330078125 445.831054688 76.8330078125 459.498046875 76.5 c 0
 473.165039062 76.1669921875 482.998046875 76 488.998046875 76 c 0
 507.665039062 76 520.33203125 72.5 526.999023438 65.5 c 0
 532.423828125 59.8046875 538.080078125 50.1865234375 538.080078125 34.8388671875 c 0xb0
EndSplineSet
Validated: 524289
EndChar

StartChar: two
Encoding: 50 50 18
Width: 590
GlyphClass: 2
Flags: HMW
HStem: -18.0049 84.0049 -14.0059 91.0059 637.997 83.999
VStem: 62.002 99.9971 415.001 98.9971
LayerCount: 2
Fore
SplineSet
495 -12 m 0x78
 467 -12 432.169921875 -12.6728515625 390.502929688 -14.005859375 c 0x78
 348.8359375 -15.3388671875 312.002929688 -16.671875 280.002929688 -18.0048828125 c 0
 248.002929688 -19.337890625 215.169921875 -20.0048828125 181.502929688 -20.0048828125 c 0
 147.8359375 -20.0048828125 121.668945312 -18.671875 103.001953125 -16.0048828125 c 0
 88.3349609375 -14.671875 77.8349609375 -5.671875 71.501953125 10.9951171875 c 0
 65.1689453125 27.662109375 62.001953125 51.662109375 62.001953125 82.9951171875 c 0
 62.001953125 111.662109375 68.1689453125 141.829101562 80.501953125 173.49609375 c 0
 92.8349609375 205.163085938 111.001953125 235.49609375 135.001953125 264.49609375 c 0
 159.001953125 293.49609375 187.001953125 316.99609375 219.001953125 334.99609375 c 0
 290.334960938 374.99609375 336.334960938 402.99609375 357.001953125 418.99609375 c 0
 384.334960938 440.329101562 401.66796875 462.99609375 409.000976562 486.99609375 c 0
 413.000976562 500.99609375 415.000976562 518.329101562 415.000976562 538.99609375 c 0
 415.000976562 573.663085938 404.833984375 598.830078125 384.500976562 614.497070312 c 0
 364.16796875 630.1640625 335.334960938 637.997070312 298.001953125 637.997070312 c 0
 272.001953125 637.997070312 247.168945312 629.997070312 223.501953125 613.997070312 c 0
 199.834960938 597.997070312 181.66796875 580.330078125 169.000976562 560.997070312 c 0
 163.000976562 552.330078125 157.333984375 545.497070312 152.000976562 540.497070312 c 0
 146.66796875 535.497070312 141.000976562 532.6640625 135.000976562 531.997070312 c 0
 129.000976562 531.330078125 123.66796875 531.663085938 119.000976562 532.99609375 c 0
 114.333984375 534.329101562 108.000976562 536.662109375 100.000976562 539.995117188 c 0
 88.66796875 545.995117188 81.66796875 554.662109375 79.0009765625 565.995117188 c 0
 78.333984375 568.828125 78.0009765625 571.870117188 78.0009765625 575.120117188 c 0
 78.0009765625 584.870117188 81.0009765625 596.495117188 87.0009765625 609.995117188 c 0
 93.66796875 622.662109375 103.66796875 635.329101562 117.000976562 647.99609375 c 0
 130.333984375 660.663085938 145.666992188 672.663085938 163 683.99609375 c 0
 180.333007812 695.329101562 200.666015625 704.49609375 223.999023438 711.49609375 c 0
 247.33203125 718.49609375 270.665039062 721.99609375 293.998046875 721.99609375 c 0
 365.998046875 721.99609375 420.665039062 705.329101562 457.998046875 671.99609375 c 0
 495.331054688 638.663085938 513.998046875 588.663085938 513.998046875 521.99609375 c 0
 513.998046875 466.663085938 499.998046875 422.330078125 471.998046875 388.997070312 c 0
 451.331054688 364.330078125 413.998046875 336.997070312 359.998046875 306.997070312 c 0
 346.665039062 298.997070312 323.665039062 286.6640625 290.998046875 269.997070312 c 0
 262.331054688 254.6640625 238.331054688 235.831054688 218.998046875 213.498046875 c 0
 199.665039062 191.165039062 185.83203125 168.33203125 177.499023438 144.999023438 c 0
 169.166015625 121.666015625 163.999023438 96.3330078125 161.999023438 69 c 1
 199.33203125 67 235.33203125 66 269.999023438 66 c 0xb8
 304.666015625 66 331.666015625 66.5 350.999023438 67.5 c 0
 370.33203125 68.5 392.665039062 70 417.998046875 72 c 0
 443.331054688 74 459.998046875 75.3330078125 467.998046875 76 c 0
 468.665039062 76 471.83203125 76.1669921875 477.499023438 76.5 c 0
 483.166015625 76.8330078125 486.999023438 77 488.999023438 77 c 2
 498.999023438 77 l 2
 503.666015625 77 507.166015625 76.3330078125 509.499023438 75 c 0
 511.83203125 73.6669921875 514.499023438 72 517.499023438 70 c 0
 520.499023438 68 522.83203125 65.3330078125 524.499023438 62 c 0
 526.166015625 58.6669921875 527.333007812 54.6669921875 528 50 c 0
 528.666992188 42 528.333984375 33.5 527.000976562 24.5 c 0
 525.66796875 15.5 522.16796875 7.1669921875 516.500976562 -0.5 c 0
 510.833984375 -8.1669921875 503.666992188 -12 495 -12 c 0x78
EndSplineSet
Validated: 524289
EndChar

StartChar: three
Encoding: 51 51 19
Width: 590
GlyphClass: 2
Flags: HMW
HStem: -23.9941 84 318.006 100 638.006 83.998
VStem: 402.02 99.0491 424.002 99.998
LayerCount: 2
Fore
SplineSet
524 199 m 0xe8
 524 130.333007812 502.830078125 76.0078125 460.497070312 36.0078125 c 0
 418.1640625 -3.9921875 358.6640625 -23.9921875 281.997070312 -23.9921875 c 0
 258.6640625 -23.9921875 235.331054688 -20.4921875 211.998046875 -13.4921875 c 0
 188.665039062 -6.4921875 168.498046875 2.5078125 151.498046875 13.5078125 c 0
 134.498046875 24.5078125 119.331054688 36.5078125 105.998046875 49.5078125 c 0
 92.6650390625 62.5078125 82.33203125 75.3408203125 74.9990234375 88.0078125 c 0
 68.9990234375 99.5078125 65.9990234375 110.2578125 65.9990234375 120.2578125 c 0
 65.9990234375 123.590820312 66.33203125 126.840820312 66.9990234375 130.0078125 c 0
 69.666015625 142.674804688 76.9990234375 151.674804688 88.9990234375 157.0078125 c 0
 98.1943359375 161.60546875 106.755859375 163.904296875 114.682617188 163.904296875 c 0
 118.25 163.904296875 121.689453125 163.438476562 125 162.5078125 c 0
 135.666992188 159.5078125 146.333984375 151.0078125 157.000976562 137.0078125 c 0
 171.66796875 117.0078125 190.334960938 99.1748046875 213.001953125 83.5078125 c 0
 235.668945312 67.8408203125 260.001953125 60.0078125 286.001953125 60.0078125 c 0
 326.001953125 60.0078125 359.001953125 71.3408203125 385.001953125 94.0078125 c 0
 411.001953125 116.674804688 424.001953125 146.0078125 424.001953125 182.0078125 c 0xe8
 424.001953125 204.0078125 420.668945312 223.0078125 414.001953125 239.0078125 c 0
 407.334960938 255.0078125 396.66796875 269.0078125 382.000976562 281.0078125 c 0
 367.333984375 293.0078125 347.166992188 302.174804688 321.5 308.5078125 c 0
 295.833007812 314.840820312 266 318.0078125 232 318.0078125 c 0
 218 318.0078125 205.833007812 323.5078125 195.5 334.5078125 c 0
 185.166992188 345.5078125 180 357.674804688 180 371.0078125 c 0
 180 385.0078125 183.666992188 396.340820312 191 405.0078125 c 0
 198.333007812 413.674804688 209 418.0078125 223 418.0078125 c 0
 279 418.0078125 323 429.174804688 355 451.5078125 c 0
 386.346679688 473.384765625 402.020507812 505.017578125 402.020507812 546.407226562 c 0
 402.020507812 547.26953125 402.013671875 548.13671875 402 549.0078125 c 0
 402.01953125 549.903320312 402.029296875 550.791992188 402.029296875 551.673828125 c 0
 402.029296875 580.333984375 391.51953125 601.778320312 370.5 616.006835938 c 0
 348.833007812 630.673828125 317.666015625 638.006835938 276.999023438 638.006835938 c 0
 268.999023438 638.006835938 261.166015625 637.173828125 253.499023438 635.506835938 c 0
 245.83203125 633.83984375 239.665039062 632.172851562 234.998046875 630.505859375 c 0
 230.331054688 628.838867188 225.331054688 626.005859375 219.998046875 622.005859375 c 0
 214.665039062 618.005859375 210.165039062 614.672851562 206.498046875 612.005859375 c 0
 202.831054688 609.338867188 198.831054688 605.005859375 194.498046875 599.005859375 c 0
 190.165039062 593.005859375 186.83203125 588.838867188 184.499023438 586.505859375 c 0
 182.166015625 584.172851562 178.999023438 579.33984375 174.999023438 572.006835938 c 0
 164.33203125 557.33984375 153.499023438 548.672851562 142.499023438 546.005859375 c 0
 139.356445312 545.244140625 136.118164062 544.86328125 132.784179688 544.86328125 c 0
 124.451171875 544.86328125 115.522460938 547.244140625 105.999023438 552.005859375 c 0
 94.666015625 557.338867188 87.8330078125 566.171875 85.5 578.504882812 c 0
 84.8955078125 581.702148438 84.5927734375 585.044921875 84.5927734375 588.533203125 c 0
 84.5927734375 598.500976562 87.0625 609.658203125 92.0009765625 622.004882812 c 0
 98.66796875 635.337890625 107.334960938 647.504882812 118.001953125 658.504882812 c 0
 128.668945312 669.504882812 141.001953125 680.004882812 155.001953125 690.004882812 c 0
 169.001953125 700.004882812 186.168945312 707.837890625 206.501953125 713.504882812 c 0
 226.834960938 719.171875 248.66796875 722.004882812 272.000976562 722.004882812 c 0
 348.66796875 722.004882812 406.334960938 706.004882812 445.001953125 674.004882812 c 0
 482.379882812 643.071289062 501.069335938 597.809570312 501.069335938 538.21875 c 0xf0
 501.069335938 536.1640625 501.046875 534.092773438 501.002929688 532.00390625 c 0
 501.002929688 512.670898438 498.502929688 495.170898438 493.502929688 479.50390625 c 0
 488.502929688 463.836914062 481.669921875 450.50390625 473.002929688 439.50390625 c 0
 464.3359375 428.50390625 453.668945312 418.836914062 441.001953125 410.50390625 c 0
 428.334960938 402.170898438 415.501953125 395.670898438 402.501953125 391.00390625 c 0
 389.501953125 386.336914062 375.668945312 382.669921875 361.001953125 380.002929688 c 1
 388.334960938 374.002929688 411.66796875 366.669921875 431.000976562 358.002929688 c 0
 450.333984375 349.3359375 467.166992188 338.168945312 481.5 324.501953125 c 0
 495.833007812 310.834960938 506.5 293.66796875 513.5 273.000976562 c 0
 520.5 252.333984375 524 227.666992188 524 199 c 0xe8
EndSplineSet
Validated: 524289
EndChar

StartChar: four
Encoding: 52 52 20
Width: 590
GlyphClass: 2
Flags: HMW
HStem: -23.001 21G 224.234 80.335
VStem: 362.003 87.4971 369.002 88.998 369.002 97.0561
LayerCount: 2
Fore
SplineSet
464 55 m 0xd0
 465.372070312 47.68359375 466.057617188 40.71875 466.057617188 34.107421875 c 0
 466.057617188 21.4423828125 463.540039062 10.072265625 458.502929688 -0.001953125 c 0
 450.8359375 -15.3349609375 439.668945312 -23.001953125 425.001953125 -23.001953125 c 0
 412.334960938 -23.001953125 400.001953125 -18.1689453125 388.001953125 -8.501953125 c 0
 376.001953125 1.1650390625 369.668945312 10.998046875 369.001953125 20.998046875 c 2
 369.001953125 59.998046875 l 1
 369.001953125 137.498046875 l 1xc8
 369.001953125 223.998046875 l 1xd0
 354.729492188 224.155273438 340.973632812 224.233398438 327.734375 224.233398438 c 0
 228.423828125 224.233398438 158.1796875 219.822265625 117.001953125 210.999023438 c 0
 106.334960938 208.999023438 96.66796875 209.33203125 88.0009765625 211.999023438 c 0
 79.333984375 214.666015625 72.5009765625 219.333007812 67.5009765625 226 c 0
 62.5009765625 232.666992188 58.66796875 240.333984375 56.0009765625 249.000976562 c 0
 53.333984375 257.66796875 52.0009765625 266.66796875 52.0009765625 276.000976562 c 0
 52.0009765625 285.333984375 53.66796875 294.333984375 57.0009765625 303.000976562 c 0
 63.66796875 321.66796875 81.5009765625 352.16796875 110.500976562 394.500976562 c 0
 139.500976562 436.833984375 177.16796875 489.166992188 223.500976562 551.5 c 0
 269.833984375 613.833007812 302.666992188 659 322 687 c 0
 330.666992188 699.666992188 340.5 709.166992188 351.5 715.5 c 0
 362.5 721.833007812 373 725 383 725 c 0
 385.423828125 725.2421875 387.809570312 725.36328125 390.15625 725.36328125 c 0
 400.71875 725.36328125 410.5 722.909179688 419.5 718 c 0
 430.5 712 437.333007812 701.666992188 440 687 c 0
 444 663.666992188 447.166992188 627.666992188 449.5 579 c 0xe0
 451.833007812 530.333007812 453.333007812 489.166015625 454 455.499023438 c 0
 454.666992188 421.83203125 455.666992188 370.999023438 457 302.999023438 c 1
 468.333007812 302.33203125 481 301.999023438 495 301.999023438 c 0
 510.333007812 301.999023438 521.166015625 298.499023438 527.499023438 291.499023438 c 0
 533.83203125 284.499023438 537.33203125 275.33203125 537.999023438 263.999023438 c 0
 537.999023438 234.666015625 523.666015625 219.999023438 494.999023438 219.999023438 c 0
 481.666015625 219.999023438 469.333007812 220.33203125 458 220.999023438 c 1
 459.333007812 123.666015625 461.333007812 68.3330078125 464 55 c 0xd0
362.001953125 601.997070312 m 1xe0
 263.334960938 472.6640625 196.334960938 372.330078125 161.001953125 300.997070312 c 1
 198.146484375 303.377929688 244.134765625 304.568359375 298.967773438 304.568359375 c 0
 320.897460938 304.568359375 344.2421875 304.377929688 369.001953125 303.997070312 c 1
 369.001953125 428.6640625 366.668945312 527.997070312 362.001953125 601.997070312 c 1xe0
EndSplineSet
Validated: 524289
EndChar

StartChar: five
Encoding: 53 53 21
Width: 590
GlyphClass: 2
Flags: HMW
HStem: -18.001 83.998 419.997 89.0029 619 88.998 630 79.998
VStem: 67.596 93.405 74.996 88.0029 432.994 100.006
LayerCount: 2
Fore
SplineSet
533 296 m 0xda
 533 246.666992188 526.825195312 202.166015625 514.4921875 162.499023438 c 0
 502.159179688 122.83203125 484.826171875 89.83203125 462.493164062 63.4990234375 c 0
 440.16015625 37.166015625 413.327148438 16.9990234375 381.994140625 2.9990234375 c 0
 350.661132812 -11.0009765625 316.328125 -18.0009765625 278.995117188 -18.0009765625 c 0
 249.662109375 -18.0009765625 222.662109375 -15.0009765625 197.995117188 -9.0009765625 c 0
 173.328125 -3.0009765625 152.661132812 5.33203125 135.994140625 15.9990234375 c 0
 119.327148438 26.666015625 105.327148438 37.8330078125 93.994140625 49.5 c 0
 82.6611328125 61.1669921875 73.328125 73.333984375 65.9951171875 86.0009765625 c 0
 59.9951171875 99.5009765625 56.9951171875 111.125976562 56.9951171875 120.875976562 c 0
 56.9951171875 124.125976562 57.328125 127.16796875 57.9951171875 130.000976562 c 0
 60.662109375 141.333984375 67.662109375 150.000976562 78.9951171875 156.000976562 c 0
 86.328125 159.333984375 92.4951171875 161.666992188 97.4951171875 163 c 0
 102.495117188 164.333007812 107.995117188 164.666015625 113.995117188 163.999023438 c 0
 119.995117188 163.33203125 125.662109375 160.665039062 130.995117188 155.998046875 c 0
 136.328125 151.331054688 141.995117188 144.6640625 147.995117188 135.997070312 c 0
 177.995117188 89.9970703125 218.662109375 66.6640625 269.995117188 65.9970703125 c 0
 319.995117188 65.9970703125 359.662109375 85.830078125 388.995117188 125.497070312 c 0
 418.328125 165.1640625 432.995117188 218.331054688 432.995117188 284.998046875 c 0
 432.995117188 326.331054688 423.828125 359.1640625 405.495117188 383.497070312 c 0
 387.162109375 407.830078125 358.995117188 419.997070312 320.995117188 419.997070312 c 0
 310.995117188 419.997070312 301.328125 419.497070312 291.995117188 418.497070312 c 0
 282.662109375 417.497070312 274.662109375 416.1640625 267.995117188 414.497070312 c 0
 261.328125 412.830078125 254.328125 410.330078125 246.995117188 406.997070312 c 0
 239.662109375 403.6640625 233.829101562 400.997070312 229.49609375 398.997070312 c 0
 225.163085938 396.997070312 219.830078125 393.330078125 213.497070312 387.997070312 c 0
 207.1640625 382.6640625 202.997070312 378.997070312 200.997070312 376.997070312 c 0
 198.997070312 374.997070312 194.6640625 370.830078125 187.997070312 364.497070312 c 0
 181.330078125 358.1640625 177.330078125 354.331054688 175.997070312 352.998046875 c 0
 170.6640625 348.331054688 164.1640625 344.331054688 156.497070312 340.998046875 c 0
 148.830078125 337.665039062 140.330078125 335.498046875 130.997070312 334.498046875 c 0
 121.6640625 333.498046875 112.331054688 334.998046875 102.998046875 338.998046875 c 0
 91.6650390625 343.665039062 83.1650390625 353.998046875 77.498046875 369.998046875 c 0
 71.8310546875 385.998046875 68.6640625 405.665039062 67.9970703125 428.998046875 c 0
 67.73046875 438.331054688 67.5966796875 447.530273438 67.5966796875 456.596679688 c 0xda
 67.5966796875 470.197265625 67.896484375 483.498046875 68.49609375 496.499023438 c 0
 69.49609375 518.166015625 70.8291015625 541.499023438 72.49609375 566.499023438 c 0
 74.1630859375 591.499023438 74.99609375 608.666015625 74.99609375 617.999023438 c 1
 69.6630859375 626.666015625 66.330078125 636.499023438 64.9970703125 647.499023438 c 0
 63.6640625 658.499023438 64.1640625 668.666015625 66.4970703125 677.999023438 c 0
 68.830078125 687.33203125 73.4970703125 695.33203125 80.4970703125 701.999023438 c 0
 87.4970703125 708.666015625 95.6640625 711.999023438 104.997070312 711.999023438 c 0
 129.6640625 711.999023438 187.831054688 711.33203125 279.498046875 709.999023438 c 0xd6
 371.165039062 708.666015625 440.998046875 707.999023438 488.998046875 707.999023438 c 0
 497.665039062 707.999023438 504.83203125 704.33203125 510.499023438 696.999023438 c 0
 516.166015625 689.666015625 519.833007812 681.333007812 521.5 672 c 0
 523.166992188 662.666992188 523.333984375 654 522.000976562 646 c 0
 521.333984375 641.333007812 520.166992188 637.333007812 518.5 634 c 0
 516.833007812 630.666992188 514.5 628.166992188 511.5 626.5 c 0
 508.5 624.833007812 505.833007812 623.333007812 503.5 622 c 0
 501.166992188 620.666992188 497.666992188 619.833984375 493 619.500976562 c 0
 488.333007812 619.16796875 485 619.000976562 483 619.000976562 c 0xe6
 481 619.000976562 477.166992188 619.333984375 471.5 620.000976562 c 0
 465.833007812 620.66796875 462.666015625 621.000976562 461.999023438 621.000976562 c 0
 452.666015625 621.000976562 435.999023438 622.000976562 411.999023438 624.000976562 c 0
 387.999023438 626.000976562 366.666015625 627.500976562 347.999023438 628.500976562 c 0
 329.33203125 629.500976562 303.33203125 630.000976562 269.999023438 630.000976562 c 0
 236.666015625 630.000976562 201.666015625 629.000976562 164.999023438 627.000976562 c 1
 164.999023438 620.333984375 164.33203125 601.000976562 162.999023438 569.000976562 c 0xd6
 161.666015625 537.000976562 160.833007812 513.833984375 160.5 499.500976562 c 0
 160.388671875 494.727539062 160.333007812 489.270507812 160.333007812 483.129882812 c 0
 160.333007812 470.830078125 160.555664062 455.787109375 161.000976562 438 c 1
 179.66796875 458.666992188 205.000976562 475.666992188 237.000976562 489 c 0
 269.000976562 502.333007812 305.66796875 509 347.000976562 509 c 0
 376.333984375 509 402.833984375 503.5 426.500976562 492.5 c 0
 450.16796875 481.5 469.66796875 466.333007812 485.000976562 447 c 0
 500.333984375 427.666992188 512.166992188 405.166992188 520.5 379.5 c 0
 528.833007812 353.833007812 533 326 533 296 c 0xda
EndSplineSet
Validated: 524289
EndChar

StartChar: six
Encoding: 54 54 22
Width: 590
GlyphClass: 2
Flags: HMW
HStem: -21.9971 84.0049 393.004 87.9961
VStem: 54.934 91.0658 437 98<227.333 249.672>
LayerCount: 2
Fore
SplineSet
535 246 m 0
 535 208.666992188 528.833007812 173.502929688 516.5 140.502929688 c 0
 504.166992188 107.502929688 487.333984375 79.169921875 466.000976562 55.5029296875 c 0
 444.66796875 31.8359375 419.16796875 13.0029296875 389.500976562 -0.9970703125 c 0
 359.833984375 -14.9970703125 328.333984375 -21.9970703125 295.000976562 -21.9970703125 c 0
 253.66796875 -21.9970703125 217.66796875 -14.1640625 187.000976562 1.5029296875 c 0
 156.333984375 17.169921875 131.166992188 39.8369140625 111.5 69.50390625 c 0
 91.8330078125 99.1708984375 77.3330078125 134.670898438 68 176.00390625 c 0
 59.2890625 214.580078125 54.93359375 257.51171875 54.93359375 304.798828125 c 0
 54.93359375 308.177734375 54.9560546875 311.579101562 55.0009765625 315.002929688 c 0
 55.66796875 372.3359375 61.3349609375 424.002929688 72.001953125 470.002929688 c 0
 82.6689453125 516.002929688 97.501953125 554.669921875 116.501953125 586.002929688 c 0
 135.501953125 617.3359375 159.001953125 643.8359375 187.001953125 665.502929688 c 0
 215.001953125 687.169921875 245.168945312 703.669921875 277.501953125 715.002929688 c 0
 309.834960938 726.3359375 345.66796875 733.668945312 385.000976562 737.001953125 c 0
 387.920898438 737.255859375 390.774414062 737.3828125 393.561523438 737.3828125 c 0
 405.409179688 737.3828125 416.055664062 735.088867188 425.500976562 730.500976562 c 0
 437.16796875 724.833984375 443.66796875 715.666992188 445.000976562 703 c 0
 445.66796875 695 441.66796875 686.166992188 433.000976562 676.5 c 0
 424.333984375 666.833007812 414.666992188 660.333007812 404 657 c 0
 396.666992188 655 385.5 652.333007812 370.5 649 c 0
 355.5 645.666992188 342.666992188 642.5 332 639.5 c 0
 321.333007812 636.5 308.666015625 632 293.999023438 626 c 0
 279.33203125 620 264.83203125 611.333007812 250.499023438 600 c 0
 236.166015625 588.666992188 221.999023438 575 207.999023438 559 c 0
 193.33203125 541.666992188 179.83203125 518 167.499023438 488 c 0
 155.166015625 458 147.333007812 431.333007812 144 408 c 1
 164.666992188 432.666992188 191.666992188 451 225 463 c 0
 258.333007812 475 295.333007812 481 336 481 c 0
 366.666992188 481 394 476.666992188 418 468 c 0
 442 459.333007812 462.833007812 445.666015625 480.5 426.999023438 c 0
 498.166992188 408.33203125 511.666992188 383.83203125 521 353.499023438 c 0
 530.333007812 323.166015625 535 287.333007812 535 246 c 0
146 230.002929688 m 0
 147.333007812 215.3359375 150.333984375 200.506835938 155.000976562 185.506835938 c 0
 159.66796875 170.506835938 166.16796875 155.33984375 174.500976562 140.006835938 c 0
 182.833984375 124.673828125 192.666992188 111.340820312 204 100.0078125 c 0
 215.333007812 88.6748046875 229 79.5078125 245 72.5078125 c 0
 261 65.5078125 278 62.0078125 296 62.0078125 c 0
 320.666992188 62.0078125 344 70.6748046875 366 88.0078125 c 0
 388 105.340820312 405.333007812 127.173828125 418 153.506835938 c 0
 430.666992188 179.83984375 437 206.672851562 437 234.005859375 c 0
 437 265.338867188 434.333007812 291.671875 429 313.004882812 c 0
 423.666992188 334.337890625 415.166992188 350.670898438 403.5 362.00390625 c 0
 391.833007812 373.336914062 378.666015625 381.336914062 363.999023438 386.00390625 c 0
 349.33203125 390.670898438 331.33203125 393.00390625 309.999023438 393.00390625 c 0
 276.666015625 393.00390625 245.333007812 384.336914062 216 367.00390625 c 0
 186.666992188 349.670898438 162.666992188 327.670898438 144 301.00390625 c 1
 144 272.336914062 144.666992188 248.669921875 146 230.002929688 c 0
EndSplineSet
Validated: 524289
EndChar

StartChar: seven
Encoding: 55 55 23
Width: 590
GlyphClass: 2
Flags: HMW
HStem: -22.9443 21G 622.497 90.5
LayerCount: 2
Fore
SplineSet
195 26 m 0
 187 8.6669921875 176.495117188 -4.3349609375 163.495117188 -13.001953125 c 0
 153.553710938 -19.6298828125 143.709960938 -22.943359375 133.963867188 -22.943359375 c 0
 130.96484375 -22.943359375 127.974609375 -22.6298828125 124.994140625 -22.001953125 c 0
 110.994140625 -18.6689453125 101.161132812 -10.6689453125 95.494140625 1.998046875 c 0
 92.890625 7.818359375 91.5888671875 13.919921875 91.5888671875 20.302734375 c 0
 91.5888671875 27.8115234375 93.390625 35.7099609375 96.994140625 43.998046875 c 0
 130.994140625 112.665039062 167.494140625 180.998046875 206.494140625 248.998046875 c 0
 245.494140625 316.998046875 277.827148438 371.165039062 303.494140625 411.498046875 c 0
 329.161132812 451.831054688 352.828125 490.998046875 374.495117188 528.998046875 c 0
 396.162109375 566.998046875 410.662109375 597.998046875 417.995117188 621.998046875 c 1
 386.357421875 623.088867188 353.62890625 623.634765625 319.809570312 623.634765625 c 0
 291.62890625 623.634765625 262.690429688 623.255859375 232.995117188 622.498046875 c 0
 167.662109375 620.831054688 124.995117188 617.331054688 104.995117188 611.998046875 c 0
 96.9951171875 609.998046875 89.828125 610.331054688 83.4951171875 612.998046875 c 0
 77.162109375 615.665039062 71.9951171875 619.665039062 67.9951171875 624.998046875 c 0
 63.9951171875 630.331054688 60.9951171875 635.998046875 58.9951171875 641.998046875 c 0
 56.9951171875 647.998046875 55.9951171875 653.998046875 55.9951171875 659.998046875 c 0
 55.9951171875 671.998046875 58.9951171875 681.498046875 64.9951171875 688.498046875 c 0
 70.9951171875 695.498046875 81.9951171875 700.665039062 97.9951171875 703.998046875 c 0
 122.662109375 708.665039062 156.829101562 711.665039062 200.49609375 712.998046875 c 0
 222.330078125 713.6640625 243.2890625 713.997070312 263.373046875 713.997070312 c 0
 283.45703125 713.997070312 302.666015625 713.6640625 320.999023438 712.998046875 c 0
 357.666015625 711.665039062 393.666015625 710.33203125 428.999023438 708.999023438 c 0
 464.33203125 707.666015625 483.33203125 706.999023438 485.999023438 706.999023438 c 0
 492.666015625 706.999023438 499.499023438 705.499023438 506.499023438 702.499023438 c 0
 513.499023438 699.499023438 519.83203125 694.666015625 525.499023438 687.999023438 c 0
 529.833984375 682.8984375 534.522460938 674.20703125 534.522460938 660.463867188 c 0
 534.522460938 650.153320312 531.34765625 638.331054688 524.998046875 624.997070312 c 0
 515.665039062 604.997070312 498.83203125 574.830078125 474.499023438 534.497070312 c 0
 450.166015625 494.1640625 424.833007812 452.831054688 398.5 410.498046875 c 0
 372.166992188 368.165039062 340.166992188 311.83203125 302.5 241.499023438 c 0
 264.833007812 171.166015625 229 99.3330078125 195 26 c 0
EndSplineSet
Validated: 524289
EndChar

StartChar: eight
Encoding: 56 56 24
Width: 590
GlyphClass: 2
Flags: W
HStem: -27.9922 85.9971<201.677 376.525> 646.004 72.001<217.913 351.63>
VStem: 48.9961 85.998<120.066 256.492> 75.9971 93.998<487.944 598.703> 406.995 90.002<483.938 592.01> 447.994 93.0059<121.363 264.134>
LayerCount: 2
Fore
SplineSet
541 204 m 0xc4
 541 182.666992188 538.162109375 161.338867188 532.495117188 140.005859375 c 0
 526.828125 118.672851562 517.328125 97.83984375 503.995117188 77.5068359375 c 0
 490.662109375 57.173828125 474.329101562 39.3408203125 454.99609375 24.0078125 c 0
 435.663085938 8.6748046875 410.99609375 -3.8251953125 380.99609375 -13.4921875 c 0
 350.99609375 -23.1591796875 317.663085938 -27.9921875 280.99609375 -27.9921875 c 0
 247.663085938 -27.9921875 217.330078125 -23.3251953125 189.997070312 -13.9921875 c 0
 162.6640625 -4.6591796875 140.497070312 7.173828125 123.497070312 21.5068359375 c 0
 106.497070312 35.83984375 92.1640625 53.0068359375 80.4970703125 73.0068359375 c 0
 68.830078125 93.0068359375 60.6630859375 113.173828125 55.99609375 133.506835938 c 0
 51.3291015625 153.83984375 48.99609375 174.672851562 48.99609375 196.005859375 c 0xe4
 48.99609375 218.672851562 54.6630859375 243.005859375 65.99609375 269.005859375 c 0
 77.3291015625 295.005859375 93.8291015625 319.005859375 115.49609375 341.005859375 c 0
 137.163085938 363.005859375 161.330078125 378.338867188 187.997070312 387.005859375 c 1
 152.6640625 403.672851562 125.1640625 425.505859375 105.497070312 452.505859375 c 0
 85.830078125 479.505859375 75.9970703125 507.005859375 75.9970703125 535.005859375 c 0
 75.9970703125 543.005859375 76.6640625 551.505859375 77.9970703125 560.505859375 c 0
 79.330078125 569.505859375 81.830078125 580.172851562 85.4970703125 592.505859375 c 0
 89.1640625 604.838867188 94.1640625 616.671875 100.497070312 628.004882812 c 0
 106.830078125 639.337890625 115.497070312 650.504882812 126.497070312 661.504882812 c 0
 137.497070312 672.504882812 149.997070312 682.171875 163.997070312 690.504882812 c 0
 177.997070312 698.837890625 195.497070312 705.504882812 216.497070312 710.504882812 c 0
 237.497070312 715.504882812 260.330078125 718.004882812 284.997070312 718.004882812 c 0
 310.997070312 718.004882812 334.497070312 715.504882812 355.497070312 710.504882812 c 0
 376.497070312 705.504882812 394.1640625 698.837890625 408.497070312 690.504882812 c 0
 422.830078125 682.171875 435.497070312 672.504882812 446.497070312 661.504882812 c 0
 457.497070312 650.504882812 465.997070312 639.337890625 471.997070312 628.004882812 c 0
 477.997070312 616.671875 482.997070312 604.671875 486.997070312 592.004882812 c 0
 490.997070312 579.337890625 493.6640625 568.170898438 494.997070312 558.50390625 c 0
 496.330078125 548.836914062 496.997070312 539.669921875 496.997070312 531.002929688 c 0xd8
 496.997070312 523.002929688 495.997070312 515.002929688 493.997070312 507.002929688 c 0
 491.997070312 499.002929688 489.330078125 492.002929688 485.997070312 486.002929688 c 0
 482.6640625 480.002929688 478.331054688 473.669921875 472.998046875 467.002929688 c 0
 467.665039062 460.3359375 462.665039062 454.668945312 457.998046875 450.001953125 c 0
 453.331054688 445.334960938 447.331054688 440.001953125 439.998046875 434.001953125 c 0
 432.665039062 428.001953125 426.83203125 423.501953125 422.499023438 420.501953125 c 0
 418.166015625 417.501953125 411.999023438 413.334960938 403.999023438 408.001953125 c 0
 395.999023438 402.668945312 390.666015625 399.001953125 387.999023438 397.001953125 c 1
 412.666015625 386.334960938 434.333007812 374.334960938 453 361.001953125 c 0
 471.666992188 347.668945312 486.5 334.501953125 497.5 321.501953125 c 0
 508.5 308.501953125 517.333007812 294.668945312 524 280.001953125 c 0
 530.666992188 265.334960938 535.166992188 252.16796875 537.5 240.500976562 c 0
 539.833007812 228.833984375 541 216.666992188 541 204 c 0xc4
169.995117188 538.004882812 m 0xd8
 169.995117188 516.004882812 180.162109375 496.504882812 200.495117188 479.504882812 c 0
 220.828125 462.504882812 254.328125 445.337890625 300.995117188 428.004882812 c 1
 328.995117188 439.337890625 353.662109375 454.670898438 374.995117188 474.00390625 c 0
 396.328125 493.336914062 406.995117188 511.336914062 406.995117188 528.00390625 c 0
 406.995117188 546.670898438 401.662109375 565.00390625 390.995117188 583.00390625 c 0
 380.328125 601.00390625 365.495117188 616.00390625 346.495117188 628.00390625 c 0
 327.495117188 640.00390625 306.995117188 646.00390625 284.995117188 646.00390625 c 0
 253.662109375 646.00390625 226.662109375 634.836914062 203.995117188 612.50390625 c 0
 181.328125 590.170898438 169.995117188 565.337890625 169.995117188 538.004882812 c 0xd8
284.995117188 58.0048828125 m 0
 304.328125 58.0048828125 323.66015625 60.8330078125 342.993164062 66.5 c 0
 362.326171875 72.1669921875 379.826171875 80.333984375 395.493164062 91.0009765625 c 0
 411.16015625 101.66796875 423.827148438 115.66796875 433.494140625 133.000976562 c 0
 443.161132812 150.333984375 447.994140625 168.666992188 447.994140625 188 c 0
 447.994140625 198.666992188 446.994140625 208.833984375 444.994140625 218.500976562 c 0
 442.994140625 228.16796875 438.994140625 239.334960938 432.994140625 252.001953125 c 0
 426.994140625 264.668945312 418.661132812 276.3359375 407.994140625 287.002929688 c 0
 397.327148438 297.669921875 382.494140625 308.836914062 363.494140625 320.50390625 c 0
 344.494140625 332.170898438 322.327148438 342.670898438 296.994140625 352.00390625 c 1
 248.994140625 339.336914062 209.994140625 317.336914062 179.994140625 286.00390625 c 0
 149.994140625 254.670898438 134.994140625 221.337890625 134.994140625 186.004882812 c 0xe4
 134.994140625 161.337890625 142.494140625 139.004882812 157.494140625 119.004882812 c 0
 172.494140625 99.0048828125 191.327148438 83.837890625 213.994140625 73.5048828125 c 0
 236.661132812 63.171875 260.328125 58.0048828125 284.995117188 58.0048828125 c 0
EndSplineSet
Validated: 524289
EndChar

StartChar: nine
Encoding: 57 57 25
Width: 590
GlyphClass: 2
Flags: HMW
HStem: -22.3812 21G 234.998 89 654.995 84.0049
VStem: 54.002 98.0049 447.172 87.8928
LayerCount: 2
Fore
SplineSet
181 -22 m 0
 178.077148438 -22.25390625 175.219726562 -22.3828125 172.430664062 -22.3828125 c 0
 160.587890625 -22.3828125 149.94921875 -20.091796875 140.506835938 -15.5048828125 c 0
 128.83984375 -9.837890625 122.33984375 -0.6708984375 121.006835938 11.99609375 c 0
 120.33984375 20.6630859375 124.172851562 29.6630859375 132.505859375 38.99609375 c 0
 140.838867188 48.3291015625 150.671875 54.662109375 162.004882812 57.9951171875 c 0
 169.337890625 59.9951171875 181.170898438 62.662109375 197.50390625 65.9951171875 c 0
 213.836914062 69.328125 228.50390625 72.828125 241.50390625 76.4951171875 c 0
 254.50390625 80.162109375 269.170898438 84.9951171875 285.50390625 90.9951171875 c 0
 301.836914062 96.9951171875 317.669921875 105.328125 333.002929688 115.995117188 c 0
 348.3359375 126.662109375 362.3359375 139.329101562 375.002929688 153.99609375 c 0
 391.669921875 173.329101562 406.502929688 195.829101562 419.502929688 221.49609375 c 0
 432.502929688 247.163085938 441.669921875 270.330078125 447.002929688 290.997070312 c 1
 428.3359375 269.6640625 404.3359375 254.997070312 375.002929688 246.997070312 c 0
 345.669921875 238.997070312 309.669921875 234.997070312 267.002929688 234.997070312 c 0
 237.669921875 234.997070312 209.669921875 241.830078125 183.002929688 255.497070312 c 0
 156.3359375 269.1640625 133.668945312 287.331054688 115.001953125 309.998046875 c 0
 96.3349609375 332.665039062 81.501953125 358.83203125 70.501953125 388.499023438 c 0
 59.501953125 418.166015625 54.001953125 448.333007812 54.001953125 479 c 0
 54.001953125 516.333007812 60.3349609375 551.166015625 73.001953125 583.499023438 c 0
 85.6689453125 615.83203125 102.668945312 643.33203125 124.001953125 665.999023438 c 0
 145.334960938 688.666015625 170.66796875 706.499023438 200.000976562 719.499023438 c 0
 229.333984375 732.499023438 260.666992188 738.999023438 294 738.999023438 c 0
 376 738.999023438 437 707.999023438 477 645.999023438 c 0
 515.709960938 585.999023438 535.064453125 500.711914062 535.064453125 390.138671875 c 0
 535.064453125 386.454101562 535.04296875 382.741210938 535 379 c 0
 534.333007812 325.666992188 527.666015625 277.5 514.999023438 234.5 c 0
 502.33203125 191.5 485.33203125 155 463.999023438 125 c 0
 442.666015625 95 417.166015625 69.3330078125 387.499023438 48 c 0
 357.83203125 26.6669921875 325.83203125 10.5 291.499023438 -0.5 c 0
 257.166015625 -11.5 220.333007812 -18.6669921875 181 -22 c 0
152.005859375 490.993164062 m 0
 152.005859375 436.326171875 163.8359375 394.829101562 187.502929688 366.49609375 c 0
 211.169921875 338.163085938 246.336914062 323.99609375 293.00390625 323.99609375 c 0
 322.336914062 323.99609375 351.00390625 330.663085938 379.00390625 343.99609375 c 0
 407.00390625 357.329101562 429.670898438 375.662109375 447.00390625 398.995117188 c 0
 447.115234375 402.21875 447.170898438 405.720703125 447.170898438 409.500976562 c 0
 447.170898438 428.388671875 445.782226562 454.219726562 443.004882812 486.994140625 c 0
 441.671875 501.661132812 438.838867188 516.494140625 434.505859375 531.494140625 c 0
 430.172851562 546.494140625 423.672851562 561.661132812 415.005859375 576.994140625 c 0
 406.338867188 592.327148438 396.338867188 605.66015625 385.005859375 616.993164062 c 0
 373.672851562 628.326171875 360.005859375 637.493164062 344.005859375 644.493164062 c 0
 328.005859375 651.493164062 311.005859375 654.993164062 293.005859375 654.993164062 c 0
 268.338867188 654.993164062 245.005859375 646.993164062 223.005859375 630.993164062 c 0
 201.005859375 614.993164062 183.672851562 594.493164062 171.005859375 569.493164062 c 0
 158.338867188 544.493164062 152.005859375 518.326171875 152.005859375 490.993164062 c 0
EndSplineSet
Validated: 524289
EndChar

StartChar: colon
Encoding: 58 58 26
Width: 590
GlyphClass: 2
Flags: HMW
HStem: 39.8998 155.096 306.91 155.09
VStem: 229.668 127.695
LayerCount: 2
Fore
SplineSet
357 417 m 0
 357.2421875 413 357.36328125 408.956054688 357.36328125 404.868164062 c 0
 357.36328125 386.470703125 354.909179688 367.1796875 350 346.997070312 c 0
 346.666992188 333.6640625 339.333984375 323.497070312 328.000976562 316.497070312 c 0
 317.653320312 310.106445312 307.583984375 306.91015625 297.791992188 306.91015625 c 0
 296.859375 306.91015625 295.928710938 306.939453125 295.000976562 306.997070312 c 0
 255.000976562 308.997070312 233.66796875 324.330078125 231.000976562 352.997070312 c 0
 230.112304688 364.994140625 229.66796875 379.211914062 229.66796875 395.651367188 c 0
 229.66796875 403.876953125 229.779296875 412.659179688 230.001953125 421.997070312 c 0
 230.001953125 430.6640625 232.501953125 437.831054688 237.501953125 443.498046875 c 0
 242.501953125 449.165039062 248.668945312 453.33203125 256.001953125 455.999023438 c 0
 263.334960938 458.666015625 270.334960938 460.333007812 277.001953125 461 c 0
 283.668945312 461.666992188 290.001953125 462 296.001953125 462 c 0
 302.001953125 462 308.168945312 461.333007812 314.501953125 460 c 0
 320.834960938 458.666992188 327.16796875 456.5 333.500976562 453.5 c 0
 339.833984375 450.5 345.166992188 445.833007812 349.5 439.5 c 0
 353.833007812 433.166992188 356.333007812 425.666992188 357 417 c 0
358 149.997070312 m 0
 359.5 141.249023438 360.249023438 132.40625 360.249023438 123.469726562 c 0
 360.249023438 108.571289062 358.165039062 93.412109375 353.998046875 77.9931640625 c 0
 350.665039062 64.66015625 342.33203125 54.8271484375 328.999023438 48.494140625 c 0
 316.936523438 42.7646484375 305.692382812 39.8994140625 295.266601562 39.8994140625 c 0
 294.168945312 39.8994140625 293.080078125 39.931640625 292 39.9951171875 c 0
 278.666992188 40.662109375 265.666992188 44.8291015625 253 52.49609375 c 0
 240.333007812 60.1630859375 233.333007812 70.99609375 232 84.99609375 c 0
 231.333007812 98.99609375 230.833007812 107.829101562 230.5 111.49609375 c 0
 230.166992188 115.163085938 230.5 121.99609375 231.5 131.99609375 c 0
 232.5 141.99609375 233 149.663085938 233 154.99609375 c 0
 233 162.99609375 235.333007812 169.99609375 240 175.99609375 c 0
 244.666992188 181.99609375 250.5 186.163085938 257.5 188.49609375 c 0
 264.5 190.829101562 271.333007812 192.49609375 278 193.49609375 c 0
 284.666992188 194.49609375 291 194.99609375 297 194.99609375 c 0
 305 194.99609375 313 193.829101562 321 191.49609375 c 0
 329 189.163085938 336.666992188 184.330078125 344 176.997070312 c 0
 351.333007812 169.6640625 356 160.6640625 358 149.997070312 c 0
EndSplineSet
Validated: 524289
EndChar

StartChar: semicolon
Encoding: 59 59 27
Width: 590
GlyphClass: 2
Flags: HMW
HStem: 264.912 155.087
VStem: 259.665 127.698
LayerCount: 2
Fore
SplineSet
387 375 m 0
 387.2421875 371.000976562 387.36328125 366.958984375 387.36328125 362.872070312 c 0
 387.36328125 344.473632812 384.908203125 325.182617188 379.999023438 304.999023438 c 0
 376.666015625 291.666015625 369.499023438 281.499023438 358.499023438 274.499023438 c 0
 348.456054688 268.108398438 338.2734375 264.912109375 327.952148438 264.912109375 c 0
 326.96875 264.912109375 325.984375 264.94140625 324.999023438 264.999023438 c 0
 316.33203125 265.666015625 307.499023438 267.499023438 298.499023438 270.499023438 c 0
 289.499023438 273.499023438 281.166015625 278.666015625 273.499023438 285.999023438 c 0
 265.83203125 293.33203125 261.665039062 301.999023438 260.998046875 311.999023438 c 0
 260.109375 323.99609375 259.665039062 338.213867188 259.665039062 354.653320312 c 0
 259.665039062 362.87890625 259.776367188 371.661132812 259.999023438 380.999023438 c 0
 259.999023438 388.999023438 262.33203125 395.999023438 266.999023438 401.999023438 c 0
 271.666015625 407.999023438 277.833007812 412.166015625 285.5 414.499023438 c 0
 293.166992188 416.83203125 300.5 418.499023438 307.5 419.499023438 c 0
 314.5 420.499023438 320.666992188 420.666015625 326 419.999023438 c 0
 332 419.999023438 338 419.499023438 344 418.499023438 c 0
 350 417.499023438 356.333007812 415.33203125 363 411.999023438 c 0
 369.666992188 408.666015625 375.166992188 403.833007812 379.5 397.5 c 0
 383.833007812 391.166992188 386.333007812 383.666992188 387 375 c 0
367.999023438 74 m 0
 366.666015625 52.6669921875 344.999023438 -34.333984375 302.999023438 -187.000976562 c 0
 299.666015625 -201.000976562 292.833007812 -211.16796875 282.5 -217.500976562 c 0
 273.151367188 -223.23046875 263.666015625 -226.095703125 254.043945312 -226.095703125 c 0
 253.030273438 -226.095703125 252.015625 -226.063476562 250.999023438 -226 c 0
 237.666015625 -225.333007812 225.833007812 -221 215.5 -213 c 0
 206.34765625 -205.9140625 201.771484375 -196.474609375 201.771484375 -184.681640625 c 0
 201.771484375 -172.114257812 209.672851562 -128.228515625 222.999023438 -63 c 0
 235.666015625 -1 245.666015625 46.3330078125 252.999023438 79 c 0
 254.999023438 89 257.999023438 97 261.999023438 103 c 0
 265.999023438 109 270.499023438 113 275.499023438 115 c 0
 280.499023438 117 285.83203125 118.333007812 291.499023438 119 c 0
 297.166015625 119.666992188 301.999023438 119.666992188 305.999023438 119 c 0
 311.999023438 119 318.499023438 118.166992188 325.499023438 116.5 c 0
 332.499023438 114.833007812 339.499023438 112.5 346.499023438 109.5 c 0
 353.499023438 106.5 358.999023438 102 362.999023438 96 c 0
 366.999023438 90 368.666015625 82.6669921875 367.999023438 74 c 0
EndSplineSet
Validated: 524289
EndChar

StartChar: less
Encoding: 60 60 28
Width: 590
GlyphClass: 2
Flags: HMW
HStem: -12.3989 21G
LayerCount: 2
Fore
SplineSet
540 14 m 0
 536.666992188 7.3330078125 531.666992188 1.6689453125 525 -2.998046875 c 0
 518.333007812 -7.6650390625 509.5 -10.6650390625 498.5 -11.998046875 c 0
 496.30078125 -12.2646484375 494.000976562 -12.3974609375 491.6015625 -12.3974609375 c 0
 482.000976562 -12.3974609375 470.80078125 -10.2646484375 458 -5.998046875 c 0
 441.333007812 -0.6650390625 420.833007812 11.001953125 396.5 29.001953125 c 0
 372.166992188 47.001953125 345.833984375 68.501953125 317.500976562 93.501953125 c 0
 289.16796875 118.501953125 261.000976562 144.001953125 233.000976562 170.001953125 c 0
 205.000976562 196.001953125 175.500976562 222.834960938 144.500976562 250.501953125 c 0
 113.500976562 278.168945312 87.333984375 299.668945312 66.0009765625 315.001953125 c 0
 57.333984375 321.001953125 51.6669921875 330.001953125 49 342.001953125 c 0
 47.7451171875 347.6484375 47.1171875 353.184570312 47.1171875 358.610351562 c 0
 47.1171875 364.713867188 47.9111328125 370.677734375 49.4990234375 376.500976562 c 0
 52.4990234375 387.500976562 58.33203125 395.333984375 66.9990234375 400.000976562 c 0
 104.999023438 428.000976562 149.499023438 463.16796875 200.499023438 505.500976562 c 0
 251.499023438 547.833984375 298.166015625 586.166992188 340.499023438 620.5 c 0
 382.83203125 654.833007812 420.33203125 682 452.999023438 702 c 0
 463.666015625 708.666992188 473.499023438 712.166992188 482.499023438 712.5 c 0
 491.499023438 712.833007812 499.33203125 711.166015625 505.999023438 707.499023438 c 0
 512.666015625 703.83203125 518.499023438 699.33203125 523.499023438 693.999023438 c 0
 528.499023438 688.666015625 532.33203125 682.999023438 534.999023438 676.999023438 c 0
 537.6328125 672.0234375 538.950195312 667.015625 538.950195312 661.975585938 c 0
 538.950195312 655.536132812 536.799804688 649.043945312 532.499023438 642.499023438 c 0
 524.83203125 630.83203125 509.999023438 616.999023438 487.999023438 600.999023438 c 0
 450.666015625 574.999023438 393.833007812 532.33203125 317.5 472.999023438 c 0
 241.166992188 413.666015625 193 375.999023438 173 359.999023438 c 1
 199 339.999023438 227.666992188 315.83203125 259 287.499023438 c 0
 290.333007812 259.166015625 318.333007812 233.499023438 343 210.499023438 c 0
 367.666992188 187.499023438 394 163.999023438 422 139.999023438 c 0
 450 115.999023438 474 96.9990234375 494 82.9990234375 c 0
 515.333007812 68.9990234375 529.5 56.83203125 536.5 46.4990234375 c 0
 540.700195312 40.298828125 542.80078125 33.9189453125 542.80078125 27.359375 c 0
 542.80078125 22.986328125 541.8671875 18.533203125 540 14 c 0
EndSplineSet
Validated: 524289
EndChar

StartChar: equal
Encoding: 61 61 29
Width: 590
GlyphClass: 2
Flags: HMW
HStem: 246.996 83 442.999 85.0725
LayerCount: 2
Fore
SplineSet
151 528 m 0
 189 526.666992188 228.168945312 525.99609375 268.501953125 525.99609375 c 0
 308.834960938 525.99609375 346.501953125 526.329101562 381.501953125 526.99609375 c 0
 416.501953125 527.663085938 437.334960938 527.99609375 444.001953125 527.99609375 c 0
 459.334960938 527.99609375 470.16796875 524.663085938 476.500976562 517.99609375 c 0
 482.833984375 511.329101562 486.333984375 502.329101562 487.000976562 490.99609375 c 0
 487.000976562 484.99609375 486.333984375 479.49609375 485.000976562 474.49609375 c 0
 483.66796875 469.49609375 481.66796875 464.663085938 479.000976562 459.99609375 c 0
 476.333984375 455.329101562 472.000976562 451.829101562 466.000976562 449.49609375 c 0
 460.000976562 447.163085938 452.66796875 446.330078125 444.000976562 446.997070312 c 0
 427.993164062 447.442382812 411.465820312 447.665039062 394.419921875 447.665039062 c 0
 385.909179688 447.665039062 377.26953125 447.609375 368.5 447.498046875 c 0
 342.166992188 447.165039062 305.666992188 446.33203125 259 444.999023438 c 0
 212.333007812 443.666015625 178 442.999023438 156 442.999023438 c 0
 139.333007812 442.999023438 126.333007812 446.999023438 117 454.999023438 c 0
 103.057617188 466.950195312 102.922851562 479.587890625 102.922851562 486.887695312 c 0
 102.922851562 498.295898438 106.615234375 508 114 516 c 0
 121.428710938 524.047851562 132.592773438 528.071289062 147.493164062 528.071289062 c 0
 148.639648438 528.071289062 149.80859375 528.047851562 151 528 c 0
154.001953125 329.99609375 m 0
 171.588867188 329.7734375 190.142578125 329.662109375 209.662109375 329.662109375 c 0
 248.59765625 329.662109375 291.377929688 330.10546875 338.002929688 330.993164062 c 0
 408.002929688 332.326171875 443.3359375 332.993164062 444.002929688 332.993164062 c 0
 459.3359375 332.993164062 470.168945312 329.493164062 476.501953125 322.493164062 c 0
 482.834960938 315.493164062 486.334960938 306.326171875 487.001953125 294.993164062 c 0
 487.001953125 288.993164062 486.334960938 283.493164062 485.001953125 278.493164062 c 0
 483.668945312 273.493164062 481.668945312 268.66015625 479.001953125 263.993164062 c 0
 476.334960938 259.326171875 472.001953125 255.826171875 466.001953125 253.493164062 c 0
 460.001953125 251.16015625 452.668945312 250.327148438 444.001953125 250.994140625 c 0
 427.994140625 251.439453125 411.319335938 251.662109375 393.9765625 251.662109375 c 0
 385.318359375 251.662109375 376.493164062 251.606445312 367.501953125 251.495117188 c 0
 340.501953125 251.162109375 303.334960938 250.329101562 256.001953125 248.99609375 c 0
 208.668945312 247.663085938 174.001953125 246.99609375 152.001953125 246.99609375 c 0
 135.334960938 246.99609375 123.001953125 251.163085938 115.001953125 259.49609375 c 0
 103.625 271.346679688 102.930664062 284.059570312 102.930664062 292.397460938 c 0
 102.930664062 302.677734375 106.954101562 311.376953125 115.001953125 318.49609375 c 0
 123.668945312 326.163085938 136.668945312 329.99609375 154.001953125 329.99609375 c 0
EndSplineSet
Validated: 524289
EndChar

StartChar: greater
Encoding: 62 62 30
Width: 590
GlyphClass: 2
Flags: W
LayerCount: 2
Fore
SplineSet
137 5 m 0
 127 -1 117.331054688 -4.33203125 107.998046875 -4.9990234375 c 0
 98.6650390625 -5.666015625 90.6650390625 -4.166015625 83.998046875 -0.4990234375 c 0
 77.3310546875 3.16796875 71.6640625 7.66796875 66.9970703125 13.0009765625 c 0
 62.330078125 18.333984375 58.6630859375 24.0009765625 55.99609375 30.0009765625 c 0
 53.2958984375 35.1005859375 51.9462890625 40.234375 51.9462890625 45.4013671875 c 0
 51.9462890625 51.716796875 53.962890625 58.0830078125 57.99609375 64.5 c 0
 65.3291015625 76.1669921875 80.3291015625 90 102.99609375 106 c 0
 140.329101562 132 196.99609375 174.666992188 272.99609375 234 c 0
 348.99609375 293.333007812 397.663085938 331 418.99609375 347 c 1
 392.99609375 367 363.829101562 391.166992188 331.49609375 419.5 c 0
 299.163085938 447.833007812 270.99609375 473.5 246.99609375 496.5 c 0
 222.99609375 519.5 196.99609375 543 168.99609375 567 c 0
 140.99609375 591 116.329101562 610 94.99609375 624 c 0
 73.6630859375 638 59.49609375 650.166992188 52.49609375 660.5 c 0
 48.5234375 666.364257812 46.537109375 672.389648438 46.537109375 678.576171875 c 0
 46.537109375 683.290039062 47.6904296875 688.09765625 49.9970703125 692.998046875 c 0
 53.330078125 699.665039062 58.1630859375 705.33203125 64.49609375 709.999023438 c 0
 70.8291015625 714.666015625 79.8291015625 717.666015625 91.49609375 718.999023438 c 0
 93.8291015625 719.265625 96.2353515625 719.3984375 98.71484375 719.3984375 c 0
 108.635742188 719.3984375 119.729492188 717.265625 131.99609375 712.999023438 c 0
 148.663085938 707.666015625 169.330078125 696.166015625 193.997070312 678.499023438 c 0
 218.6640625 660.83203125 245.1640625 639.33203125 273.497070312 613.999023438 c 0
 301.830078125 588.666015625 329.997070312 562.999023438 357.997070312 536.999023438 c 0
 385.997070312 510.999023438 415.330078125 484.33203125 445.997070312 456.999023438 c 0
 476.6640625 429.666015625 503.331054688 407.999023438 525.998046875 391.999023438 c 0
 533.998046875 385.999023438 539.331054688 376.999023438 541.998046875 364.999023438 c 0
 543.18359375 359.665039062 543.776367188 354.4296875 543.776367188 349.29296875 c 0
 543.776367188 342.874023438 542.850585938 336.609375 540.999023438 330.499023438 c 0
 537.666015625 319.499023438 531.999023438 311.666015625 523.999023438 306.999023438 c 0
 485.999023438 278.999023438 441.499023438 243.83203125 390.499023438 201.499023438 c 0
 339.499023438 159.166015625 292.83203125 120.833007812 250.499023438 86.5 c 0
 208.166015625 52.1669921875 170.333007812 25 137 5 c 0
EndSplineSet
Validated: 524289
EndChar

StartChar: question
Encoding: 63 63 31
Width: 590
GlyphClass: 2
Flags: HMW
HStem: -14.5656 154.604 637.999 84.001
VStem: 190.997 163 402.999 99
LayerCount: 2
Fore
SplineSet
326 262 m 0
 323.333007812 244.666992188 317.162109375 231.330078125 307.495117188 221.997070312 c 0
 301.05078125 215.775390625 292.754882812 212.6640625 282.607421875 212.6640625 c 0
 277.533203125 212.6640625 271.99609375 213.442382812 265.99609375 214.998046875 c 0
 247.329101562 219.665039062 234.99609375 228.33203125 228.99609375 240.999023438 c 0
 225.819335938 247.705078125 224.231445312 255.625 224.231445312 264.759765625 c 0
 224.231445312 272.879882812 225.486328125 281.959960938 227.99609375 291.999023438 c 0
 232.663085938 309.999023438 239.49609375 326.999023438 248.49609375 342.999023438 c 0
 257.49609375 358.999023438 267.329101562 372.666015625 277.99609375 383.999023438 c 0
 288.663085938 395.33203125 299.830078125 406.165039062 311.497070312 416.498046875 c 0
 323.1640625 426.831054688 334.331054688 436.498046875 344.998046875 445.498046875 c 0
 355.665039062 454.498046875 365.33203125 463.665039062 373.999023438 472.998046875 c 0
 382.666015625 482.331054688 389.666015625 492.498046875 394.999023438 503.498046875 c 0
 400.33203125 514.498046875 402.999023438 526.331054688 402.999023438 538.998046875 c 0
 402.999023438 573.665039062 392.83203125 598.83203125 372.499023438 614.499023438 c 0
 352.166015625 630.166015625 323.333007812 637.999023438 286 637.999023438 c 0
 276.666992188 637.999023438 267.333984375 635.83203125 258.000976562 631.499023438 c 0
 248.66796875 627.166015625 240.500976562 622.333007812 233.500976562 617 c 0
 226.500976562 611.666992188 219.16796875 604.5 211.500976562 595.5 c 0
 203.833984375 586.5 197.833984375 578.833007812 193.500976562 572.5 c 0
 189.16796875 566.166992188 184.000976562 558.666992188 178.000976562 550 c 0
 172.000976562 541.333007812 166.333984375 534.5 161.000976562 529.5 c 0
 155.66796875 524.5 150.000976562 521.833007812 144.000976562 521.5 c 0
 138.000976562 521.166992188 132.66796875 521.5 128.000976562 522.5 c 0
 123.333984375 523.5 117.333984375 525.666992188 110.000976562 529 c 0
 98.66796875 535 91.5009765625 543.666992188 88.5009765625 555 c 0
 87.7294921875 557.9140625 87.34375 561.048828125 87.34375 564.404296875 c 0
 87.34375 574.096679688 90.5625 585.62890625 97.0009765625 599 c 0
 104.333984375 613 113.166992188 626.5 123.5 639.5 c 0
 133.833007812 652.5 146.666015625 665.5 161.999023438 678.5 c 0
 177.33203125 691.5 195.499023438 702 216.499023438 710 c 0
 237.499023438 718 259.33203125 722 281.999023438 722 c 0
 353.999023438 722 408.666015625 705.333007812 445.999023438 672 c 0
 483.33203125 638.666992188 501.999023438 588.666992188 501.999023438 522 c 0
 501.999023438 504 499.166015625 487.666992188 493.499023438 473 c 0
 487.83203125 458.333007812 480.33203125 445.666015625 470.999023438 434.999023438 c 0
 461.666015625 424.33203125 451.166015625 414.33203125 439.499023438 404.999023438 c 0
 427.83203125 395.666015625 415.83203125 386.333007812 403.499023438 377 c 0
 391.166015625 367.666992188 379.833007812 358 369.5 348 c 0
 359.166992188 338 350 325.5 342 310.5 c 0
 334 295.5 328.666992188 279.333007812 326 262 c 0
274.99609375 -14.00390625 m 0
 271.533203125 -14.3779296875 268.158203125 -14.5654296875 264.872070312 -14.5654296875 c 0
 244.754882812 -14.5654296875 227.962890625 -7.5478515625 214.49609375 6.4921875 c 0
 198.829101562 22.8251953125 190.99609375 41.9921875 190.99609375 63.9921875 c 0
 190.99609375 84.6591796875 199.49609375 102.326171875 216.49609375 116.993164062 c 0
 233.49609375 131.66015625 252.99609375 139.327148438 274.99609375 139.994140625 c 0
 276.033203125 140.0234375 277.0625 140.038085938 278.083007812 140.038085938 c 0
 300.010742188 140.038085938 317.981445312 133.190429688 331.99609375 119.495117188 c 0
 346.663085938 105.162109375 353.99609375 86.9951171875 353.99609375 64.9951171875 c 0
 353.99609375 43.662109375 346.829101562 25.8291015625 332.49609375 11.49609375 c 0
 318.163085938 -2.8369140625 298.99609375 -11.3369140625 274.99609375 -14.00390625 c 0
EndSplineSet
Validated: 524289
EndChar

StartChar: at
Encoding: 64 64 32
Width: 590
GlyphClass: 2
Flags: HMW
HStem: -129.182 85.178 102.002 77.9951 118.002 79.9941 381 77.1335 612.994 90.0078
VStem: 36.9941 87.0029 159.995 76.999 341.993 80.002 479.997 72.998
LayerCount: 2
Fore
SplineSet
502 5 m 0xdf80
 498.666992188 -4.3330078125 495.16015625 -12.5009765625 491.493164062 -19.5009765625 c 0
 487.826171875 -26.5009765625 482.826171875 -35.16796875 476.493164062 -45.5009765625 c 0
 470.16015625 -55.833984375 463.493164062 -64.6669921875 456.493164062 -72 c 0
 449.493164062 -79.3330078125 440.326171875 -86.8330078125 428.993164062 -94.5 c 0
 417.66015625 -102.166992188 405.493164062 -108.5 392.493164062 -113.5 c 0
 379.493164062 -118.5 363.993164062 -122.5 345.993164062 -125.5 c 0
 331.266601562 -127.954101562 315.647460938 -129.181640625 299.135742188 -129.181640625 c 0
 295.465820312 -129.181640625 291.751953125 -129.12109375 287.993164062 -129 c 0
 252.66015625 -129 219.66015625 -120.333007812 188.993164062 -103 c 0
 158.326171875 -85.6669921875 131.826171875 -61.5 109.493164062 -30.5 c 0
 87.16015625 0.5 69.4931640625 38.1669921875 56.4931640625 82.5 c 0
 43.4931640625 126.833007812 36.9931640625 175.333007812 36.9931640625 228 c 0
 36.9931640625 286.666992188 41.4931640625 341.333984375 50.4931640625 392.000976562 c 0
 59.4931640625 442.66796875 72.326171875 486.834960938 88.9931640625 524.501953125 c 0
 105.66015625 562.168945312 125.327148438 594.501953125 147.994140625 621.501953125 c 0
 170.661132812 648.501953125 195.661132812 668.834960938 222.994140625 682.501953125 c 0
 250.327148438 696.168945312 278.994140625 703.001953125 308.994140625 703.001953125 c 0
 331.661132812 703.001953125 351.994140625 701.168945312 369.994140625 697.501953125 c 0
 387.994140625 693.834960938 405.494140625 687.834960938 422.494140625 679.501953125 c 0
 439.494140625 671.168945312 454.494140625 660.001953125 467.494140625 646.001953125 c 0
 480.494140625 632.001953125 492.494140625 614.501953125 503.494140625 593.501953125 c 0
 514.494140625 572.501953125 523.494140625 548.001953125 530.494140625 520.001953125 c 0
 537.494140625 492.001953125 542.994140625 459.001953125 546.994140625 421.001953125 c 0
 550.994140625 383.001953125 552.994140625 340.334960938 552.994140625 293.001953125 c 0
 552.994140625 269.001953125 551.161132812 246.168945312 547.494140625 224.501953125 c 0
 543.827148438 202.834960938 538.494140625 182.501953125 531.494140625 163.501953125 c 0
 524.494140625 144.501953125 514.161132812 129.501953125 500.494140625 118.501953125 c 0
 486.827148438 107.501953125 470.994140625 102.001953125 452.994140625 102.001953125 c 0xdf80
 404.994140625 102.001953125 377.994140625 130.001953125 371.994140625 186.001953125 c 1
 356.661132812 140.668945312 327.661132812 118.001953125 284.994140625 118.001953125 c 0
 245.661132812 118.001953125 214.994140625 130.334960938 192.994140625 155.001953125 c 0
 170.994140625 179.668945312 159.994140625 217.3359375 159.994140625 268.002929688 c 0
 159.994140625 293.3359375 162.827148438 316.668945312 168.494140625 338.001953125 c 0
 174.161132812 359.334960938 181.828125 377.501953125 191.495117188 392.501953125 c 0
 201.162109375 407.501953125 212.495117188 420.168945312 225.495117188 430.501953125 c 0
 238.495117188 440.834960938 252.662109375 448.16796875 267.995117188 452.500976562 c 0
 281.283203125 456.255859375 294.821289062 458.133789062 308.610351562 458.133789062 c 0
 310.732421875 458.133789062 312.861328125 458.088867188 314.99609375 458 c 0
 330.99609375 457.333007812 346.99609375 453.666015625 362.99609375 446.999023438 c 0
 378.329101562 440.999023438 390.662109375 432.999023438 399.995117188 422.999023438 c 0
 409.328125 412.999023438 411.661132812 403.999023438 406.994140625 395.999023438 c 0
 404.327148438 390.666015625 401.327148438 386.333007812 397.994140625 383 c 0
 394.661132812 379.666992188 390.661132812 377.333984375 385.994140625 376.000976562 c 0
 381.327148438 374.66796875 376.994140625 373.66796875 372.994140625 373.000976562 c 0
 368.994140625 372.333984375 363.994140625 372.500976562 357.994140625 373.500976562 c 0
 351.994140625 374.500976562 347.327148438 375.333984375 343.994140625 376.000976562 c 0
 340.661132812 376.66796875 335.661132812 378.000976562 328.994140625 380.000976562 c 0
 320.327148438 381.333984375 311.827148438 381.666992188 303.494140625 381 c 0
 295.161132812 380.333007812 286.994140625 377.5 278.994140625 372.5 c 0
 270.994140625 367.5 263.994140625 361.166992188 257.994140625 353.5 c 0
 251.994140625 345.833007812 246.994140625 335.666015625 242.994140625 322.999023438 c 0
 238.994140625 310.33203125 236.994140625 295.999023438 236.994140625 279.999023438 c 0
 236.994140625 271.33203125 237.494140625 263.165039062 238.494140625 255.498046875 c 0
 239.494140625 247.831054688 241.494140625 239.1640625 244.494140625 229.497070312 c 0
 247.494140625 219.830078125 252.161132812 212.163085938 258.494140625 206.49609375 c 0
 264.827148438 200.829101562 272.66015625 197.99609375 281.993164062 197.99609375 c 0xbf80
 303.326171875 197.99609375 318.326171875 206.163085938 326.993164062 222.49609375 c 0
 335.66015625 238.829101562 340.66015625 265.99609375 341.993164062 303.99609375 c 0
 341.993164062 314.663085938 350.66015625 323.330078125 367.993164062 329.997070312 c 0
 378.80078125 334.2421875 388.602539062 336.365234375 397.3984375 336.365234375 c 0
 403.795898438 336.365234375 409.661132812 335.2421875 414.994140625 332.997070312 c 0
 423.661132812 329.6640625 427.328125 322.997070312 425.995117188 312.997070312 c 0
 423.328125 289.44140625 421.995117188 269.3671875 421.995117188 252.774414062 c 0
 421.995117188 244.478515625 422.328125 237.052734375 422.995117188 230.497070312 c 0
 424.995117188 210.830078125 428.328125 197.497070312 432.995117188 190.497070312 c 0
 437.662109375 183.497070312 444.329101562 179.997070312 452.99609375 179.997070312 c 0
 458.329101562 179.997070312 462.99609375 184.330078125 466.99609375 192.997070312 c 0
 470.99609375 201.6640625 473.829101562 212.997070312 475.49609375 226.997070312 c 0
 477.163085938 240.997070312 478.330078125 253.330078125 478.997070312 263.997070312 c 0
 479.6640625 274.6640625 479.997070312 284.997070312 479.997070312 294.997070312 c 0
 479.997070312 328.997070312 478.497070312 360.330078125 475.497070312 388.997070312 c 0
 472.497070312 417.6640625 468.830078125 442.1640625 464.497070312 462.497070312 c 0
 460.1640625 482.830078125 454.331054688 501.163085938 446.998046875 517.49609375 c 0
 439.665039062 533.829101562 432.665039062 547.162109375 425.998046875 557.495117188 c 0
 419.331054688 567.828125 411.331054688 576.661132812 401.998046875 583.994140625 c 0
 392.665039062 591.327148438 384.498046875 596.827148438 377.498046875 600.494140625 c 0
 370.498046875 604.161132812 362.498046875 606.994140625 353.498046875 608.994140625 c 0
 344.498046875 610.994140625 337.665039062 612.161132812 332.998046875 612.494140625 c 0
 328.331054688 612.827148438 322.6640625 612.994140625 315.997070312 612.994140625 c 0
 289.330078125 612.994140625 264.497070312 604.661132812 241.497070312 587.994140625 c 0
 218.497070312 571.327148438 198.1640625 548.16015625 180.497070312 518.493164062 c 0
 162.830078125 488.826171875 148.997070312 451.993164062 138.997070312 407.993164062 c 0
 128.997070312 363.993164062 123.997070312 315.993164062 123.997070312 263.993164062 c 0
 123.997070312 218.66015625 127.330078125 177.827148438 133.997070312 141.494140625 c 0
 140.6640625 105.161132812 149.6640625 75.828125 160.997070312 53.4951171875 c 0
 172.330078125 31.162109375 185.497070312 12.3291015625 200.497070312 -3.00390625 c 0
 215.497070312 -18.3369140625 230.497070312 -29.00390625 245.497070312 -35.00390625 c 0
 260.497070312 -41.00390625 275.997070312 -44.00390625 291.997070312 -44.00390625 c 0
 309.330078125 -44.00390625 325.330078125 -42.3369140625 339.997070312 -39.00390625 c 0
 354.6640625 -35.6708984375 366.831054688 -31.6708984375 376.498046875 -27.00390625 c 0
 386.165039062 -22.3369140625 395.33203125 -16.00390625 403.999023438 -8.00390625 c 0
 412.666015625 -0.00390625 419.333007812 7.3291015625 424 13.99609375 c 0
 428.666992188 20.6630859375 434 29.330078125 440 39.9970703125 c 0
 442.666992188 44.6640625 445 48.3310546875 447 50.998046875 c 0
 449 53.6650390625 451.333007812 56.83203125 454 60.4990234375 c 0
 456.666992188 64.166015625 459 66.8330078125 461 68.5 c 0
 463 70.1669921875 465.5 71.6669921875 468.5 73 c 0
 471.5 74.3330078125 474.5 75 477.5 75 c 0
 480.5 75 483.666992188 74.3330078125 487 73 c 0
 492.333007812 71 496.833007812 68.5 500.5 65.5 c 0
 504.166992188 62.5 507 58.5 509 53.5 c 0
 511 48.5 511.333007812 41.8330078125 510 33.5 c 0
 508.666992188 25.1669921875 506 15.6669921875 502 5 c 0xdf80
EndSplineSet
Validated: 524289
EndChar

StartChar: A
Encoding: 65 65 33
Width: 590
GlyphClass: 2
Flags: HMW
HStem: -5.55122 21G 251 81.0059
VStem: 28.4769 90.5231
LayerCount: 2
Fore
SplineSet
119 41 m 2
 112.333007812 20.3330078125 103 6.6708984375 91 0.00390625 c 0
 84.3330078125 -3.7001953125 77.5634765625 -5.5517578125 70.6904296875 -5.5517578125 c 0
 65.1923828125 -5.5517578125 59.62890625 -4.3671875 53.9990234375 -1.9970703125 c 0
 36.9853515625 5.78125 28.478515625 21.3564453125 28.478515625 44.7294921875 c 0
 28.478515625 53.4111328125 29.65234375 63.1689453125 32 74.0029296875 c 0
 36 95.3359375 55.3330078125 147.3359375 90 230.002929688 c 1
 78 238.002929688 72 247.669921875 72 259.002929688 c 0
 71.3330078125 268.3359375 75.5 277.168945312 84.5 285.501953125 c 0
 93.5 293.834960938 105.333007812 300.334960938 120 305.001953125 c 1
 202 495.668945312 265 623.001953125 309 687.001953125 c 0
 319 700.334960938 327.833007812 710.001953125 335.5 716.001953125 c 0
 343.166992188 722.001953125 351.666992188 725.001953125 361 725.001953125 c 0
 363.302734375 725.244140625 365.567382812 725.365234375 367.79296875 725.365234375 c 0
 377.809570312 725.365234375 387.044921875 722.911132812 395.499023438 718.001953125 c 0
 405.83203125 712.001953125 411.999023438 701.668945312 413.999023438 687.001953125 c 0
 427.999023438 604.334960938 451.499023438 487.16796875 484.499023438 335.500976562 c 0
 517.499023438 183.833984375 540.33203125 96.6669921875 552.999023438 74 c 0
 558.5546875 63.443359375 561.333007812 53.697265625 561.333007812 44.76171875 c 0
 561.333007812 42.9755859375 561.221679688 41.2216796875 561 39.5 c 0
 559.666992188 29.1669921875 556.333984375 20.5 551.000976562 13.5 c 0
 545.66796875 6.5 539.334960938 1.3330078125 532.001953125 -2 c 0
 526.2109375 -4.4375 520.419921875 -5.65625 514.62890625 -5.65625 c 2
 494 -0.4990234375 l 2
 481.333007812 5.833984375 471 19.6669921875 463 41 c 0
 454.333007812 61.6669921875 437.666015625 131.666992188 412.999023438 251 c 1
 327.666015625 247.666992188 251.333007812 240.666992188 184 230 c 1
 119 41 l 2
341 602.004882812 m 1
 311.666992188 557.337890625 270 462.671875 216 318.004882812 c 1
 284 326.004882812 344.333007812 330.671875 397 332.004882812 c 1
 341 602.004882812 l 1
EndSplineSet
Validated: 524289
EndChar

StartChar: B
Encoding: 66 66 34
Width: 590
GlyphClass: 2
Flags: HMW
HStem: -22.9961 21G 297.004 72 630.004 78.999
VStem: 53 96.4978 406.997 90.0384 440.998 98.001
LayerCount: 2
Fore
SplineSet
244 -14 m 0xf4
 232.666992188 -14.6669921875 219.998046875 -15.6640625 205.998046875 -16.9970703125 c 0
 191.998046875 -18.330078125 180.665039062 -19.330078125 171.998046875 -19.9970703125 c 2
 145.998046875 -21.9970703125 l 2
 137.331054688 -22.6640625 129.498046875 -22.9970703125 122.498046875 -22.9970703125 c 0
 115.498046875 -22.9970703125 108.998046875 -22.330078125 102.998046875 -20.9970703125 c 2
 98.998046875 -20.9970703125 l 2
 85.6650390625 -20.9970703125 74.83203125 -16.4970703125 66.4990234375 -7.4970703125 c 0
 58.783203125 0.8359375 54.92578125 12.1689453125 54.92578125 26.5029296875 c 0
 54.92578125 33.943359375 57.25 48.533203125 57.25 135.748046875 c 0
 57.25 152.249023438 57.1669921875 170.333984375 57 190.002929688 c 0
 56.3330078125 268.669921875 55 349.669921875 53 433.002929688 c 0
 51.6669921875 477.669921875 51 507.669921875 51 523.002929688 c 0
 51 538.3359375 51.5 559.002929688 52.5 585.002929688 c 0
 53.5 611.002929688 54 629.002929688 54 639.002929688 c 0
 54.6669921875 657.002929688 59.5 670.502929688 68.5 679.502929688 c 0
 77.5 688.502929688 89 693.002929688 103 693.002929688 c 2
 108 693.002929688 l 2
 118.666992188 696.3359375 129.666992188 699.168945312 141 701.501953125 c 0
 152.333007812 703.834960938 162.833007812 705.501953125 172.5 706.501953125 c 0
 182.166992188 707.501953125 192.666992188 708.168945312 204 708.501953125 c 0
 215.333007812 708.834960938 224.166015625 709.001953125 230.499023438 709.001953125 c 2
 250.999023438 709.001953125 l 1
 261.999023438 709.001953125 l 2
 307.33203125 709.001953125 347.499023438 700.668945312 382.499023438 684.001953125 c 0
 417.499023438 667.334960938 445.166015625 643.16796875 465.499023438 611.500976562 c 0
 487.920898438 576.581054688 497.03515625 537.415039062 497.03515625 496.803710938 c 0xf8
 497.03515625 459.928710938 488.5234375 428.161132812 471.499023438 401.500976562 c 0
 453.83203125 373.833984375 429.33203125 353.666992188 397.999023438 341 c 1
 420.666015625 333.666992188 442.499023438 322.833984375 463.499023438 308.500976562 c 0
 484.499023438 294.16796875 502.33203125 278.16796875 516.999023438 260.500976562 c 0
 531.666015625 242.833984375 538.999023438 226.333984375 538.999023438 211.000976562 c 0
 538.999023438 185.66796875 532.666015625 160.500976562 519.999023438 135.500976562 c 0
 507.33203125 110.500976562 488.83203125 87.66796875 464.499023438 67.0009765625 c 0
 440.166015625 46.333984375 408.833007812 28.6669921875 370.5 14 c 0
 332.166992188 -0.6669921875 290 -10 244 -14 c 0xf4
259.998046875 630.002929688 m 0
 223.998046875 630.002929688 188.998046875 625.668945312 154.998046875 617.001953125 c 1
 154.998046875 604.334960938 154.331054688 584.001953125 152.998046875 556.001953125 c 0
 151.665039062 528.001953125 150.665039062 498.334960938 149.998046875 467.001953125 c 0
 149.6640625 451.3359375 149.497070312 435.502929688 149.497070312 419.502929688 c 0
 149.497070312 403.502929688 149.6640625 387.3359375 149.998046875 371.002929688 c 1
 181.331054688 369.669921875 210.998046875 369.002929688 238.998046875 369.002929688 c 0
 258.998046875 369.002929688 277.331054688 370.669921875 293.998046875 374.002929688 c 0
 310.665039062 377.3359375 324.498046875 381.668945312 335.498046875 387.001953125 c 0
 346.498046875 392.334960938 356.498046875 398.834960938 365.498046875 406.501953125 c 0
 374.498046875 414.168945312 381.331054688 422.001953125 385.998046875 430.001953125 c 0
 390.665039062 438.001953125 394.665039062 446.834960938 397.998046875 456.501953125 c 0
 401.331054688 466.168945312 403.6640625 474.8359375 404.997070312 482.502929688 c 0
 406.330078125 490.169921875 406.997070312 498.336914062 406.997070312 507.00390625 c 0
 406.997070312 524.336914062 403.497070312 540.336914062 396.497070312 555.00390625 c 0
 389.497070312 569.670898438 380.830078125 581.50390625 370.497070312 590.50390625 c 0
 360.1640625 599.50390625 348.331054688 607.170898438 334.998046875 613.50390625 c 0
 321.665039062 619.836914062 308.665039062 624.169921875 295.998046875 626.502929688 c 0
 283.331054688 628.8359375 271.331054688 630.002929688 259.998046875 630.002929688 c 0
245.998046875 297.001953125 m 1
 197.331054688 297.001953125 165.998046875 296.66796875 151.998046875 296.000976562 c 1
 154.665039062 188.66796875 156.665039062 112.334960938 157.998046875 67.001953125 c 1
 165.331054688 67.001953125 177.498046875 67.3349609375 194.498046875 68.001953125 c 0
 211.498046875 68.6689453125 224.331054688 69.001953125 232.998046875 69.001953125 c 0
 263.665039062 70.3349609375 292.498046875 75.66796875 319.498046875 85.0009765625 c 0
 346.498046875 94.333984375 368.331054688 105.500976562 384.998046875 118.500976562 c 0
 401.665039062 131.500976562 415.165039062 145.16796875 425.498046875 159.500976562 c 0
 435.831054688 173.833984375 440.998046875 187.000976562 440.998046875 199.000976562 c 0xf4
 440.998046875 207.66796875 437.331054688 216.334960938 429.998046875 225.001953125 c 0
 422.665039062 233.668945312 411.498046875 242.668945312 396.498046875 252.001953125 c 0
 381.498046875 261.334960938 360.998046875 270.001953125 334.998046875 278.001953125 c 0
 308.998046875 286.001953125 279.331054688 292.334960938 245.998046875 297.001953125 c 1
EndSplineSet
Validated: 524289
EndChar

StartChar: C
Encoding: 67 67 35
Width: 590
GlyphClass: 2
Flags: HMW
HStem: -31.0911 90.092 518.417 222.246 632.001 80.9961
VStem: 37.0039 100.998 450.005 103.001
LayerCount: 2
Fore
SplineSet
525 64 m 0xb8
 470.015625 0.607421875 385.850585938 -31.091796875 272.495117188 -31.091796875 c 0
 269.025390625 -31.091796875 265.528320312 -31.0625 262.00390625 -31.0029296875 c 0
 234.670898438 -31.0029296875 208.670898438 -26.3359375 184.00390625 -17.0029296875 c 0
 159.336914062 -7.669921875 138.50390625 4.6630859375 121.50390625 19.99609375 c 0
 104.50390625 35.3291015625 89.3369140625 53.162109375 76.00390625 73.4951171875 c 0
 62.6708984375 93.828125 52.837890625 115.495117188 46.5048828125 138.495117188 c 0
 40.171875 161.495117188 37.0048828125 184.662109375 37.0048828125 207.995117188 c 0
 37.0048828125 256.662109375 42.0048828125 303.662109375 52.0048828125 348.995117188 c 0
 62.0048828125 394.328125 75.5048828125 435.328125 92.5048828125 471.995117188 c 0
 109.504882812 508.662109375 129.337890625 542.329101562 152.004882812 572.99609375 c 0
 174.671875 603.663085938 198.838867188 629.163085938 224.505859375 649.49609375 c 0
 250.172851562 669.829101562 276.505859375 685.49609375 303.505859375 696.49609375 c 0
 330.505859375 707.49609375 356.338867188 712.99609375 381.005859375 712.99609375 c 0xb8
 405.672851562 712.99609375 428.33984375 710.329101562 449.006835938 704.99609375 c 1
 451.673828125 714.99609375 456.673828125 723.163085938 464.006835938 729.49609375 c 0
 471.33984375 735.829101562 480.006835938 739.329101562 490.006835938 739.99609375 c 0
 492.376953125 740.440429688 494.755859375 740.663085938 497.142578125 740.663085938 c 0
 505.49609375 740.663085938 513.950195312 737.940429688 522.505859375 732.49609375 c 0
 533.505859375 725.49609375 540.338867188 715.329101562 543.005859375 701.99609375 c 0
 545.005859375 691.99609375 547.005859375 682.163085938 549.005859375 672.49609375 c 0
 551.005859375 662.829101562 552.172851562 653.329101562 552.505859375 643.99609375 c 0
 552.838867188 634.663085938 553.005859375 626.99609375 553.005859375 620.99609375 c 2
 553.005859375 599.99609375 l 1
 553.005859375 584.99609375 l 2
 553.005859375 570.99609375 547.672851562 556.829101562 537.005859375 542.49609375 c 0
 526.338867188 528.163085938 515.671875 520.330078125 505.004882812 518.997070312 c 0
 502.682617188 518.610351562 500.353515625 518.416992188 498.018554688 518.416992188 c 0xd8
 488.2890625 518.416992188 478.451171875 521.77734375 468.504882812 528.498046875 c 0
 456.171875 536.831054688 450.004882812 547.998046875 450.004882812 561.998046875 c 0
 450.004882812 567.331054688 450.337890625 581.331054688 451.004882812 603.998046875 c 0
 450.337890625 604.665039062 447.170898438 606.83203125 441.50390625 610.499023438 c 0
 435.836914062 614.166015625 431.836914062 616.833007812 429.50390625 618.5 c 0
 427.170898438 620.166992188 423.337890625 622.333984375 418.004882812 625.000976562 c 0
 412.671875 627.66796875 407.504882812 629.500976562 402.504882812 630.500976562 c 0
 397.504882812 631.500976562 392.671875 632.000976562 388.004882812 632.000976562 c 0
 367.337890625 632.000976562 345.170898438 625.333984375 321.50390625 612.000976562 c 0
 297.836914062 598.66796875 275.169921875 579.66796875 253.502929688 555.000976562 c 0
 231.8359375 530.333984375 212.168945312 502.000976562 194.501953125 470.000976562 c 0
 176.834960938 438.000976562 163.001953125 401.833984375 153.001953125 361.500976562 c 0
 143.001953125 321.16796875 138.001953125 280.66796875 138.001953125 240.000976562 c 0
 138.001953125 210.66796875 143.668945312 182.000976562 155.001953125 154.000976562 c 0
 166.334960938 126.000976562 182.501953125 103.16796875 203.501953125 85.5009765625 c 0
 224.501953125 67.833984375 247.334960938 59.0009765625 272.001953125 59.0009765625 c 0
 293.334960938 59.0009765625 314.501953125 61.16796875 335.501953125 65.5009765625 c 0
 356.501953125 69.833984375 375.001953125 75.5009765625 391.001953125 82.5009765625 c 0
 407.001953125 89.5009765625 420.834960938 96.5009765625 432.501953125 103.500976562 c 0
 444.168945312 110.500976562 455.001953125 118.000976562 465.001953125 126.000976562 c 0
 473.668945312 132.000976562 481.168945312 136.66796875 487.501953125 140.000976562 c 0
 493.834960938 143.333984375 500.66796875 145.000976562 508.000976562 145.000976562 c 0
 515.333984375 145.000976562 522.666992188 142.66796875 530 138.000976562 c 0
 541.220703125 129.2734375 546.831054688 119.234375 546.831054688 107.883789062 c 0
 546.831054688 94.95703125 539.553710938 80.3291015625 525 64 c 0xb8
EndSplineSet
Validated: 524289
EndChar

StartChar: D
Encoding: 68 68 36
Width: 590
GlyphClass: 2
Flags: HMW
HStem: -31 85.998 694.001 20G
VStem: 35.3732 98.6278 39.999 102.002 459.001 95.9971
LayerCount: 2
Fore
SplineSet
135.000976562 348 m 0xe8
 135.66796875 319.333007812 136.831054688 276.1640625 138.498046875 218.497070312 c 0
 140.165039062 160.830078125 141.333984375 117.330078125 142.000976562 87.9970703125 c 1
 169.333984375 75.9970703125 197.999023438 67.4970703125 227.999023438 62.4970703125 c 0
 257.999023438 57.4970703125 291.999023438 54.9970703125 329.999023438 54.9970703125 c 0
 348.666015625 54.9970703125 366.333007812 61.1640625 383 73.4970703125 c 0
 399.666992188 85.830078125 413.333984375 101.830078125 424.000976562 121.497070312 c 0
 434.66796875 141.1640625 443.16796875 162.831054688 449.500976562 186.498046875 c 0
 455.833984375 210.165039062 459.000976562 233.33203125 459.000976562 255.999023438 c 0
 459.000976562 381.33203125 407.66796875 476.999023438 305.000976562 542.999023438 c 0
 268.333984375 566.33203125 216.000976562 590.33203125 148.000976562 614.999023438 c 1
 147.000976562 615.999023438 l 1
 146.000976562 615.999023438 l 1
 145.000976562 615.999023438 l 1
 144.000976562 616.999023438 l 1
 143.000976562 616.999023438 l 1
 142.000976562 616.999023438 l 1
 142.000976562 617.999023438 l 1xd8
 141.000976562 617.999023438 l 1
 140.000976562 617.999023438 l 1
 139.000976562 618.999023438 l 1
 138.000976562 618.999023438 l 1
 137.000976562 618.999023438 l 1
 136.000976562 619.999023438 l 1
 135.000976562 619.999023438 l 1
 134.000976562 619.999023438 l 1
 134.000976562 620.999023438 l 1
 133.143554688 583.854492188 132.71484375 545.9140625 132.71484375 507.177734375 c 0
 132.71484375 455.533203125 133.4765625 402.473632812 135.000976562 348 c 0xe8
331 -31.0009765625 m 0
 297.666992188 -31.0009765625 265.16796875 -29.5 233.500976562 -26.5 c 0
 201.833984375 -23.5 176.666992188 -20 158 -16 c 0
 139.333007812 -12 123 -8.3330078125 109 -5 c 0
 95 -1.6669921875 86.6669921875 0 84 0 c 0
 70.6669921875 0 59.6669921875 4.5 51 13.5 c 0
 43.48828125 21.2998046875 39.732421875 31.7294921875 39.732421875 44.7880859375 c 0
 39.732421875 46.796875 39.8212890625 48.8671875 39.9990234375 51 c 0xd8
 41.4990234375 74.9990234375 42.2490234375 112.965820312 42.2490234375 164.901367188 c 0
 42.2490234375 182.21484375 42.166015625 201.081054688 41.9990234375 221.5 c 0
 41.33203125 303.166992188 39.6650390625 391.666992188 36.998046875 487 c 0
 36.3310546875 524.333007812 35.8310546875 548.833007812 35.498046875 560.5 c 0
 35.4150390625 563.416015625 35.373046875 566.73828125 35.373046875 570.466796875 c 0xe8
 35.373046875 581.654296875 35.748046875 596.498046875 36.498046875 614.999023438 c 0
 37.498046875 639.666015625 37.998046875 654.666992188 37.998046875 660 c 0
 38.6650390625 678 43.6650390625 691.5 52.998046875 700.5 c 0
 62.3310546875 709.5 73.998046875 714 87.998046875 714 c 0
 96.6650390625 714 107.665039062 713.333007812 120.998046875 712 c 0
 134.331054688 710.666992188 151.498046875 708 172.498046875 704 c 0
 193.498046875 700 214.998046875 694.5 236.998046875 687.5 c 0
 258.998046875 680.5 282.831054688 670.666992188 308.498046875 658 c 0
 334.165039062 645.333007812 358.498046875 630.666015625 381.498046875 613.999023438 c 0
 404.498046875 597.33203125 426.665039062 576.499023438 447.998046875 551.499023438 c 0
 469.331054688 526.499023438 487.831054688 499.166015625 503.498046875 469.499023438 c 0
 519.165039062 439.83203125 531.665039062 404.499023438 540.998046875 363.499023438 c 0
 550.331054688 322.499023438 554.998046875 278.33203125 554.998046875 230.999023438 c 0
 554.998046875 207.666015625 551.831054688 183.999023438 545.498046875 159.999023438 c 0
 539.165039062 135.999023438 529.498046875 112.499023438 516.498046875 89.4990234375 c 0
 503.498046875 66.4990234375 488.331054688 45.9990234375 470.998046875 27.9990234375 c 0
 453.665039062 9.9990234375 432.83203125 -4.333984375 408.499023438 -15.0009765625 c 0
 384.166015625 -25.66796875 358.333007812 -31.0009765625 331 -31.0009765625 c 0
EndSplineSet
Validated: 524289
EndChar

StartChar: E
Encoding: 69 69 37
Width: 590
GlyphClass: 2
Flags: HMW
HStem: -17.498 85.4132 -6.2352 90.7323 312.001 85.999 332.001 80.999 615.159 82.8417
VStem: 48.005 97.4971
LayerCount: 2
Fore
SplineSet
491 -6 m 0x4c
 488.815429688 -5.87890625 486.068359375 -5.818359375 482.7578125 -5.818359375 c 0
 467.880859375 -5.818359375 441.630859375 -7.044921875 404.002929688 -9.4990234375 c 0
 358.002929688 -12.4990234375 307.502929688 -15.166015625 252.502929688 -17.4990234375 c 0
 222.88671875 -18.7548828125 196.701171875 -19.3828125 173.947265625 -19.3828125 c 0
 154.4453125 -19.3828125 137.463867188 -18.9208984375 123.002929688 -17.998046875 c 0
 107.669921875 -17.3310546875 92.3369140625 -9.8310546875 77.00390625 4.501953125 c 0
 61.6708984375 18.8349609375 52.6708984375 36.3349609375 50.00390625 57.001953125 c 0
 48.00390625 74.3349609375 47.00390625 105.501953125 47.00390625 150.501953125 c 0
 47.00390625 195.501953125 47.3369140625 243.334960938 48.00390625 294.001953125 c 0
 48.2265625 310.899414062 48.337890625 328.500976562 48.337890625 346.806640625 c 0
 48.337890625 383.391601562 47.8935546875 422.790039062 47.0048828125 465.001953125 c 0
 46.337890625 505.001953125 45.837890625 531.501953125 45.5048828125 544.501953125 c 0
 45.421875 547.750976562 45.3798828125 551.385742188 45.3798828125 555.405273438 c 0
 45.3798828125 567.467773438 45.7548828125 583 46.5048828125 602.000976562 c 0
 47.5048828125 627.333984375 48.0048828125 643.000976562 48.0048828125 649.000976562 c 0
 48.671875 667.000976562 53.671875 680.66796875 63.0048828125 690.000976562 c 0
 72.337890625 699.333984375 84.0048828125 704.000976562 98.0048828125 704.000976562 c 0
 98.91796875 704.036132812 99.8193359375 704.053710938 100.709960938 704.053710938 c 0
 116.731445312 704.053710938 129.163085938 698.369140625 138.004882812 687.000976562 c 1
 176.004882812 692.333984375 220.504882812 695.666992188 271.504882812 697 c 0
 297.004882812 697.666015625 321.046875 697.999023438 343.629882812 697.999023438 c 0
 366.212890625 697.999023438 387.337890625 697.666015625 407.00390625 697 c 0
 446.336914062 695.666992188 477.669921875 693.666992188 501.002929688 691 c 0
 517.002929688 689 528.002929688 685 534.002929688 679 c 0
 540.002929688 673 543.3359375 664.666992188 544.002929688 654 c 0
 544.002929688 648 543.3359375 642.333007812 542.002929688 637 c 0
 540.669921875 631.666992188 538.502929688 626.833984375 535.502929688 622.500976562 c 0
 532.502929688 618.16796875 528.002929688 614.66796875 522.002929688 612.000976562 c 0
 516.002929688 609.333984375 509.002929688 608.666992188 501.002929688 610 c 0
 454.829101562 613.438476562 408.383789062 615.158203125 361.666992188 615.158203125 c 0
 344.98046875 615.158203125 328.258789062 614.938476562 311.502929688 614.5 c 0
 247.8359375 612.833007812 193.3359375 608.666015625 148.002929688 601.999023438 c 1
 145.3359375 532.666015625 144.002929688 464.666015625 144.002929688 397.999023438 c 1xac
 192.669921875 397.999023438 259.002929688 400.499023438 343.002929688 405.499023438 c 0
 427.002929688 410.499023438 474.3359375 412.999023438 485.002929688 412.999023438 c 0
 500.3359375 412.999023438 511.168945312 409.666015625 517.501953125 402.999023438 c 0
 523.834960938 396.33203125 527.001953125 386.999023438 527.001953125 374.999023438 c 0
 527.001953125 346.318359375 513.6171875 331.977539062 486.848632812 331.977539062 c 0
 486.240234375 331.977539062 485.625 331.985351562 485.002929688 332 c 0x1c
 473.002929688 332 421.502929688 328.666992188 330.502929688 322 c 0
 239.502929688 315.333007812 177.669921875 312 145.002929688 312 c 1
 145.002929688 297.333007812 145.169921875 278.166015625 145.502929688 254.499023438 c 0
 145.8359375 230.83203125 146.168945312 210.499023438 146.501953125 193.499023438 c 0
 146.834960938 176.499023438 147.16796875 158.999023438 147.500976562 140.999023438 c 0
 147.833984375 122.999023438 148.500976562 108.166015625 149.500976562 96.4990234375 c 0
 150.500976562 84.83203125 152.000976562 76.6650390625 154.000976562 71.998046875 c 0
 164.112304688 69.275390625 186.079101562 67.9140625 219.900390625 67.9140625 c 0xac
 244.0546875 67.9140625 274.254882812 68.6083984375 310.500976562 69.9970703125 c 0
 397.500976562 73.330078125 453.333984375 77.6630859375 478.000976562 82.99609375 c 0
 487.333984375 84.3291015625 495.333984375 84.8291015625 502.000976562 84.49609375 c 0
 508.66796875 84.1630859375 514.500976562 82.830078125 519.500976562 80.4970703125 c 0
 524.500976562 78.1640625 528.500976562 75.6640625 531.500976562 72.9970703125 c 0
 534.500976562 70.330078125 536.833984375 66.830078125 538.500976562 62.4970703125 c 0
 540.16796875 58.1640625 541.500976562 54.3310546875 542.500976562 50.998046875 c 0
 543.500976562 47.6650390625 544.000976562 44.33203125 544.000976562 40.9990234375 c 0
 544.000976562 28.33203125 539.500976562 16.9990234375 530.500976562 6.9990234375 c 0
 522.559570312 -1.82421875 511.374023438 -6.2353515625 496.944335938 -6.2353515625 c 0
 495.020507812 -6.2353515625 493.0390625 -6.1572265625 491 -6 c 0x4c
EndSplineSet
Validated: 524289
EndChar

StartChar: F
Encoding: 70 70 38
Width: 590
GlyphClass: 2
Flags: HMW
HStem: -21.0722 21G 322.534 84.6107 621.784 84.7164 694.192 20G
VStem: 49.738 103.262 52.255 93.745
LayerCount: 2
Fore
SplineSet
153 24 m 0xe8
 151.666992188 10 145.172851562 -1.166015625 133.505859375 -9.4990234375 c 0
 122.703125 -17.21484375 110.615234375 -21.072265625 97.2412109375 -21.072265625 c 0
 96.1708984375 -21.072265625 95.091796875 -21.0478515625 94.0048828125 -20.998046875 c 0
 80.671875 -20.998046875 69.671875 -16.498046875 61.0048828125 -7.498046875 c 0
 53.4931640625 0.302734375 49.7373046875 10.732421875 49.7373046875 23.791015625 c 0xe8
 49.7373046875 25.7998046875 49.826171875 27.8701171875 50.00390625 30.0029296875 c 0
 51.50390625 52.001953125 52.25390625 89.09375 52.25390625 141.279296875 c 0
 52.25390625 158.676757812 52.1708984375 177.750976562 52.00390625 198.502929688 c 0
 51.3369140625 281.502929688 49.669921875 367.002929688 47.0029296875 455.002929688 c 0
 45.669921875 499.669921875 45.0029296875 529.669921875 45.0029296875 545.002929688 c 0
 45.0029296875 560.3359375 45.5029296875 581.002929688 46.5029296875 607.002929688 c 0
 47.5029296875 633.002929688 48.0029296875 650.669921875 48.0029296875 660.002929688 c 0
 48.669921875 678.002929688 53.669921875 691.502929688 63.0029296875 700.502929688 c 0
 72.3359375 709.502929688 84.0029296875 714.002929688 98.0029296875 714.002929688 c 0
 99.716796875 714.129882812 101.391601562 714.193359375 103.02734375 714.193359375 c 0xd4
 118.56640625 714.193359375 130.55859375 708.462890625 139.002929688 697.001953125 c 1
 204.3359375 701.668945312 270.502929688 704.668945312 337.502929688 706.001953125 c 0
 354.251953125 706.334960938 370.241210938 706.501953125 385.469726562 706.501953125 c 0
 431.158203125 706.501953125 470.002929688 705.001953125 502.00390625 702.001953125 c 0
 517.336914062 700.668945312 528.169921875 696.8359375 534.502929688 690.502929688 c 0
 540.8359375 684.169921875 544.002929688 675.336914062 544.002929688 664.00390625 c 0
 544.002929688 651.336914062 540.3359375 640.669921875 533.002929688 632.002929688 c 0
 525.669921875 623.3359375 514.002929688 619.002929688 498.002929688 619.002929688 c 0
 460.669921875 620.857421875 422.20703125 621.78515625 382.615234375 621.78515625 c 0
 308.380859375 621.78515625 230.176757812 618.524414062 148.002929688 612.002929688 c 1
 148.002929688 600.669921875 147.669921875 582.502929688 147.002929688 557.502929688 c 0
 146.3359375 532.502929688 145.668945312 507.002929688 145.001953125 481.002929688 c 0
 144.66796875 468.002929688 144.500976562 454.919921875 144.500976562 441.752929688 c 0
 144.500976562 428.5859375 144.66796875 415.3359375 145.001953125 402.001953125 c 1
 175.286132812 405.430664062 208.508789062 407.145507812 244.669921875 407.145507812 c 0
 250.698242188 407.145507812 256.80859375 407.09765625 263.000976562 407.001953125 c 0
 306.333984375 406.334960938 345.666992188 404.501953125 381 401.501953125 c 0
 416.333007812 398.501953125 444 395.334960938 464 392.001953125 c 0
 480 389.334960938 491 385.001953125 497 379.001953125 c 0
 503 373.001953125 506.333007812 364.668945312 507 354.001953125 c 0
 507 348.001953125 506.5 342.501953125 505.5 337.501953125 c 0
 504.5 332.501953125 502.666992188 327.668945312 500 323.001953125 c 0
 497.333007812 318.334960938 493 314.834960938 487 312.501953125 c 0
 481 310.168945312 473.333007812 309.3359375 464 310.002929688 c 0
 443.333007812 313.3359375 415 316.168945312 379 318.501953125 c 0
 343 320.834960938 302.5 322.16796875 257.5 322.500976562 c 0
 254.502929688 322.5234375 251.541015625 322.534179688 248.61328125 322.534179688 c 0
 207.583984375 322.534179688 173.37890625 320.356445312 146 316 c 1xe4
 150 139.333007812 152.333007812 42 153 24 c 0xe8
EndSplineSet
Validated: 524289
EndChar

StartChar: G
Encoding: 71 71 39
Width: 590
GlyphClass: 2
Flags: HMW
HStem: -31.0616 90.0616 278 81.8571 643.002 80.999
VStem: 35.9951 100.001
LayerCount: 2
Fore
SplineSet
524 244 m 0
 522.666992188 230 518.4921875 213.669921875 511.4921875 195.002929688 c 0
 504.4921875 176.3359375 495.825195312 156.502929688 485.4921875 135.502929688 c 0
 475.159179688 114.502929688 461.826171875 94.169921875 445.493164062 74.5029296875 c 0
 429.16015625 54.8359375 411.993164062 37.0029296875 393.993164062 21.0029296875 c 0
 375.993164062 5.0029296875 354.993164062 -7.830078125 330.993164062 -17.4970703125 c 0
 308.541992188 -26.5400390625 286.3828125 -31.0615234375 264.515625 -31.0615234375 c 0
 263.006835938 -31.0615234375 261.499023438 -31.0400390625 259.993164062 -30.9970703125 c 0
 232.66015625 -30.9970703125 206.827148438 -26.330078125 182.494140625 -16.9970703125 c 0
 158.161132812 -7.6640625 137.328125 4.6689453125 119.995117188 20.001953125 c 0
 102.662109375 35.3349609375 87.4951171875 53.16796875 74.4951171875 73.5009765625 c 0
 61.4951171875 93.833984375 51.828125 115.500976562 45.4951171875 138.500976562 c 0
 39.162109375 161.500976562 35.9951171875 184.66796875 35.9951171875 208.000976562 c 0
 35.9951171875 257.333984375 40.828125 305.333984375 50.4951171875 352.000976562 c 0
 60.162109375 398.66796875 73.662109375 440.66796875 90.9951171875 478.000976562 c 0
 108.328125 515.333984375 128.328125 549.500976562 150.995117188 580.500976562 c 0
 173.662109375 611.500976562 197.829101562 637.500976562 223.49609375 658.500976562 c 0
 249.163085938 679.500976562 275.330078125 695.66796875 301.997070312 707.000976562 c 0
 328.6640625 718.333984375 354.331054688 724.000976562 378.998046875 724.000976562 c 0
 406.998046875 724.000976562 438.165039062 717.500976562 472.498046875 704.500976562 c 0
 506.831054688 691.500976562 529.331054688 680.333984375 539.998046875 671.000976562 c 0
 549.776367188 661.22265625 554.665039062 649.518554688 554.665039062 635.888671875 c 0
 554.665039062 629.07421875 553.443359375 621.778320312 550.999023438 614.000976562 c 0
 548.33203125 605.333984375 541.999023438 599.000976562 531.999023438 595.000976562 c 0
 526.999023438 593.000976562 521.83203125 592.000976562 516.499023438 592.000976562 c 0
 511.166015625 592.000976562 505.666015625 593.000976562 500 595.000976562 c 0
 496 596.333984375 486.833007812 601.333984375 472.5 610.000976562 c 0
 458.166992188 618.66796875 443.5 626.334960938 428.5 633.001953125 c 0
 413.5 639.668945312 399.666992188 643.001953125 387 643.001953125 c 0
 366.333007812 643.001953125 344.166015625 636.168945312 320.499023438 622.501953125 c 0
 296.83203125 608.834960938 274.165039062 589.16796875 252.498046875 563.500976562 c 0
 230.831054688 537.833984375 211.1640625 508.666992188 193.497070312 476 c 0
 175.830078125 443.333007812 161.830078125 406.333007812 151.497070312 365 c 0
 141.1640625 323.666992188 135.997070312 282 135.997070312 240 c 0
 135.997070312 210.666992188 141.6640625 182 152.997070312 154 c 0
 164.330078125 126 180.497070312 103.166992188 201.497070312 85.5 c 0
 222.497070312 67.8330078125 245.6640625 59 270.997070312 59 c 0
 286.997070312 59 303.497070312 64.1669921875 320.497070312 74.5 c 0
 337.497070312 84.8330078125 352.6640625 98 365.997070312 114 c 0
 379.330078125 130 391.830078125 148 403.497070312 168 c 0
 415.1640625 188 425.1640625 207.333007812 433.497070312 226 c 0
 441.830078125 244.666992188 448.330078125 262 452.997070312 278 c 1
 410.997070312 276 369.830078125 272.333007812 329.497070312 267 c 0
 289.1640625 261.666992188 261.331054688 254.666992188 245.998046875 246 c 0
 240.629882812 243.158203125 235.374023438 241.737304688 230.23046875 241.737304688 c 0
 224.514648438 241.737304688 218.9375 243.491210938 213.499023438 247 c 0
 203.166015625 253.666992188 197.333007812 262.666992188 196 274 c 0
 195.509765625 277.1015625 195.264648438 280.118164062 195.264648438 283.05078125 c 0
 195.264648438 304.064453125 207.842773438 320.713867188 232.999023438 333 c 0
 251.666015625 342.333007812 292.499023438 349.5 355.499023438 354.5 c 0
 400.499023438 358.071289062 438.44140625 359.857421875 469.326171875 359.857421875 c 0
 481.6796875 359.857421875 492.904296875 359.571289062 502.999023438 359 c 0
 519.666015625 358.333007812 531.166015625 355.5 537.499023438 350.5 c 0
 543.83203125 345.5 548.33203125 337.666992188 550.999023438 327 c 0
 551.354492188 323.7109375 551.532226562 320.587890625 551.532226562 317.630859375 c 0
 551.532226562 298.41015625 544.021484375 286.200195312 529 281 c 0
 529 279 528.166992188 273.666992188 526.5 265 c 0
 524.833007812 256.333007812 524 249.333007812 524 244 c 0
EndSplineSet
Validated: 524289
EndChar

StartChar: H
Encoding: 72 72 40
Width: 590
GlyphClass: 2
Flags: HMW
HStem: -21.0741 21G 311.999 86.001 694.074 20G
VStem: 62.997 98.002 434.09 99.5773
LayerCount: 2
Fore
SplineSet
527 24 m 0
 525.666992188 10 519.166015625 -1.169921875 507.499023438 -9.5029296875 c 0
 496.696289062 -17.21875 484.89453125 -21.076171875 472.091796875 -21.076171875 c 0
 471.067382812 -21.076171875 470.036132812 -21.0517578125 468.999023438 -21.001953125 c 0
 455.666015625 -21.001953125 444.666015625 -16.501953125 435.999023438 -7.501953125 c 0
 428.487304688 0.2978515625 424.731445312 10.7275390625 424.731445312 23.7861328125 c 0
 424.731445312 25.794921875 424.8203125 27.865234375 424.998046875 29.998046875 c 0
 431.05859375 114.237304688 434.088867188 207.841796875 434.088867188 310.811523438 c 0
 434.088867188 321.11328125 434.05859375 331.508789062 433.998046875 341.998046875 c 1
 422.665039062 341.331054688 381.83203125 336.1640625 311.499023438 326.497070312 c 0
 241.166015625 316.830078125 190.999023438 311.997070312 160.999023438 311.997070312 c 1
 160.999023438 309.997070312 160.83203125 306.497070312 160.499023438 301.497070312 c 0
 160.166015625 296.497070312 159.999023438 292.997070312 159.999023438 290.997070312 c 0
 157.999023438 257.997070312 156.999023438 219.247070312 156.999023438 174.747070312 c 0
 156.999023438 130.247070312 157.999023438 79.9970703125 159.999023438 23.9970703125 c 0
 158.666015625 9.9970703125 151.999023438 -1.169921875 139.999023438 -9.5029296875 c 0
 128.888671875 -17.21875 116.920898438 -21.076171875 104.095703125 -21.076171875 c 0
 103.069335938 -21.076171875 102.037109375 -21.0517578125 101 -21.001953125 c 0
 87.6669921875 -21.001953125 76.6669921875 -16.501953125 68 -7.501953125 c 0
 60.48828125 0.298828125 56.732421875 10.728515625 56.732421875 23.787109375 c 0
 56.732421875 25.7958984375 56.8212890625 27.8662109375 56.9990234375 29.9990234375 c 0
 57.666015625 39.33203125 58.166015625 54.33203125 58.4990234375 74.9990234375 c 0
 58.83203125 95.666015625 58.9990234375 123.333007812 58.9990234375 158 c 0
 58.9990234375 192.666992188 59.33203125 224 59.9990234375 252 c 0
 59.9990234375 274.666992188 60.666015625 307.166992188 61.9990234375 349.5 c 0
 63.33203125 391.833007812 64.1650390625 423.166015625 64.498046875 443.499023438 c 0
 64.609375 450.270507812 64.6650390625 458.168945312 64.6650390625 467.1953125 c 0
 64.6650390625 485.2734375 64.4423828125 507.875 63.9970703125 535 c 0
 63.330078125 565 62.9970703125 584.166992188 62.9970703125 592.5 c 0
 62.9970703125 600.833007812 63.330078125 612.333007812 63.9970703125 627 c 0
 64.6640625 641.666992188 65.3310546875 652.666992188 65.998046875 660 c 0
 66.6650390625 678 71.498046875 691.5 80.498046875 700.5 c 0
 89.498046875 709.5 100.998046875 714 114.998046875 714 c 0
 116.084960938 714.049804688 117.158203125 714.07421875 118.217773438 714.07421875 c 0
 131.455078125 714.07421875 142.548828125 710.216796875 151.499023438 702.500976562 c 0
 161.166015625 694.16796875 165.999023438 681.000976562 165.999023438 663.000976562 c 0
 165.999023438 656.333984375 165.166015625 642.000976562 163.499023438 620.000976562 c 0
 161.83203125 598.000976562 160.999023438 577.66796875 160.999023438 559.000976562 c 0
 160.999023438 541.66796875 161.33203125 515.16796875 161.999023438 479.500976562 c 0
 162.666015625 443.833984375 162.999023438 416.666992188 162.999023438 398 c 1
 197.666015625 398 233.333007812 400 270 404 c 0
 306.666992188 408 340 412 370 416 c 0
 400 420 421 422.666992188 433 424 c 1
 433 428.666992188 432.666992188 435.5 432 444.5 c 0
 431.333007812 453.5 431 460.333007812 431 465 c 0
 430.333007812 506.333007812 430 533.666015625 430 546.999023438 c 0
 430 560.33203125 430.5 580.999023438 431.5 608.999023438 c 0
 432.5 636.999023438 433.333007812 653.999023438 434 659.999023438 c 0
 434 677.999023438 438.833007812 691.499023438 448.5 700.499023438 c 0
 458.166992188 709.499023438 469.666992188 713.999023438 483 713.999023438 c 0
 484.086914062 714.048828125 485.16015625 714.073242188 486.219726562 714.073242188 c 0
 499.45703125 714.073242188 510.55078125 710.215820312 519.500976562 702.5 c 0
 529.16796875 694.166992188 534.000976562 681 534.000976562 663 c 0
 534.000976562 650.333007812 533.66796875 624.333007812 533.000976562 585 c 0
 532.333984375 545.666992188 531.833984375 511.166992188 531.500976562 481.5 c 0
 531.434570312 475.5703125 531.401367188 469.114257812 531.401367188 462.131835938 c 0
 531.401367188 434.18359375 531.934570312 397.806640625 533.000976562 353 c 0
 533.4453125 337.448242188 533.666992188 320.267578125 533.666992188 301.458007812 c 0
 533.666992188 263.825195312 532.778320312 219.672851562 531 169 c 0
 528.333007812 93 527 44.6669921875 527 24 c 0
EndSplineSet
Validated: 524289
EndChar

StartChar: I
Encoding: 73 73 41
Width: 590
GlyphClass: 2
Flags: HMW
HStem: -13.998 80.001 -6.39919 77.8992 612.001 89.001 625.002 85.3327
VStem: 240.007 101.995 248.073 100.596
LayerCount: 2
Fore
SplineSet
503 -11 m 0x68
 485.666992188 -8.3330078125 457.177734375 -6.8310546875 417.510742188 -6.498046875 c 0
 409.58203125 -6.431640625 401.70703125 -6.3984375 393.884765625 -6.3984375 c 0x68
 362.573242188 -6.3984375 332.115234375 -6.931640625 302.510742188 -7.998046875 c 0
 265.510742188 -9.3310546875 225.84375 -10.6640625 183.510742188 -11.9970703125 c 0
 141.177734375 -13.330078125 111.677734375 -13.9970703125 95.0107421875 -13.9970703125 c 0
 77.677734375 -13.9970703125 65.0107421875 -10.6640625 57.0107421875 -3.9970703125 c 0
 45.2138671875 5.833984375 44.927734375 17.4921875 44.927734375 24.966796875 c 0
 44.927734375 35.6865234375 48.2880859375 44.865234375 55.009765625 52.50390625 c 0
 62.3427734375 60.8369140625 74.67578125 65.3369140625 92.0087890625 66.00390625 c 0
 120.008789062 67.3369140625 169.341796875 69.00390625 240.008789062 71.00390625 c 1x88
 245.385742188 154.600585938 248.07421875 241.782226562 248.07421875 332.547851562 c 0
 248.07421875 365.559570312 247.71875 399.044921875 247.0078125 433.004882812 c 0
 246.340820312 457.004882812 245.840820312 479.671875 245.5078125 501.004882812 c 0
 245.174804688 522.337890625 245.0078125 537.670898438 245.0078125 547.00390625 c 0
 245.0078125 556.336914062 245.674804688 570.836914062 247.0078125 590.50390625 c 0
 248.340820312 610.170898438 249.0078125 621.670898438 249.0078125 625.00390625 c 0
 218.673828125 625.669921875 191.33984375 626.002929688 167.005859375 626.002929688 c 0
 142.671875 626.002929688 121.337890625 625.669921875 103.004882812 625.002929688 c 0
 86.337890625 625.002929688 73.5048828125 628.669921875 64.5048828125 636.002929688 c 0
 51.23046875 646.818359375 50.9306640625 659.26953125 50.9306640625 666.641601562 c 0
 50.9306640625 677.5234375 54.7880859375 686.9765625 62.50390625 695.000976562 c 0
 70.8369140625 703.66796875 84.00390625 708.000976562 102.00390625 708.000976562 c 0
 157.563476562 709.556640625 209.270507812 710.334960938 257.125 710.334960938 c 0x94
 352.82421875 710.334960938 433.1171875 707.223632812 498.00390625 701.001953125 c 0
 527.336914062 698.334960938 542.669921875 684.66796875 544.002929688 660.000976562 c 0
 544.002929688 654.000976562 543.169921875 648.16796875 541.502929688 642.500976562 c 0
 539.8359375 636.833984375 537.002929688 631.333984375 533.002929688 626.000976562 c 0
 529.002929688 620.66796875 523.669921875 616.500976562 517.002929688 613.500976562 c 0
 510.3359375 610.500976562 503.3359375 610.000976562 496.002929688 612.000976562 c 0
 476.002929688 615.333984375 427.002929688 619.000976562 349.002929688 623.000976562 c 1
 349.002929688 617.66796875 348.669921875 602.66796875 348.002929688 578.000976562 c 0
 347.3359375 553.333984375 347.002929688 533.666992188 347.002929688 519 c 2
 347.002929688 456 l 2
 347.002929688 428.666992188 347.3359375 401.666992188 348.002929688 375 c 0
 348.447265625 359.2265625 348.668945312 342.157226562 348.668945312 323.791992188 c 0x24
 348.668945312 287.047851562 347.780273438 245.1171875 346.001953125 198 c 0
 343.334960938 127.333007812 342.001953125 85.3330078125 342.001953125 72 c 1
 370.668945312 72 404.001953125 71.8330078125 442.001953125 71.5 c 0
 480.001953125 71.1669921875 500.334960938 71 503.001953125 71 c 0
 518.334960938 71 529.16796875 67.5 535.500976562 60.5 c 0
 541.833984375 53.5 545.000976562 44.3330078125 545.000976562 33 c 0
 545.000976562 27 544.66796875 21.5 544.000976562 16.5 c 0
 543.333984375 11.5 541.333984375 6.5 538.000976562 1.5 c 0
 534.66796875 -3.5 530.16796875 -7.1669921875 524.500976562 -9.5 c 0
 518.833984375 -11.8330078125 511.666992188 -12.3330078125 503 -11 c 0x68
EndSplineSet
Validated: 524289
EndChar

StartChar: J
Encoding: 74 74 42
Width: 590
GlyphClass: 2
Flags: HMW
HStem: -35.001 101.001 625 82.999
VStem: 42.0039 89 305.003 93.9971
LayerCount: 2
Fore
SplineSet
396 215 m 0
 390.666992188 155 382.66796875 106.33203125 372.000976562 68.9990234375 c 0
 361.333984375 31.666015625 348.333984375 4.9990234375 333.000976562 -11.0009765625 c 0
 317.66796875 -27.0009765625 299.66796875 -35.0009765625 279.000976562 -35.0009765625 c 0
 256.333984375 -35.0009765625 234.000976562 -31.0009765625 212.000976562 -23.0009765625 c 0
 190.000976562 -15.0009765625 170.833984375 -4.333984375 154.500976562 8.9990234375 c 0
 138.16796875 22.33203125 123.000976562 36.83203125 109.000976562 52.4990234375 c 0
 95.0009765625 68.166015625 83.333984375 83.8330078125 74.0009765625 99.5 c 0
 64.66796875 115.166992188 57.3349609375 129.166992188 52.001953125 141.5 c 0
 46.6689453125 153.833007812 43.6689453125 163.666015625 43.001953125 170.999023438 c 0
 41.6689453125 176.999023438 41.3359375 184.166015625 42.0029296875 192.499023438 c 0
 42.669921875 200.83203125 44.169921875 208.665039062 46.5029296875 215.998046875 c 0
 48.8359375 223.331054688 52.8359375 229.831054688 58.5029296875 235.498046875 c 0
 64.169921875 241.165039062 72.0029296875 244.665039062 82.0029296875 245.998046875 c 0
 85.55859375 246.64453125 88.9482421875 246.967773438 92.1708984375 246.967773438 c 0
 102.241210938 246.967773438 110.684570312 243.811523438 117.502929688 237.499023438 c 0
 126.502929688 229.166015625 131.002929688 218.666015625 131.002929688 205.999023438 c 0
 131.002929688 198.666015625 132.3359375 189.833007812 135.002929688 179.5 c 0
 137.669921875 169.166992188 142.169921875 157.166992188 148.502929688 143.5 c 0
 154.8359375 129.833007812 162.668945312 117.333007812 172.001953125 106 c 0
 181.334960938 94.6669921875 194.501953125 85.1669921875 211.501953125 77.5 c 0
 228.501953125 69.8330078125 246.668945312 66 266.001953125 66 c 0
 290.001953125 66 303.668945312 124 307.001953125 240 c 0
 307.001953125 254.666992188 306.334960938 301.666992188 305.001953125 381 c 0
 304.3359375 420.666015625 304.002929688 460.749023438 304.002929688 501.249023438 c 0
 304.002929688 541.749023438 304.3359375 582.666015625 305.001953125 624 c 1
 260.203125 625.200195312 218.5234375 625.799804688 179.963867188 625.799804688 c 0
 154.256835938 625.799804688 129.936523438 625.533203125 107.002929688 625 c 0
 90.3359375 625 77.6689453125 628.666992188 69.001953125 636 c 0
 56.2734375 646.76953125 55.927734375 659.155273438 55.927734375 666.639648438 c 0
 55.927734375 677.521484375 59.78515625 686.974609375 67.5009765625 694.999023438 c 0
 75.833984375 703.666015625 88.6669921875 707.999023438 106 707.999023438 c 0
 161.559570312 709.5546875 213.229492188 710.333007812 261.009765625 710.333007812 c 0
 356.561523438 710.333007812 436.55859375 707.221679688 501.000976562 701 c 0
 530.333984375 698.333007812 546.000976562 684.666015625 548.000976562 659.999023438 c 0
 548.000976562 653.999023438 547.000976562 648.166015625 545.000976562 642.499023438 c 0
 543.000976562 636.83203125 540.333984375 631.33203125 537.000976562 625.999023438 c 0
 533.66796875 620.666015625 528.66796875 616.499023438 522.000976562 613.499023438 c 0
 515.333984375 610.499023438 507.666992188 609.999023438 499 611.999023438 c 0
 475.666992188 615.33203125 440 618.33203125 392 620.999023438 c 1
 392 601.666015625 392.666992188 572.333007812 394 533 c 0
 395.333007812 493.666992188 396.5 457.833984375 397.5 425.500976562 c 0
 398.5 393.16796875 399 357.16796875 399 317.500976562 c 0
 399 277.833984375 398 243.666992188 396 215 c 0
EndSplineSet
Validated: 524289
EndChar

StartChar: K
Encoding: 75 75 43
Width: 590
GlyphClass: 2
Flags: HMW
HStem: -21.0751 21G 694.072 20G
VStem: 51.735 95.2646
LayerCount: 2
Fore
SplineSet
155 24 m 0
 153.666992188 10 147.171875 -1.16796875 135.504882812 -9.5009765625 c 0
 124.702148438 -17.216796875 112.614257812 -21.07421875 99.240234375 -21.07421875 c 0
 98.169921875 -21.07421875 97.0908203125 -21.0498046875 96.00390625 -21 c 0
 82.6708984375 -21 71.6708984375 -16.5 63.00390625 -7.5 c 0
 55.4921875 0.30078125 51.736328125 10.73046875 51.736328125 23.7890625 c 0
 51.736328125 25.7978515625 51.8251953125 27.8681640625 52.0029296875 30.0009765625 c 0
 53.5029296875 52 54.2529296875 89.091796875 54.2529296875 141.276367188 c 0
 54.2529296875 158.673828125 54.169921875 177.748046875 54.0029296875 198.5 c 0
 53.3359375 281.5 51.6689453125 367 49.001953125 455 c 0
 47.6689453125 497.666992188 47.001953125 526.5 47.001953125 541.5 c 0
 47.001953125 556.5 47.501953125 578.166992188 48.501953125 606.5 c 0
 49.501953125 634.833007812 50.001953125 652.666015625 50.001953125 659.999023438 c 0
 50.6689453125 677.999023438 55.6689453125 691.499023438 65.001953125 700.499023438 c 0
 74.3349609375 709.499023438 86.001953125 713.999023438 100.001953125 713.999023438 c 0
 101.088867188 714.048828125 102.162109375 714.073242188 103.221679688 714.073242188 c 0
 116.458984375 714.073242188 127.552734375 710.215820312 136.502929688 702.5 c 0
 146.169921875 694.166992188 151.002929688 681 151.002929688 663 c 0
 151.002929688 647 150.3359375 612 149.002929688 558 c 0
 147.669921875 504 147.002929688 459.333007812 147.002929688 424 c 1
 171.002929688 447.333007812 207.002929688 482.666015625 255.002929688 529.999023438 c 0
 303.002929688 577.33203125 341.3359375 614.83203125 370.002929688 642.499023438 c 0
 398.669921875 670.166015625 417.002929688 687.333007812 425.002929688 694 c 0
 434.3359375 702.666992188 443.3359375 708.5 452.002929688 711.5 c 0
 460.669921875 714.5 468.169921875 715.166992188 474.502929688 713.5 c 0
 480.8359375 711.833007812 486.668945312 708.333007812 492.001953125 703 c 0
 499.512695312 694.911132812 503.268554688 685.946289062 503.268554688 676.10546875 c 0
 503.268554688 663.235351562 496.845703125 648.8671875 484.000976562 633 c 0
 474.000976562 621 438.66796875 584.5 378.000976562 523.5 c 0
 317.333984375 462.5 263.333984375 409.333007812 216.000976562 364 c 1
 238.66796875 340 277.16796875 302.5 331.500976562 251.5 c 0
 385.833984375 200.5 433.000976562 155.666992188 473.000976562 117 c 0
 513.000976562 78.3330078125 535.333984375 54 540.000976562 44 c 0
 542.000976562 37.666015625 543.000976562 31.666015625 543.000976562 25.9990234375 c 0
 543.000976562 20.33203125 542.000976562 14.9990234375 540.000976562 9.9990234375 c 0
 536.000976562 -0.0009765625 530.000976562 -7.66796875 522.000976562 -13.0009765625 c 0
 513.725585938 -18.5986328125 505.495117188 -21.3974609375 497.30859375 -21.3974609375 c 0
 483.071289062 -21.3974609375 468.96875 -12.931640625 455 4 c 0
 448.333007812 12.6669921875 424.5 35.6669921875 383.5 73 c 0
 342.5 110.333007812 298.333007812 151.5 251 196.5 c 0
 203.666992188 241.5 169 277.333007812 147 304 c 1
 147 284 l 2
 147 272.666992188 149.666992188 186 155 24 c 0
EndSplineSet
Validated: 524289
EndChar

StartChar: L
Encoding: 76 76 44
Width: 590
GlyphClass: 2
Flags: HMW
HStem: -15.0049 86.9159
VStem: 46.998 103.002 76.798 91.7021
LayerCount: 2
Fore
SplineSet
500 10 m 0xc0
 454.666992188 1.3330078125 385.999023438 -5.005859375 293.999023438 -9.005859375 c 0
 201.999023438 -13.005859375 134.33203125 -15.005859375 90.9990234375 -15.005859375 c 0
 77.666015625 -15.005859375 66.666015625 -10.505859375 57.9990234375 -1.505859375 c 0
 50.4873046875 6.294921875 46.7314453125 16.724609375 46.7314453125 29.783203125 c 0
 46.7314453125 31.7919921875 46.8203125 33.8623046875 46.998046875 35.9951171875 c 0xc0
 46.998046875 41.328125 50.8310546875 79.4951171875 58.498046875 150.495117188 c 0
 66.1650390625 221.495117188 71.6650390625 289.995117188 74.998046875 355.995117188 c 0
 76.1982421875 373.995117188 76.7978515625 400.994140625 76.7978515625 436.993164062 c 0
 76.7978515625 460.993164062 76.53125 488.994140625 75.998046875 520.995117188 c 0
 74.6650390625 600.995117188 73.998046875 644.328125 73.998046875 650.995117188 c 0
 74.6650390625 668.995117188 79.83203125 682.662109375 89.4990234375 691.995117188 c 0
 99.166015625 701.328125 110.666015625 705.995117188 123.999023438 705.995117188 c 0
 125.0859375 706.044921875 126.159179688 706.069335938 127.21875 706.069335938 c 0
 140.456054688 706.069335938 151.549804688 702.211914062 160.5 694.49609375 c 0
 170.166992188 686.163085938 175 672.99609375 175 654.99609375 c 0
 175 635.663085938 174.333007812 609.330078125 173 575.997070312 c 0
 171.666992188 542.6640625 170.166992188 500.6640625 168.5 449.997070312 c 0xa0
 166.833007812 399.330078125 165.333007812 355.330078125 164 317.997070312 c 0
 163.333007812 289.997070312 160.833007812 249.330078125 156.5 195.997070312 c 0
 152.166992188 142.6640625 150 101.331054688 150 71.998046875 c 1
 154.87109375 71.9404296875 159.811523438 71.9111328125 164.821289062 71.9111328125 c 0
 217.40625 71.9111328125 277.6328125 75.107421875 345.5 81.498046875 c 0
 419.833007812 88.498046875 469.333007812 95.3310546875 494 101.998046875 c 0
 502 103.998046875 509.166992188 103.665039062 515.5 100.998046875 c 0
 521.833007812 98.3310546875 526.833007812 94.3310546875 530.5 88.998046875 c 0
 534.166992188 83.6650390625 537.166992188 77.83203125 539.5 71.4990234375 c 0
 541.833007812 65.166015625 543 59.3330078125 543 54 c 0
 543 42 540 32.3330078125 534 25 c 0
 528 17.6669921875 516.666992188 12.6669921875 500 10 c 0xc0
EndSplineSet
Validated: 524289
EndChar

StartChar: M
Encoding: 77 77 45
Width: 590
GlyphClass: 2
Flags: HMW
HStem: -9.99414 21G<65.001 71.667>
VStem: 28.999 83.001 241.001 104.999
LayerCount: 2
Fore
SplineSet
112 59 m 0
 112.044921875 57.578125 112.068359375 56.17578125 112.068359375 54.7939453125 c 0
 112.068359375 35.443359375 107.7109375 20.0166015625 99 8.505859375 c 0
 89.6669921875 -3.8271484375 78.333984375 -9.994140625 65.0009765625 -9.994140625 c 0
 41.0009765625 -9.3271484375 29.0009765625 15.33984375 29.0009765625 64.0068359375 c 0
 29.0009765625 72.0068359375 30.0009765625 85.673828125 32.0009765625 105.006835938 c 0
 34.0009765625 124.33984375 36.5009765625 149.672851562 39.5009765625 181.005859375 c 0
 42.5009765625 212.338867188 45.0009765625 239.671875 47.0009765625 263.004882812 c 0
 47.66796875 271.004882812 48.66796875 283.337890625 50.0009765625 300.004882812 c 0
 54.0009765625 349.337890625 57.16796875 387.837890625 59.5009765625 415.504882812 c 0
 61.833984375 443.171875 65.333984375 477.671875 70.0009765625 519.004882812 c 0
 74.66796875 560.337890625 78.8349609375 592.837890625 82.501953125 616.504882812 c 0
 86.1689453125 640.171875 90.6689453125 656.671875 96.001953125 666.004882812 c 0
 102.668945312 680.004882812 112.8359375 690.171875 126.502929688 696.504882812 c 0
 137.79296875 701.736328125 148.7421875 704.352539062 159.350585938 704.352539062 c 0
 161.583007812 704.352539062 163.80078125 704.236328125 166.002929688 704.004882812 c 0
 196.002929688 704.004882812 214.669921875 691.671875 222.002929688 667.004882812 c 0
 230.002929688 637.671875 238.669921875 589.171875 248.002929688 521.504882812 c 0
 257.3359375 453.837890625 266.8359375 376.670898438 276.502929688 290.00390625 c 0
 286.169921875 203.336914062 293.002929688 146.00390625 297.002929688 118.00390625 c 1
 303.669921875 212.00390625 311.336914062 296.670898438 320.00390625 372.00390625 c 0
 326.00390625 427.336914062 334.170898438 483.00390625 344.50390625 539.00390625 c 0
 354.836914062 595.00390625 364.00390625 637.670898438 372.00390625 667.00390625 c 0
 374.670898438 677.00390625 380.170898438 685.170898438 388.50390625 691.50390625 c 0
 396.836914062 697.836914062 405.669921875 701.669921875 415.002929688 703.002929688 c 0
 421.223632812 703.891601562 427 704.3359375 432.33203125 704.3359375 c 0
 435 704.3359375 437.556640625 704.224609375 440.001953125 704.001953125 c 2
 444.001953125 704.001953125 l 1
 457.501953125 704.001953125 l 2
 461.168945312 704.001953125 466.168945312 703.168945312 472.501953125 701.501953125 c 0
 478.834960938 699.834960938 484.001953125 697.66796875 488.001953125 695.000976562 c 0
 492.001953125 692.333984375 495.668945312 688.166992188 499.001953125 682.5 c 0
 502.334960938 676.833007812 504.66796875 670 506.000976562 662 c 0
 508.66796875 642 516.334960938 544.333007812 529.001953125 369 c 0
 541.668945312 193.666992188 551.001953125 94.6669921875 557.001953125 72 c 0
 559.668945312 60.5712890625 561.001953125 50.33984375 561.001953125 41.3056640625 c 0
 561.001953125 18.720703125 552.668945312 3.6181640625 536.001953125 -4.0009765625 c 0
 530.2109375 -6.4384765625 524.419921875 -7.6572265625 518.62890625 -7.6572265625 c 2
 498 -2.5 l 2
 485.333007812 3.8330078125 476 17.666015625 470 38.9990234375 c 0
 456 83.666015625 443.666992188 278.333007812 433 623 c 1
 413.666992188 526.333007812 401 438.333007812 395 359 c 0
 389 283 380.833007812 210.833007812 370.5 142.5 c 0
 360.166992188 74.1669921875 352 32.333984375 346 17.0009765625 c 0
 338.666992188 1.0009765625 320 -6.9990234375 290 -6.9990234375 c 0
 288.333007812 -7.08203125 286.705078125 -7.1240234375 285.116210938 -7.1240234375 c 0
 273.997070312 -7.1240234375 264.791992188 -5.08203125 257.500976562 -0.9990234375 c 0
 249.16796875 3.66796875 243.66796875 10.3349609375 241.000976562 19.001953125 c 0
 233.000976562 51.001953125 219.66796875 124.501953125 201.000976562 239.501953125 c 0
 182.333984375 354.501953125 165.333984375 464.668945312 150.000976562 570.001953125 c 1
 148.000976562 548.668945312 146.16796875 524.668945312 144.500976562 498.001953125 c 0
 142.833984375 471.334960938 141.333984375 448.16796875 140.000976562 428.500976562 c 0
 138.66796875 408.833984375 136.500976562 379.666992188 133.500976562 341 c 0
 130.500976562 302.333007812 128.333984375 273 127.000976562 253 c 0
 125.66796875 225 123.66796875 196.166992188 121.000976562 166.5 c 0
 118.333984375 136.833007812 116.166992188 113.5 114.5 96.5 c 0
 112.833007812 79.5 112 67 112 59 c 0
EndSplineSet
Validated: 524289
EndChar

StartChar: N
Encoding: 78 78 46
Width: 590
GlyphClass: 2
Flags: HMW
HStem: -14.1178 21G
VStem: 49.001 82.7479 448.421 92.5787 458.002 83.18
LayerCount: 2
Fore
SplineSet
467 -14 m 0xd0
 465.5078125 -14.078125 464.045898438 -14.1181640625 462.614257812 -14.1181640625 c 0
 451.888671875 -14.1181640625 442.848632812 -11.9140625 435.497070312 -7.5029296875 c 0
 427.1640625 -2.5029296875 421.331054688 4.330078125 417.998046875 12.9970703125 c 0
 411.998046875 26.330078125 395.998046875 55.6630859375 369.998046875 100.99609375 c 0
 343.998046875 146.329101562 317.165039062 193.49609375 289.498046875 242.49609375 c 0
 261.831054688 291.49609375 232.831054688 346.329101562 202.498046875 406.99609375 c 0
 172.165039062 467.663085938 149.33203125 519.330078125 133.999023438 561.997070312 c 1
 137.19921875 503.86328125 138.798828125 448.9296875 138.798828125 397.196289062 c 0
 138.798828125 384.262695312 138.69921875 371.529296875 138.499023438 358.99609375 c 0
 137.499023438 296.329101562 135.999023438 232.49609375 133.999023438 167.49609375 c 0
 132.499023438 118.748046875 131.749023438 84.3427734375 131.749023438 64.2802734375 c 0
 131.749023438 55.919921875 132.065429688 44.9990234375 132.065429688 44.8046875 c 0
 132.065429688 25.599609375 127.709960938 11.330078125 118.999023438 1.9970703125 c 0
 110.25 -7.3779296875 99.7431640625 -12.0654296875 87.478515625 -12.0654296875 c 0
 86.66015625 -12.0654296875 85.833984375 -12.044921875 85 -12.0029296875 c 0
 71 -12.0029296875 61.5 -6.3359375 56.5 4.9970703125 c 0
 51.5 16.330078125 49 32.9970703125 49 54.9970703125 c 0
 49 68.330078125 50 119.997070312 52 209.997070312 c 0
 54 299.997070312 55.3330078125 378.6640625 56 445.997070312 c 0
 56.1669921875 462.83203125 56.25 479.5 56.25 496.001953125 c 0
 56.25 545.5 55.5 593.499023438 54 639.998046875 c 0
 53.904296875 641.903320312 53.8564453125 643.767578125 53.8564453125 645.590820312 c 0
 53.8564453125 656.528320312 55.5712890625 665.997070312 59 673.99609375 c 0
 63 683.329101562 68.6669921875 690.162109375 76 694.495117188 c 0
 83.3330078125 698.828125 91 701.828125 99 703.495117188 c 0
 107 705.162109375 115.666992188 705.329101562 125 703.99609375 c 0
 153.666992188 703.99609375 171.666992188 691.663085938 179 666.99609375 c 0
 193 622.99609375 231.666992188 541.99609375 295 423.99609375 c 0
 358.333007812 305.99609375 412 210.663085938 456 137.99609375 c 1
 457.778320312 179.779296875 458.666992188 234.232421875 458.666992188 301.35546875 c 0
 458.666992188 334.904296875 458.4453125 371.618164062 458.000976562 411.497070312 c 0xd0
 456.66796875 531.1640625 453.66796875 609.997070312 449.000976562 647.997070312 c 0
 448.614257812 651.09375 448.420898438 654.096679688 448.420898438 657.005859375 c 0
 448.420898438 669.12890625 451.78125 679.625976562 458.501953125 688.497070312 c 0
 466.834960938 699.497070312 477.66796875 704.997070312 491.000976562 704.997070312 c 0
 498.333984375 704.997070312 504.666992188 704.1640625 510 702.497070312 c 0
 515.333007812 700.830078125 519.5 698.830078125 522.5 696.497070312 c 0
 525.5 694.1640625 528 690.331054688 530 684.998046875 c 0
 532 679.665039062 533.5 674.83203125 534.5 670.499023438 c 0
 535.5 666.166015625 536.666992188 659.333007812 538 650 c 0
 539.333007812 639.333007812 540.333007812 585.833007812 541 489.5 c 0xe0
 541.12109375 471.981445312 541.181640625 454.34765625 541.181640625 436.59765625 c 0
 541.181640625 356.741210938 539.954101562 274.541992188 537.5 190 c 0
 534.5 86.6669921875 529.333007812 27 522 11 c 0
 515.333007812 -5.6669921875 497 -14 467 -14 c 0xd0
EndSplineSet
Validated: 524289
EndChar

StartChar: O
Encoding: 79 79 47
Width: 590
GlyphClass: 2
Flags: HMW
HStem: -24 83.998 636.997 81.001
VStem: 49.999 96.3855 443.499 96.0643
LayerCount: 2
Fore
SplineSet
262 -24 m 0
 220.666992188 -23.3330078125 183.666992188 -10.8369140625 151 13.49609375 c 0
 118.333007812 37.8291015625 93.166015625 70.49609375 75.4990234375 111.49609375 c 0
 58.474609375 151.004882812 49.962890625 194.072265625 49.962890625 240.700195312 c 0
 49.962890625 242.4609375 49.974609375 244.2265625 49.9990234375 245.997070312 c 2
 49.9990234375 262.997070312 l 2
 49.9990234375 292.997070312 50.166015625 316.997070312 50.4990234375 334.997070312 c 0
 50.83203125 352.997070312 52.1650390625 376.997070312 54.498046875 406.997070312 c 0
 56.8310546875 436.997070312 60.8310546875 465.497070312 66.498046875 492.497070312 c 0
 72.1650390625 519.497070312 79.33203125 544.997070312 87.9990234375 568.997070312 c 0
 104.666015625 612.330078125 134.333007812 647.997070312 177 675.997070312 c 0
 219.666992188 703.997070312 267 717.997070312 319 717.997070312 c 0
 345.666992188 717.997070312 371.333984375 712.830078125 396.000976562 702.497070312 c 0
 420.66796875 692.1640625 442.66796875 677.331054688 462.000976562 657.998046875 c 0
 481.333984375 638.665039062 497.500976562 613.998046875 510.500976562 583.998046875 c 0
 523.500976562 553.998046875 531.66796875 520.331054688 535.000976562 482.998046875 c 0
 537.66796875 449.665039062 539.16796875 413.998046875 539.500976562 375.998046875 c 0
 539.54296875 371.251953125 539.563476562 366.498046875 539.563476562 361.736328125 c 0
 539.563476562 328.374023438 538.54296875 294.627929688 536.500976562 260.499023438 c 0
 534.16796875 221.499023438 529.66796875 190.666015625 523.000976562 167.999023438 c 0
 514.333984375 136.666015625 503.666992188 109.666015625 491 86.9990234375 c 0
 478.333007812 64.33203125 464.333007812 45.83203125 449 31.4990234375 c 0
 433.666992188 17.166015625 416 5.8330078125 396 -2.5 c 0
 376 -10.8330078125 355.5 -16.5 334.5 -19.5 c 0
 313.5 -22.5 289.333007812 -24 262 -24 c 0
262 59.99609375 m 0
 280 59.99609375 296.997070312 62.1640625 312.997070312 66.4970703125 c 0
 328.997070312 70.830078125 344.6640625 77.830078125 359.997070312 87.4970703125 c 0
 375.330078125 97.1640625 388.997070312 109.997070312 400.997070312 125.997070312 c 0
 412.997070312 141.997070312 422.330078125 160.6640625 428.997070312 181.997070312 c 0
 431.6640625 190.6640625 434.331054688 210.6640625 436.998046875 241.997070312 c 0
 439.665039062 273.330078125 441.83203125 310.663085938 443.499023438 353.99609375 c 0
 443.989257812 366.741210938 444.234375 379.428710938 444.234375 392.05859375 c 0
 444.234375 422.370117188 442.822265625 452.349609375 439.999023438 481.99609375 c 0
 435.999023438 525.99609375 421.83203125 562.829101562 397.499023438 592.49609375 c 0
 373.166015625 622.163085938 343.333007812 636.99609375 308 636.99609375 c 0
 272 636.99609375 241.833007812 623.829101562 217.5 597.49609375 c 0
 193.166992188 571.163085938 175.666992188 534.330078125 165 486.997070312 c 0
 152.58984375 433.408203125 146.384765625 371.466796875 146.384765625 301.171875 c 0
 146.384765625 288.389648438 146.58984375 275.331054688 147 261.99609375 c 0
 147.666992188 240.663085938 149.5 220.99609375 152.5 202.99609375 c 0
 155.5 184.99609375 159.666992188 166.99609375 165 148.99609375 c 0
 170.333007812 130.99609375 177.333007812 115.49609375 186 102.49609375 c 0
 194.666992188 89.49609375 205.5 79.1630859375 218.5 71.49609375 c 0
 231.5 63.8291015625 246 59.99609375 262 59.99609375 c 0
EndSplineSet
Validated: 524289
EndChar

StartChar: P
Encoding: 80 80 48
Width: 590
GlyphClass: 2
Flags: HMW
HStem: -19.0771 21G 230.001 81.9374 630.003 80.998
VStem: 69.664 94.3366 74.74 102.314 438.997 92.0029
LayerCount: 2
Fore
SplineSet
177.053710938 21.7568359375 m 0xec
 177.053710938 8.837890625 171.53515625 -1.2421875 160.499023438 -8.4951171875 c 0
 149.765625 -15.548828125 137.762695312 -19.0751953125 124.490234375 -19.0751953125 c 0
 123.3359375 -19.0751953125 122.171875 -19.048828125 120.998046875 -18.9951171875 c 0
 106.998046875 -18.9951171875 95.498046875 -14.828125 86.498046875 -6.4951171875 c 0
 78.6591796875 0.7626953125 74.740234375 10.9287109375 74.740234375 24.0029296875 c 0xec
 74.740234375 25.939453125 74.826171875 27.939453125 74.998046875 30.00390625 c 0
 75.6650390625 40.6708984375 75.998046875 56.50390625 75.998046875 77.50390625 c 0
 75.998046875 98.50390625 75.8310546875 124.50390625 75.498046875 155.50390625 c 0
 75.1650390625 186.50390625 74.6650390625 216.50390625 73.998046875 245.50390625 c 0
 73.3310546875 274.50390625 72.498046875 310.00390625 71.498046875 352.00390625 c 0
 70.498046875 394.00390625 69.998046875 429.00390625 69.998046875 457.00390625 c 0
 69.775390625 471.455078125 69.6640625 487.463867188 69.6640625 505.029296875 c 0xf4
 69.6640625 540.134765625 70.1083984375 581.458984375 70.9970703125 629.002929688 c 0
 67.6640625 632.3359375 65.6640625 634.002929688 64.9970703125 634.002929688 c 0
 59.6640625 642.002929688 57.8310546875 650.169921875 59.498046875 658.502929688 c 0
 61.1650390625 666.8359375 64.83203125 674.3359375 70.4990234375 681.002929688 c 0
 76.166015625 687.669921875 82.3330078125 691.669921875 89 693.002929688 c 0
 113 698.3359375 148.166992188 702.668945312 194.5 706.001953125 c 0
 240.833007812 709.334960938 273.333007812 711.001953125 292 711.001953125 c 0
 337.333007812 711.001953125 377.833007812 703.001953125 413.5 687.001953125 c 0
 449.166992188 671.001953125 477.5 646.834960938 498.5 614.501953125 c 0
 519.5 582.168945312 530.333007812 543.668945312 531 499.001953125 c 0
 531 461.668945312 524.833007812 426.501953125 512.5 393.501953125 c 0
 500.166992188 360.501953125 483.5 332.001953125 462.5 308.001953125 c 0
 441.5 284.001953125 415.666992188 265.001953125 385 251.001953125 c 0
 354.333007812 237.001953125 321 230.001953125 285 230.001953125 c 0
 233 230.001953125 192 233.668945312 162 241.001953125 c 1
 163.333007812 213.001953125 165 186.168945312 167 160.501953125 c 0
 169 134.834960938 171 108.16796875 173 80.5009765625 c 0
 175.264648438 49.16796875 177.053710938 24.41796875 177.053710938 21.7568359375 c 0xec
291.999023438 630.005859375 m 0
 268.666015625 630.005859375 226.66796875 627.336914062 166.000976562 622.00390625 c 1
 166.000976562 608.670898438 165.333984375 584.00390625 164.000976562 548.00390625 c 0xf4
 162.66796875 512.00390625 161.66796875 475.00390625 161.000976562 437.00390625 c 0
 160.333984375 399.00390625 160.000976562 362.00390625 160.000976562 326.00390625 c 1
 185.625 316.62890625 215.350585938 311.94140625 249.177734375 311.94140625 c 0
 251.43359375 311.94140625 253.708007812 311.961914062 256.000976562 312.00390625 c 0
 275.333984375 312.00390625 292.833984375 313.336914062 308.500976562 316.00390625 c 0
 324.16796875 318.670898438 337.834960938 322.337890625 349.501953125 327.004882812 c 0
 361.168945312 331.671875 371.668945312 337.838867188 381.001953125 345.505859375 c 0
 390.334960938 353.172851562 398.16796875 360.83984375 404.500976562 368.506835938 c 0
 410.833984375 376.173828125 416.166992188 385.173828125 420.5 395.506835938 c 0
 424.833007812 405.83984375 428.166015625 415.172851562 430.499023438 423.505859375 c 0
 432.83203125 431.838867188 434.665039062 441.505859375 435.998046875 452.505859375 c 0
 437.331054688 463.505859375 438.1640625 472.505859375 438.497070312 479.505859375 c 0
 438.830078125 486.505859375 438.997070312 495.005859375 438.997070312 505.005859375 c 0
 438.997070312 523.672851562 435.497070312 540.505859375 428.497070312 555.505859375 c 0
 421.497070312 570.505859375 412.830078125 582.505859375 402.497070312 591.505859375 c 0
 392.1640625 600.505859375 380.331054688 608.005859375 366.998046875 614.005859375 c 0
 353.665039062 620.005859375 340.83203125 624.172851562 328.499023438 626.505859375 c 0
 316.166015625 628.838867188 303.999023438 630.005859375 291.999023438 630.005859375 c 0
EndSplineSet
Validated: 524289
EndChar

StartChar: Q
Encoding: 81 81 49
Width: 590
GlyphClass: 2
Flags: HMW
HStem: -24.1963 84.2021 637.005 80.9971
VStem: 46.07 95.6075 250.858 73.1323 444.101 93.3379
LayerCount: 2
Fore
SplineSet
521 -206 m 0
 513.890625 -210.443359375 506.481445312 -212.6640625 498.77734375 -212.6640625 c 0
 494.921875 -212.6640625 490.993164062 -212.108398438 486.991210938 -210.997070312 c 0
 474.991210938 -207.6640625 464.32421875 -199.997070312 454.991210938 -187.997070312 c 0
 445.658203125 -175.997070312 429.658203125 -153.6640625 406.991210938 -120.997070312 c 0
 384.32421875 -88.330078125 362.32421875 -54.9970703125 340.991210938 -20.9970703125 c 1
 327.125976562 -23.130859375 312.194335938 -24.197265625 296.1953125 -24.197265625 c 0
 292.194335938 -24.197265625 288.125976562 -24.130859375 283.991210938 -23.9970703125 c 0
 254.658203125 -23.9970703125 227.325195312 -19.330078125 201.9921875 -9.9970703125 c 0
 176.659179688 -0.6640625 154.826171875 12.3359375 136.493164062 29.0029296875 c 0
 118.16015625 45.669921875 102.327148438 65.5029296875 88.994140625 88.5029296875 c 0
 75.6611328125 111.502929688 65.6611328125 136.169921875 58.994140625 162.502929688 c 0
 52.3271484375 188.8359375 48.3271484375 216.668945312 46.994140625 246.001953125 c 0
 46.3779296875 263.084960938 46.0693359375 279.766601562 46.0693359375 296.046875 c 0
 46.0693359375 403.024414062 59.3779296875 492.67578125 85.994140625 565.001953125 c 0
 103.327148438 609.001953125 132.994140625 645.501953125 174.994140625 674.501953125 c 0
 216.994140625 703.501953125 263.994140625 718.001953125 315.994140625 718.001953125 c 0
 343.327148438 718.001953125 368.827148438 713.334960938 392.494140625 704.001953125 c 0
 416.161132812 694.668945312 437.661132812 681.001953125 456.994140625 663.001953125 c 0
 476.327148438 645.001953125 492.494140625 620.668945312 505.494140625 590.001953125 c 0
 518.494140625 559.334960938 527.327148438 523.66796875 531.994140625 483.000976562 c 0
 535.624023438 447.220703125 537.439453125 405.2890625 537.439453125 357.20703125 c 0
 537.439453125 343.473632812 537.291015625 329.23828125 536.995117188 314.500976562 c 0
 535.662109375 248.16796875 531.329101562 197.66796875 523.99609375 163.000976562 c 0
 509.99609375 91.0009765625 477.329101562 39.66796875 425.99609375 9.0009765625 c 1
 439.329101562 -10.33203125 453.49609375 -29.9990234375 468.49609375 -49.9990234375 c 0
 483.49609375 -69.9990234375 497.829101562 -88.666015625 511.49609375 -105.999023438 c 0
 525.163085938 -123.33203125 534.330078125 -134.999023438 538.997070312 -140.999023438 c 0
 543.6640625 -148.33203125 545.331054688 -156.33203125 543.998046875 -164.999023438 c 0
 542.665039062 -173.666015625 539.83203125 -181.833007812 535.499023438 -189.5 c 0
 531.166015625 -197.166992188 526.333007812 -202.666992188 521 -206 c 0
143.991210938 262.004882812 m 0
 145.991210938 224.004882812 153.157226562 189.837890625 165.490234375 159.504882812 c 0
 177.823242188 129.171875 194.323242188 105.004882812 214.990234375 87.0048828125 c 0
 235.657226562 69.0048828125 258.657226562 60.0048828125 283.990234375 60.0048828125 c 2
 293.990234375 60.0048828125 l 1
 277.990234375 90.0048828125 266.657226562 113.337890625 259.990234375 130.004882812 c 0
 253.90234375 146.33203125 250.858398438 160.706054688 250.858398438 173.127929688 c 0
 250.858398438 190.630859375 256.90234375 204.256835938 268.990234375 214.005859375 c 0
 274.990234375 218.672851562 281.490234375 221.505859375 288.490234375 222.505859375 c 0
 295.490234375 223.505859375 302.157226562 221.505859375 308.490234375 216.505859375 c 0
 314.823242188 211.505859375 319.990234375 204.005859375 323.990234375 194.005859375 c 0
 335.990234375 160.672851562 353.323242188 124.33984375 375.990234375 85.0068359375 c 1
 404.657226562 104.33984375 423.657226562 135.33984375 432.990234375 178.006835938 c 0
 434.990234375 188.006835938 437.157226562 208.173828125 439.490234375 238.506835938 c 0
 441.823242188 268.83984375 443.323242188 306.672851562 443.990234375 352.005859375 c 0
 444.064453125 357.044921875 444.1015625 362.059570312 444.1015625 367.049804688 c 0
 444.1015625 406.948242188 441.731445312 445.266601562 436.991210938 482.004882812 c 0
 431.658203125 529.337890625 417.158203125 567.004882812 393.491210938 595.004882812 c 0
 369.82421875 623.004882812 340.32421875 637.004882812 304.991210938 637.004882812 c 0
 268.32421875 637.004882812 237.82421875 624.004882812 213.491210938 598.004882812 c 0
 189.158203125 572.004882812 171.658203125 535.671875 160.991210938 489.004882812 c 0
 148.115234375 437.5 141.676757812 382.5 141.676757812 324.004882812 c 0
 141.676757812 303.756835938 142.448242188 283.08984375 143.991210938 262.004882812 c 0
EndSplineSet
Validated: 524289
EndChar

StartChar: R
Encoding: 82 82 50
Width: 590
GlyphClass: 2
Flags: HMW
HStem: -19.0801 21G 694.06 20G
VStem: 51.002 95 55.457 102.598 55.502 93.498 59.002 81 436.002 92
LayerCount: 2
Fore
SplineSet
158.053710938 21.755859375 m 0xd2
 158.053710938 8.8369140625 152.5390625 -1.248046875 141.502929688 -8.5 c 0
 130.76953125 -15.5537109375 118.485351562 -19.080078125 104.649414062 -19.080078125 c 0
 103.4453125 -19.080078125 102.229492188 -19.0537109375 101.001953125 -19 c 0
 87.001953125 -19 75.501953125 -14.8330078125 66.501953125 -6.5 c 0
 59.138671875 0.318359375 55.45703125 9.703125 55.45703125 21.6533203125 c 0xd2
 55.45703125 24.30859375 55.638671875 27.0908203125 56.001953125 30 c 0
 58.6689453125 64.6669921875 60.001953125 94.1669921875 60.001953125 118.5 c 0
 60.001953125 142.833007812 59.6689453125 202.666015625 59.001953125 297.999023438 c 0xc6
 59.001953125 310.666015625 59.6689453125 337.833007812 61.001953125 379.5 c 0
 61.66796875 400.333984375 62.0009765625 420.625976562 62.0009765625 440.375976562 c 0
 62.0009765625 460.125976562 61.66796875 479.333984375 61.001953125 498 c 0
 60.3349609375 520.666992188 58.501953125 551.333984375 55.501953125 590.000976562 c 0xca
 52.501953125 628.66796875 51.001953125 652.000976562 51.001953125 660.000976562 c 2
 51.001953125 666.000976562 l 2xe2
 50.95703125 666.845703125 50.9345703125 667.68359375 50.9345703125 668.513671875 c 0
 50.9345703125 680.127929688 55.2900390625 690.290039062 64.0009765625 699.000976562 c 0
 72.158203125 709.040039062 83.267578125 714.059570312 97.3291015625 714.059570312 c 0
 98.2080078125 714.059570312 99.0986328125 714.040039062 100.000976562 714.000976562 c 0
 113.333984375 714.000976562 124.000976562 711.333984375 132.000976562 706.000976562 c 1
 187.333984375 703.333984375 237.500976562 696.166992188 282.500976562 684.5 c 0
 327.500976562 672.833007812 365.000976562 658.333007812 395.000976562 641 c 0
 425.000976562 623.666992188 450.333984375 604 471.000976562 582 c 0
 491.66796875 560 506.334960938 538 515.001953125 516 c 0
 523.668945312 494 528.001953125 471.666992188 528.001953125 449 c 0
 528.001953125 432.333007812 525.834960938 417 521.501953125 403 c 0
 517.168945312 389 511.001953125 376.833007812 503.001953125 366.5 c 0
 495.001953125 356.166992188 484.668945312 347 472.001953125 339 c 0
 459.334960938 331 445.834960938 324.166992188 431.501953125 318.5 c 0
 417.168945312 312.833007812 400.168945312 307.833007812 380.501953125 303.5 c 0
 360.834960938 299.166992188 341.334960938 295.833984375 322.001953125 293.500976562 c 0
 302.668945312 291.16796875 281.001953125 289.000976562 257.001953125 287.000976562 c 1
 324.334960938 252.333984375 383.66796875 211.833984375 435.000976562 165.500976562 c 0
 486.333984375 119.16796875 520.000976562 79.66796875 536.000976562 47.0009765625 c 0
 538.000976562 41.0009765625 539.000976562 35.2509765625 539.000976562 29.7509765625 c 0
 539.000976562 24.2509765625 538.000976562 19.0009765625 536.000976562 14.0009765625 c 0
 532.000976562 4.0009765625 525.66796875 -3.9990234375 517.000976562 -9.9990234375 c 0
 509.66796875 -15.3759765625 501.88671875 -18.064453125 493.657226562 -18.064453125 c 0
 490.6640625 -18.064453125 487.611328125 -17.708984375 484.5 -16.998046875 c 0
 472.833007812 -14.3310546875 462 -6.3310546875 452 7.001953125 c 0
 441.333007812 21.001953125 426.166015625 38.1689453125 406.499023438 58.501953125 c 0
 386.83203125 78.8349609375 363.165039062 101.501953125 335.498046875 126.501953125 c 0
 307.831054688 151.501953125 276.331054688 176.168945312 240.998046875 200.501953125 c 0
 205.665039062 224.834960938 171.33203125 244.334960938 137.999023438 259.001953125 c 1
 139.999023438 220.334960938 143.666015625 174.66796875 148.999023438 122.000976562 c 0xca
 151.875 93.6025390625 158.053710938 31.578125 158.053710938 21.755859375 c 0xd2
151.00390625 498 m 0
 151.00390625 490.666992188 150.505859375 480.833984375 149.505859375 468.500976562 c 0
 148.505859375 456.16796875 147.672851562 445.16796875 147.005859375 435.500976562 c 0
 146.338867188 425.833984375 145.171875 412.500976562 143.504882812 395.500976562 c 0
 141.837890625 378.500976562 140.670898438 366.333984375 140.00390625 359.000976562 c 1xc6
 148.00390625 357.4765625 158.2890625 356.71484375 170.859375 356.71484375 c 0
 180.288085938 356.71484375 191.002929688 357.143554688 203.00390625 358.000976562 c 0
 230.336914062 359.333984375 253.336914062 360.833984375 272.00390625 362.500976562 c 0
 290.670898438 364.16796875 309.50390625 366.500976562 328.50390625 369.500976562 c 0
 347.50390625 372.500976562 363.00390625 376.000976562 375.00390625 380.000976562 c 0
 387.00390625 384.000976562 398.00390625 389.000976562 408.00390625 395.000976562 c 0
 418.00390625 401.000976562 425.170898438 408.16796875 429.50390625 416.500976562 c 0
 433.836914062 424.833984375 436.00390625 434.333984375 436.00390625 445.000976562 c 0
 436.00390625 463.66796875 429.170898438 481.66796875 415.50390625 499.000976562 c 0
 401.836914062 516.333984375 384.50390625 531.666992188 363.50390625 545 c 0
 342.50390625 558.333007812 318.670898438 570.5 292.00390625 581.5 c 0
 265.336914062 592.5 239.836914062 601.333007812 215.50390625 608 c 0
 191.170898438 614.666992188 168.00390625 620 146.00390625 624 c 1xe2
 148.00390625 575.333007812 149.670898438 533.333007812 151.00390625 498 c 0
EndSplineSet
Validated: 524289
EndChar

StartChar: S
Encoding: 83 83 51
Width: 590
GlyphClass: 2
Flags: HMW
HStem: -29 85<243.663 264.996 243.663 268.333> 645.001 79.001
VStem: 74.998 100.001 446.996 99.0029
LayerCount: 2
Fore
SplineSet
54 66 m 0
 47.560546875 79.3740234375 44.3388671875 90.9111328125 44.3388671875 100.60546875 c 0
 44.3388671875 103.958984375 44.724609375 107.091796875 45.4951171875 110.00390625 c 0
 48.4951171875 121.336914062 55.662109375 130.00390625 66.9951171875 136.00390625 c 0
 74.9951171875 139.336914062 81.328125 141.669921875 85.9951171875 143.002929688 c 0
 90.662109375 144.3359375 95.8291015625 144.668945312 101.49609375 144.001953125 c 0
 107.163085938 143.334960938 112.663085938 140.66796875 117.99609375 136.000976562 c 0
 123.329101562 131.333984375 129.329101562 124.666992188 135.99609375 116 c 0
 147.99609375 98 164.49609375 83.5 185.49609375 72.5 c 0
 206.49609375 61.5 230.329101562 56 256.99609375 56 c 0
 272.99609375 56 289.663085938 58.1669921875 306.99609375 62.5 c 0
 324.329101562 66.8330078125 341.329101562 73.5 357.99609375 82.5 c 0
 374.663085938 91.5 389.663085938 102 402.99609375 114 c 0
 416.329101562 126 426.99609375 140.166992188 434.99609375 156.5 c 0
 442.99609375 172.833007812 446.99609375 190 446.99609375 208 c 0
 446.99609375 218 446.329101562 227 444.99609375 235 c 0
 443.663085938 243 441.163085938 251.666992188 437.49609375 261 c 0
 433.829101562 270.333007812 428.829101562 278.833007812 422.49609375 286.5 c 0
 416.163085938 294.166992188 407.330078125 301.833984375 395.997070312 309.500976562 c 0
 384.6640625 317.16796875 371.331054688 324.000976562 355.998046875 330.000976562 c 0
 340.665039062 336.000976562 321.998046875 341.500976562 299.998046875 346.500976562 c 0
 277.998046875 351.500976562 253.331054688 355.333984375 225.998046875 358.000976562 c 0
 201.998046875 360.66796875 180.165039062 367.000976562 160.498046875 377.000976562 c 0
 140.831054688 387.000976562 124.998046875 399.16796875 112.998046875 413.500976562 c 0
 100.998046875 427.833984375 91.6650390625 442.833984375 84.998046875 458.500976562 c 0
 78.3310546875 474.16796875 74.998046875 490.000976562 74.998046875 506.000976562 c 0
 74.998046875 528.66796875 78.8310546875 550.500976562 86.498046875 571.500976562 c 0
 94.1650390625 592.500976562 105.998046875 612.333984375 121.998046875 631.000976562 c 0
 137.998046875 649.66796875 157.331054688 665.834960938 179.998046875 679.501953125 c 0
 202.665039062 693.168945312 229.83203125 704.001953125 261.499023438 712.001953125 c 0
 293.166015625 720.001953125 326.999023438 724.001953125 362.999023438 724.001953125 c 0
 380.999023438 724.001953125 405.666015625 722.501953125 436.999023438 719.501953125 c 0
 468.33203125 716.501953125 489.665039062 712.668945312 500.998046875 708.001953125 c 0
 513.665039062 703.334960938 522.83203125 696.001953125 528.499023438 686.001953125 c 0
 533.086914062 677.90625 535.380859375 669.373046875 535.380859375 660.403320312 c 0
 535.380859375 658.293945312 535.25390625 656.16015625 535 654.001953125 c 0
 534.333007812 646.001953125 531.666015625 639.668945312 526.999023438 635.001953125 c 0
 522.33203125 630.334960938 516.665039062 627.66796875 509.998046875 627.000976562 c 0
 503.331054688 626.333984375 497.331054688 626.166992188 491.998046875 626.5 c 0
 486.665039062 626.833007812 480.998046875 628 474.998046875 630 c 0
 473.665039062 630 471.665039062 630.666992188 468.998046875 632 c 0
 456.998046875 634.666992188 447.498046875 636.833984375 440.498046875 638.500976562 c 0
 433.498046875 640.16796875 422.331054688 641.66796875 406.998046875 643.000976562 c 0
 391.665039062 644.333984375 374.33203125 645.000976562 354.999023438 645.000976562 c 0
 324.33203125 645.000976562 295.499023438 640.500976562 268.499023438 631.500976562 c 0
 241.499023438 622.500976562 219.166015625 609.000976562 201.499023438 591.000976562 c 0
 183.83203125 573.000976562 174.999023438 553.000976562 174.999023438 531.000976562 c 0
 174.999023438 505.000976562 186.33203125 483.000976562 208.999023438 465.000976562 c 0
 231.666015625 447.000976562 263.666015625 437.333984375 304.999023438 436.000976562 c 0
 342.33203125 434.000976562 375.33203125 428.16796875 403.999023438 418.500976562 c 0
 432.666015625 408.833984375 455.666015625 397.166992188 472.999023438 383.5 c 0
 490.33203125 369.833007812 504.83203125 353.833007812 516.499023438 335.5 c 0
 528.166015625 317.166992188 535.999023438 299 539.999023438 281 c 0
 543.999023438 263 545.999023438 244.333007812 545.999023438 225 c 0
 545.999023438 194.333007812 540.83203125 165.5 530.499023438 138.5 c 0
 520.166015625 111.5 505.833007812 87.8330078125 487.5 67.5 c 0
 469.166992188 47.1669921875 447.666992188 29.6669921875 423 15 c 0
 398.333007812 0.3330078125 371.5 -10.6669921875 342.5 -18 c 0
 313.5 -25.3330078125 283.666992188 -29 253 -29 c 0
 206.333007812 -29 165 -19.8330078125 129 -1.5 c 0
 93 16.8330078125 68 39.3330078125 54 66 c 0
EndSplineSet
Validated: 524289
EndChar

StartChar: T
Encoding: 84 84 52
Width: 590
GlyphClass: 2
Flags: HMW
HStem: -13.0725 21G 621 80
VStem: 246.865 100.135 255.731 103.269
LayerCount: 2
Fore
SplineSet
359 33 m 0xd0
 357.666992188 19 350.997070312 7.6630859375 338.997070312 -1.00390625 c 0
 327.854492188 -9.0517578125 315.849609375 -13.0751953125 302.982421875 -13.0751953125 c 0
 301.9921875 -13.0751953125 300.997070312 -13.0517578125 299.997070312 -13.00390625 c 0
 286.6640625 -13.00390625 275.6640625 -8.50390625 266.997070312 0.49609375 c 0
 259.485351562 8.296875 255.729492188 18.9765625 255.729492188 32.5361328125 c 0xd0
 255.729492188 34.6220703125 255.818359375 36.775390625 255.99609375 38.9970703125 c 0
 256.627929688 48.470703125 256.943359375 64.208984375 256.943359375 86.212890625 c 0
 256.943359375 133.891601562 255.4609375 210.986328125 252.49609375 317.498046875 c 0
 248.741210938 452.399414062 246.86328125 546.37109375 246.86328125 599.413085938 c 0
 246.86328125 607.578125 246.908203125 614.7734375 246.997070312 620.999023438 c 1
 159.6640625 624.999023438 109.331054688 627.999023438 95.998046875 629.999023438 c 0
 46.6416015625 637.741210938 43.9267578125 659.939453125 43.9267578125 671.694335938 c 0
 43.9267578125 683.279296875 47.9501953125 693.713867188 55.998046875 702.999023438 c 0
 62.498046875 710.499023438 71.435546875 714.249023438 82.810546875 714.249023438 c 0
 86.6025390625 714.249023438 90.6650390625 713.83203125 94.998046875 712.999023438 c 0
 131.665039062 706.999023438 266.998046875 702.999023438 500.998046875 700.999023438 c 0
 516.998046875 700.999023438 528.331054688 696.999023438 534.998046875 688.999023438 c 0
 541.665039062 680.999023438 545.33203125 671.33203125 545.999023438 659.999023438 c 0
 545.999023438 646.666015625 542.166015625 634.999023438 534.499023438 624.999023438 c 0
 527.734375 616.17578125 517.725585938 611.764648438 504.47265625 611.764648438 c 0
 502.706054688 611.764648438 500.881835938 611.842773438 499 612 c 0
 493.666992188 612 443 613.666992188 347 617 c 1xe0
 347.666992188 481 351.666992188 286.333007812 359 33 c 0xd0
EndSplineSet
Validated: 524289
EndChar

